<svg width="24" height="22" viewBox="0 0 24 22" fill="none" xmlns="http://www.w3.org/2000/svg">
<path fillRule="evenodd" clipRule="evenodd" d="M10.8652 16.097C8.57623 16.902 5.69324 15.562 5.11024 13.341C2.23224 13.336 0.024236 11.933 0.000235963 9.45501C-0.037764 5.42401 4.51624 0.0070069 12.0002 6.90171e-06C19.4852 -0.0069931 23.9962 5.31201 24.0002 10.329C24.0042 15.346 19.8182 17.226 16.3932 16.592C16.0292 18.099 16.2222 20.17 16.6252 21.339L14.5162 22C13.7032 19.212 12.3162 17.033 10.8652 16.097ZM10.1732 6.82101C9.48224 6.50701 9.00024 5.80901 9.00024 5.00001C9.00024 3.89601 9.89624 3.00001 11.0002 3.00001C12.1042 3.00001 13.0002 3.89601 13.0002 5.00001C13.0002 5.26001 12.9502 5.50901 12.8602 5.73801C14.0742 6.64901 15.2652 7.59301 16.4592 8.53201C16.8842 8.19901 17.4192 8.00001 18.0002 8.00001C19.3802 8.00001 20.5002 9.12001 20.5002 10.5C20.5002 11.88 19.3802 13 18.0002 13C16.8292 13 15.8452 12.193 15.5742 11.105C14.3732 11.203 13.1702 11.278 11.9682 11.359C11.7992 12.292 10.9812 13 10.0002 13C8.89624 13 8.00024 12.104 8.00024 11C8.00024 9.96701 8.78524 9.11601 9.79024 9.01101C9.91124 8.28001 10.0422 7.55101 10.1732 6.82101ZM12.2332 6.57501C11.9362 6.80701 11.5722 6.95801 11.1752 6.99201L10.8122 9.17201C11.3162 9.39601 11.7102 9.82301 11.8922 10.349L15.5392 10.06C15.5862 9.79301 15.6762 9.54101 15.8012 9.31101L12.2332 6.57501Z" fill="rgba(67,89,109,1)"/>
</svg>
