<svg width="178" height="190" viewBox="0 0 178 190" fill="none" xmlns="http://www.w3.org/2000/svg">
<path d="M83.6174 157.705L104.208 170.092C105.262 170.73 105.246 172.277 104.16 172.866L77.5793 188.028C76.9244 188.41 76.1097 188.395 75.4548 188.028L54.3534 175.816C53.4909 175.322 53.4909 174.062 54.3694 173.584L81.5567 157.721C82.1957 157.37 82.9624 157.354 83.6174 157.705Z" fill="#EEF1F5"/>
<path d="M86.4128 177.729L98.9203 170.507C98.9203 162.727 98.9362 150.786 98.9203 150.292C98.9043 149.893 99.1918 149.558 99.5912 149.51C100.006 149.463 100.374 149.781 100.406 150.18C100.406 150.228 100.422 148.219 100.406 170.937C100.406 171.208 100.262 171.447 100.022 171.591L87.1316 179.036C87.0198 179.1 86.892 179.132 86.7643 179.132C86.5087 179.132 86.2531 179.004 86.1093 178.749C85.9336 178.383 86.0614 177.936 86.4128 177.729Z" fill="#D2D9E5"/>
<path d="M62.5004 163.954L75.0078 156.732C75.0078 148.952 75.0238 137.011 75.0078 136.517C74.9918 136.118 75.2794 135.784 75.6787 135.736C76.094 135.688 76.4614 136.007 76.4934 136.405C76.4934 136.453 76.5093 134.444 76.4934 157.163C76.4934 157.434 76.3496 157.673 76.11 157.816L63.2192 165.261C63.1074 165.325 62.9796 165.357 62.8518 165.357C62.5962 165.357 62.3406 165.23 62.1969 164.975C62.0212 164.608 62.149 164.146 62.5004 163.954Z" fill="#371D3E"/>
<path d="M100.438 148.569V150.402L80.3429 162.088V160.159L100.438 148.569Z" fill="#AFBBD1"/>
<path d="M80.3429 160.176V162.089L56.3503 148.251V146.258L80.3429 160.176Z" fill="#96A6C3"/>
<path d="M100.438 147.071V148.569L80.3429 160.16V158.597L100.438 147.071Z" fill="#E76866"/>
<path d="M56.3503 144.855L76.4293 133.329L100.438 147.071L80.3429 158.598L56.3503 144.855Z" fill="#F49082"/>
<path d="M80.3429 158.598V160.16L56.3503 146.258V144.855L80.3429 158.598Z" fill="#E76866"/>
<path d="M85.1669 148.57L88.1061 150.101L80.3588 154.453L79.3684 154.357L85.1669 148.57Z" fill="#E76866"/>
<path d="M81.3495 146.323C82.835 145.478 85.1353 146.689 86.509 149.049C86.5729 149.161 86.6368 149.272 86.7007 149.4L79.3687 153.529L74.0335 150.452L81.3495 146.323Z" fill="#EFECF3"/>
<path d="M68.6981 147.374L76.0301 143.245C77.5156 142.4 79.8159 143.612 81.1896 145.971C81.2535 146.083 81.3174 146.195 81.3813 146.322L74.0493 150.451L68.6981 147.374Z" fill="#D2D9E5"/>
<path d="M73.8416 150.117C73.9055 150.228 74.0173 150.452 74.0333 150.452C75.5189 149.591 77.8191 150.818 79.1928 153.178C79.2567 153.289 79.3206 153.401 79.3845 153.529V154.023L74.0493 151.281L68.7141 148.236V147.359C70.1677 146.514 72.4839 147.757 73.8416 150.117Z" fill="#AFBBD1"/>
<path d="M86.7005 149.382V150.243L79.3685 154.356V153.511L86.7005 149.382Z" fill="#D2D9E5"/>
<path d="M87.1318 149.924V150.083L79.3686 154.452L79.3206 154.324L87.1318 149.924Z" fill="#4A3572"/>
<path d="M68.2348 147.868L79.3845 154.309V154.468L74.4805 151.631C74.177 151.647 73.8256 151.439 73.5381 151.089L68.2348 148.028V147.868Z" fill="#4A3572"/>
<path d="M68.698 147.598V147.837L79.3845 154.007L86.7164 149.877V149.686L87.1477 149.925L79.4004 154.294L74.5125 151.472C74.193 151.488 73.8256 151.28 73.5221 150.898L68.2348 147.853L68.698 147.598Z" fill="#6B5096"/>
<path d="M74.7361 151.248C74.3368 151.471 73.7138 151.153 73.3464 150.515C73.3304 150.483 73.3144 150.451 73.2985 150.419V150.196L74.7681 151.041L74.7361 151.248Z" fill="#AFBBD1"/>
<path d="M74.2251 171.926C74.2251 171.926 74.2251 172.707 73.2667 173.408C73.1229 173.504 72.9472 173.632 72.7555 173.759C72.2124 174.11 71.4776 174.732 70.9984 175.178C70.7428 175.417 70.4393 175.592 70.04 175.624C69.449 175.656 68.9378 175.465 69.0017 174.588C69.0017 174.524 69.0177 174.429 69.0177 174.317C69.0177 174.269 69.0336 174.221 69.0336 174.174C69.0496 174.11 69.0816 172.468 69.0816 172.436C69.1455 172.739 69.5608 171.575 69.8164 171.559C70.1997 171.543 70.1518 172.468 70.4074 172.213C70.8706 171.766 71.3818 171.974 72.6597 171.32L72.8993 171.272C73.9056 171.16 74.0494 171.479 74.1452 171.782C74.2091 171.83 74.2251 171.878 74.2251 171.926Z" fill="#4A3572"/>
<path d="M81.4132 175.927C81.4132 175.927 80.4708 175.832 80.1513 175.832C79.4005 175.8 77.7872 175.337 77.276 175.688C76.701 176.087 75.4231 176.421 75.4071 175.337L74.6723 175.577C74.6563 175.8 74.5924 177.139 74.5924 177.219C74.5765 177.617 74.6563 178.016 74.864 178.351C75.3432 179.116 76.8607 178.669 77.7233 178.494L80.2951 178.143C81.2375 177.952 81.8445 177.298 82.0202 176.724C82.0522 176.342 81.7966 175.991 81.4132 175.927Z" fill="#4A3572"/>
<path d="M72.8193 158.98C72.8513 158.98 72.3401 172.069 72.3401 172.069C72.3561 173.185 68.6981 173.105 68.762 172.181L68.5384 158.996H72.8193V158.98Z" fill="#371D3E"/>
<path d="M78.0429 175.528C78.0429 176.437 74.7364 176.995 74.4967 175.799L72.8355 162.232H78.2825L78.0429 175.528Z" fill="#371D3E"/>
<path d="M68.2349 172.245L74.6403 168.514C74.816 168.403 75.0397 168.403 75.2313 168.482C75.423 168.578 75.5508 168.753 75.5828 168.961L77.3079 183.548C77.3399 183.724 77.292 183.883 77.1961 184.026C77.1003 184.154 76.9405 184.25 76.7808 184.281C76.6051 184.313 76.4453 184.266 76.3176 184.17C76.1738 184.074 76.0939 183.915 76.062 183.755L74.4806 170.093L69.1613 173.185L67.3882 189.479C67.3403 189.798 67.0688 190.021 66.7653 190.021C66.7333 190.021 66.7173 190.021 66.6854 190.021C66.334 189.973 66.0944 189.654 66.1423 189.303L67.9633 172.707C67.9473 172.516 68.0591 172.34 68.2349 172.245Z" fill="#AFBBD1"/>
<path d="M53.7945 164.528C53.8265 164.337 53.9383 164.161 54.098 164.066L60.5035 160.335C60.6792 160.224 60.9029 160.224 61.0946 160.303C61.2862 160.399 61.414 160.574 61.446 160.782L63.1711 175.369C63.2031 175.545 63.1552 175.704 63.0593 175.847C62.9635 175.975 62.8038 176.071 62.644 176.103C62.4683 176.134 62.3086 176.087 62.1808 175.991C62.037 175.895 61.9571 175.736 61.9252 175.576L60.3438 161.914L55.0245 165.006L53.2514 181.3C53.2035 181.619 52.932 181.842 52.6285 181.842C52.5965 181.842 52.5805 181.842 52.5486 181.842C52.1972 181.794 51.9576 181.475 52.0055 181.124L53.7945 164.528Z" fill="#AFBBD1"/>
<path d="M52.357 166.441C52.341 166.441 52.341 165.341 52.341 165.341L52.8522 165.309C52.98 165.182 53.1237 165.054 53.2995 164.959L61.1905 160.415C62.3725 159.729 63.8262 159.729 64.9922 160.415L75.9342 166.68C76.2058 166.84 76.4135 167.031 76.5732 167.27L76.8927 167.191L76.9086 168.323C76.9086 168.96 76.5892 169.614 75.9502 169.981L68.0592 174.524C66.8771 175.21 65.4235 175.21 64.2574 174.524L53.3154 168.259C52.5966 167.86 52.2931 167.143 52.357 166.441Z" fill="#2190F4"/>
<path d="M53.2994 163.731L61.1904 159.187C62.3725 158.502 63.8261 158.502 64.9921 159.187L75.9342 165.453C77.2121 166.186 77.2121 168.02 75.9342 168.753L68.0431 173.297C66.8611 173.982 65.4075 173.982 64.2414 173.297L53.2994 167.031C52.0215 166.314 52.0215 164.465 53.2994 163.731Z" fill="#50B1F9"/>
<path d="M64.4167 159.761L66.2218 166.776C67.0364 166.345 67.8032 165.835 68.506 165.245C70.359 163.683 72.5793 161.802 73.9211 160.67C74.6559 160.048 74.9275 159.059 74.6399 158.151C74.1927 156.796 72.6273 156.158 71.3653 156.812L66.094 159.49C65.5509 159.777 64.9599 159.857 64.4167 159.761Z" fill="#220428"/>
<path d="M77.9786 160.957C78.6495 162.264 78.0744 163.253 76.8444 164.066C75.3269 165.054 73.2823 166.377 71.621 167.414C68.6978 169.231 65.7427 170.092 62.5 169.614C61.27 169.438 57.5961 168.083 56.8134 165.883C56.4619 164.911 56.7335 164.034 56.9411 162.87C57.2606 161.116 57.1648 159.442 57.1648 159.442C57.1648 159.442 62.8674 154.978 65.8385 160.622C65.9024 160.75 65.9983 160.941 66.126 161.164C66.7331 162.344 68.2026 162.774 69.3527 162.105L74.0969 159.697C75.5186 158.964 77.2598 159.538 77.9786 160.957Z" fill="#371D3E"/>
<path d="M65.7747 156.317C65.7747 156.317 56.0147 159.681 54.2576 157.704C53.4749 156.827 55.5674 147.246 55.5674 147.246L56.2224 146.512L58.858 146.831C59.2095 146.879 59.6088 146.289 59.6088 146.289C59.4012 147.708 58.3788 153.001 58.1073 154.627C58.0594 154.882 65.5511 154.228 65.5511 154.228C65.0239 154.484 65.2156 156.173 65.7747 156.317Z" fill="#E83349"/>
<path d="M56.7655 157.13C56.7655 156.716 56.7335 156.301 56.6856 155.903L55.3438 148.776C55.1521 146.624 56.7176 145.444 58.3309 145.285C58.4747 145.269 58.6344 145.253 58.7782 145.269C59.1615 145.269 59.5449 145.333 59.9283 145.46C60.0721 145.508 61.0944 144.838 61.2381 144.886L63.123 145.763L63.171 145.795L64.2093 146.289C64.4169 146.385 64.6086 146.481 64.8003 146.576C64.9441 146.64 65.0718 146.72 65.2156 146.783C67.0047 147.708 68.5381 148.84 68.7139 150.881L67.1804 155.313V155.361L67.8193 162.391C67.8513 163.188 66.9567 164.368 66.1581 164.448C63.2508 164.751 56.9412 164.257 56.7495 162.327L56.7655 157.13Z" fill="#FF4A59"/>
<path d="M65.2315 142.591C64.8641 145.014 63.2827 145.317 61.7492 144.663C60.0401 143.946 58.9219 142.033 58.7462 140.614C58.4906 138.445 59.7845 136.947 61.6055 136.724C65.7107 136.229 65.3593 141.746 65.2315 142.591Z" fill="#FEC7C4"/>
<path d="M59.8165 141.713L60.2158 146.464C60.2318 146.687 60.4554 146.879 60.8548 146.99C61.5257 147.182 62.4362 147.038 62.8994 146.671C63.0911 146.528 63.171 146.369 63.155 146.209C63.171 146.209 62.7557 141.458 62.7557 141.458L59.8165 141.713Z" fill="#FEC7C4"/>
<path d="M61.6216 139.769C62.1807 140.422 62.9794 140.741 63.7141 140.677C64.1135 140.645 64.1614 139.928 64.4649 139.657C65.3594 138.908 65.8387 138.206 65.2636 136.883C64.7205 135.64 61.9251 135.926 61.1104 136.118C60.9826 136.15 61.7813 136.484 61.6855 136.564C60.8069 137.313 60.775 138.748 61.6216 139.769Z" fill="#4A3572"/>
<path d="M64.6885 146.528C64.6885 146.528 64.2891 145.843 63.8099 145.667C63.3307 145.492 59.8325 146.193 59.8325 145.635C59.8325 145.556 60.152 145.364 60.152 145.364L60.104 144.902C60.104 144.902 59.5929 145.157 59.4172 145.317C59.0977 145.62 58.922 146.321 59.4331 146.783C60.9027 148.091 64.6885 146.528 64.6885 146.528Z" fill="#E83349"/>
<path d="M61.318 143.372L61.6055 141.937C61.6854 141.555 61.8451 141.204 62.1007 140.901C62.3563 140.598 62.6917 140.359 63.0591 140.215L64.4648 139.689C64.4329 140.885 63.9856 141.905 62.9313 143.133C62.4202 143.723 61.8611 144.089 61.318 144.249L61.302 144.026C61.27 143.802 61.286 143.579 61.318 143.372Z" fill="#4A3572"/>
<path d="M61.1262 136.118C62.8354 135.815 64.337 137.234 64.4488 139.323C64.4488 139.45 64.4488 139.578 64.4488 139.705L63.0431 140.231C62.6757 140.375 62.3402 140.614 62.0847 140.917C61.8291 141.22 61.6693 141.571 61.5895 141.953L61.3019 143.388C61.254 143.595 61.254 143.818 61.27 144.026L61.286 144.249C59.449 144.249 58.0433 141.873 57.5481 140.407C57.3245 139.626 56.6216 136.915 61.1262 136.118Z" fill="#4A3572"/>
<path d="M64.0336 142.144C64.4489 142.623 64.5447 143.212 64.2412 143.499C63.9377 143.77 63.3467 143.611 62.9154 143.149C62.5001 142.67 62.4042 142.081 62.7077 141.794C63.0112 141.507 63.6023 141.666 64.0336 142.144Z" fill="#FEC7C4"/>
<path d="M67.452 159.314L64.8163 151.598L64.9921 154.372C65.008 154.706 65.056 155.041 65.1358 155.376C65.647 157.672 66.2859 159.362 67.5159 160.892L67.452 159.314Z" fill="#E83349"/>
<path d="M71.5092 156.668C72.8989 156.317 74.4803 155.871 75.3269 155.632L75.9659 155.441C77.0521 155.361 78.7293 152.411 79.1766 153.4C79.1766 153.4 80.8059 153.575 80.0392 155.154C79.8315 155.568 78.921 156.158 78.2182 156.493C77.6431 156.764 77.2438 156.875 76.8284 156.923C76.7486 156.939 76.6847 156.955 76.6208 156.971C76.5249 157.051 72.0363 158.725 72.0363 158.725L71.5092 156.668Z" fill="#FEC7C4"/>
<path d="M68.7294 149.877C68.7294 149.877 69.9754 155.792 70.215 156.605C70.2469 156.733 75.3745 155.282 75.3745 155.282C76.1252 155.649 76.5725 157.036 76.2051 157.785C76.2051 157.785 69.4961 160.926 68.0905 160.288C67.3716 159.969 64.72 152.046 64.688 150.738L66.2854 147.39C66.9883 147.773 68.4419 148.522 68.7294 149.877Z" fill="#FF4A59"/>
<path d="M50.1685 154.165L51.111 153.655C51.4624 153.463 51.8777 153.463 52.2292 153.655L63.0114 159.617C63.874 160.096 64.5928 161.212 64.8804 162.535L66.941 171.495C67.0847 172.132 66.7972 172.77 66.2381 173.105L65.2797 173.599L65.3436 172.627C65.2957 172.611 65.2637 172.611 65.2158 172.579L54.0182 166.218C53.1556 165.739 52.4368 164.623 52.1493 163.3L50.2963 155.265C50.2484 155.042 50.2324 154.834 50.2324 154.627L50.1685 154.165Z" fill="#2190F4"/>
<path d="M49.6892 156.189L51.5421 164.224C51.8296 165.564 52.5485 166.68 53.411 167.142L64.6086 173.503C65.5351 174.013 66.2859 172.865 65.9664 171.446L64.1134 163.411C63.8259 162.072 63.1071 160.956 62.2445 160.494L51.0469 154.149C50.1205 153.623 49.3697 154.77 49.6892 156.189Z" fill="#50B1F9"/>
<path d="M68.075 140.582L68.1069 140.295L67.8194 140.422L68.075 140.582Z" fill="#006A53"/>
<path d="M68.0748 139.498V140.709L73.2503 143.691C73.3142 143.531 73.3622 143.26 73.3142 142.91C73.2983 142.734 73.2024 142.543 73.1705 142.431C71.4772 141.459 69.7681 140.486 68.0748 139.498Z" fill="#EBEBED"/>
<path d="M67.7874 139.529L67.8034 139.274L73.2185 142.383L80.4546 138.206L80.4706 139.625L73.2345 143.786L67.8194 140.677V140.422L68.043 140.549L73.1386 143.467L73.1226 142.574L67.7874 139.529Z" fill="#249677"/>
<path d="M73.2186 142.383L80.4547 138.222C80.5186 138.334 80.6783 138.653 80.6464 139.051C80.6304 139.307 80.5345 139.498 80.4706 139.625L73.2345 143.786C73.2984 143.675 73.3783 143.468 73.4103 143.212C73.4422 142.814 73.2825 142.495 73.2186 142.383Z" fill="#3EB788"/>
<path d="M73.2189 142.383L80.455 138.206L75.0719 135.114L67.8198 139.275L73.2189 142.383Z" fill="#74C8A4"/>
<path d="M87.6907 150.897L88.0901 150.802H88.2339L88.1859 150.945L87.9144 151.248L87.4671 151.264L87.6907 150.897Z" fill="#FDD5B7"/>
<path d="M87.8504 150.929L83.6653 153.305L83.0264 153.671L83.0903 153.512L83.6174 153.209L87.6907 150.897L87.8504 150.929Z" fill="#FFDF57"/>
<path d="M87.9463 151.104L84.3043 153.193L83.1542 153.846C83.1062 153.799 83.0583 153.735 83.0264 153.687L83.6653 153.32L87.8345 150.945L87.9463 151.104Z" fill="#FFB862"/>
<path d="M87.9144 151.248L83.2979 153.879L83.1542 153.847L87.9463 151.105L87.9144 151.248Z" fill="#FFB862"/>
<path d="M88.3616 150.754L88.09 150.818C88.09 150.818 88.1379 150.818 88.1699 150.865C88.2018 150.897 88.1859 150.961 88.1859 150.961L88.3616 150.754Z" fill="#4A3572"/>
<path d="M86.2692 99.211L106.875 111.598C107.93 112.236 107.914 113.783 106.827 114.372L80.2471 129.534C79.5921 129.917 78.7775 129.901 78.1225 129.534L57.0212 117.322C56.1587 116.828 56.1587 115.568 57.0372 115.09L84.2245 99.227C84.8475 98.8762 85.6302 98.8603 86.2692 99.211Z" fill="#EEF1F5"/>
<path d="M89.2563 119.315L101.764 112.093C101.764 104.313 101.78 92.3717 101.764 91.8775C101.748 91.4789 102.035 91.1441 102.435 91.0963C102.85 91.0485 103.217 91.3673 103.249 91.7659C103.249 91.8137 103.265 89.805 103.249 112.523C103.249 112.794 103.106 113.033 102.866 113.177L89.9751 120.622C89.8633 120.686 89.7355 120.718 89.6077 120.718C89.3521 120.718 89.0965 120.59 88.9528 120.335C88.7611 119.968 88.8889 119.506 89.2563 119.315Z" fill="#D2D9E5"/>
<path d="M65.3436 105.525L77.8511 98.303C77.8511 90.523 77.8671 78.5819 77.8511 78.0877C77.8351 77.6891 78.1226 77.3543 78.522 77.3065C78.9373 77.2587 79.3047 77.5775 79.3366 77.9761C79.3366 78.0239 79.3526 76.0152 79.3366 98.7334C79.3366 99.0045 79.1929 99.2436 78.9533 99.3871L66.0625 106.832C65.9506 106.896 65.8229 106.928 65.6951 106.928C65.4395 106.928 65.1839 106.8 65.0401 106.545C64.8485 106.195 64.9762 105.732 65.3436 105.525Z" fill="#371D3E"/>
<path d="M103.265 90.1555V91.9889L83.1703 103.659V101.746L103.265 90.1555Z" fill="#AFBBD1"/>
<path d="M83.1703 101.746V103.659L59.1777 89.8368V87.844L83.1703 101.746Z" fill="#96A6C3"/>
<path d="M103.265 88.6567V90.1554L83.1703 101.746V100.167L103.265 88.6567Z" fill="#E76866"/>
<path d="M103.265 88.6569L83.1704 100.167L59.1778 86.4249L79.2568 74.9143L96.3008 84.6712L101.94 87.9076L103.265 88.6569Z" fill="#F49082"/>
<path d="M83.1703 100.167V101.746L59.1777 87.8437V86.4248L83.1703 100.167Z" fill="#E76866"/>
<path d="M76.2694 112.731C76.2694 112.731 76.2694 113.512 75.311 114.214C75.1672 114.309 74.9915 114.437 74.7998 114.564C74.2567 114.915 73.5219 115.537 73.0427 115.983C72.7871 116.222 72.4836 116.398 72.0843 116.43C71.4933 116.461 70.9821 116.27 71.046 115.393C71.046 115.33 71.062 115.234 71.062 115.122C71.062 115.074 71.078 115.027 71.078 114.979C71.0939 114.915 71.1259 113.273 71.1259 113.241C71.1898 113.544 71.6051 112.38 71.8607 112.364C72.244 112.348 72.1961 113.273 72.4517 113.018C72.9149 112.571 73.4261 112.779 74.704 112.125L74.9436 112.077C75.9499 111.966 76.0937 112.284 76.1896 112.587C76.2534 112.635 76.2694 112.683 76.2694 112.731Z" fill="#4A3572"/>
<path d="M83.4575 116.733C83.4575 116.733 82.5151 116.637 82.1956 116.637C81.4448 116.605 79.8315 116.143 79.3203 116.494C78.7453 116.892 77.4674 117.227 77.4514 116.143L76.7166 116.382C76.7006 116.605 76.6367 117.944 76.6367 118.024C76.6208 118.423 76.7006 118.821 76.9083 119.156C77.3875 119.921 78.905 119.475 79.7676 119.299L82.3394 118.949C83.2818 118.757 83.8888 118.104 84.0645 117.53C84.0965 117.147 83.8409 116.796 83.4575 116.733Z" fill="#4A3572"/>
<path d="M74.8636 99.7856C74.8956 99.7856 74.3844 112.875 74.3844 112.875C74.4004 113.991 70.7424 113.911 70.8063 112.986L70.5826 99.8016H74.8636V99.7856Z" fill="#371D3E"/>
<path d="M80.1031 116.334C80.1031 117.243 76.7966 117.8 76.557 116.605L74.8957 103.038H80.3427L80.1031 116.334Z" fill="#371D3E"/>
<path d="M71.0618 113.035L77.4673 109.304C77.643 109.192 77.8666 109.192 78.0583 109.272C78.25 109.368 78.3778 109.543 78.4097 109.75L80.1349 124.338C80.1668 124.513 80.1189 124.673 80.0231 124.816C79.9272 124.944 79.7675 125.039 79.6078 125.071C79.432 125.103 79.2723 125.055 79.1445 124.96C79.0007 124.864 78.9209 124.705 78.8889 124.545L77.3075 110.882L71.9883 113.975L70.2152 130.269C70.1673 130.587 69.8957 130.811 69.5922 130.811C69.5603 130.811 69.5443 130.811 69.5123 130.811C69.1609 130.763 68.9213 130.444 68.9692 130.093L70.7583 113.497C70.7743 113.306 70.8861 113.13 71.0618 113.035Z" fill="#AFBBD1"/>
<path d="M56.6215 105.334C56.6535 105.143 56.7653 104.967 56.925 104.871L63.3305 101.141C63.5062 101.029 63.7298 101.029 63.9215 101.109C64.1132 101.205 64.241 101.38 64.273 101.587L65.9981 116.175C66.0301 116.35 65.9821 116.51 65.8863 116.653C65.7905 116.781 65.6307 116.876 65.471 116.908C65.2953 116.94 65.1355 116.892 65.0077 116.797C64.864 116.701 64.7841 116.542 64.7522 116.382L63.1708 102.719L57.8515 105.812L56.0624 122.09C56.0145 122.408 55.743 122.632 55.4395 122.632C55.4075 122.632 55.3915 122.632 55.3596 122.632C55.0082 122.584 54.7686 122.265 54.8165 121.914L56.6215 105.334Z" fill="#AFBBD1"/>
<path d="M55.1838 107.247C55.1678 107.247 55.1678 106.147 55.1678 106.147L55.6789 106.115C55.8067 105.987 55.9505 105.86 56.1262 105.764L64.0172 101.22C65.1993 100.535 66.6529 100.535 67.819 101.22L78.761 107.486C79.0326 107.645 79.2402 107.837 79.4 108.076L79.7194 107.996V109.128C79.7194 109.766 79.4 110.419 78.761 110.786L70.87 115.33C69.6879 116.015 68.2343 116.015 67.0682 115.33L56.1262 109.064C55.4234 108.666 55.1199 107.932 55.1838 107.247Z" fill="#2190F4"/>
<path d="M56.1263 104.537L64.0173 99.9932C65.1994 99.3076 66.653 99.3076 67.8191 99.9932L78.7611 106.259C80.039 106.992 80.039 108.825 78.7611 109.559L70.8701 114.102C69.688 114.788 68.2344 114.788 67.0683 114.102L56.1263 107.837C54.8484 107.104 54.8484 105.27 56.1263 104.537Z" fill="#50B1F9"/>
<path d="M66.4618 100.566L68.2668 107.581C69.0815 107.15 69.8482 106.64 70.5511 106.05C72.404 104.488 74.6244 102.607 75.9662 101.475C76.7009 100.853 76.9725 99.8644 76.685 98.9557C76.2377 97.6005 74.6723 96.9628 73.4104 97.6165L68.139 100.295C67.5959 100.582 67.0049 100.662 66.4618 100.566Z" fill="#220428"/>
<path d="M80.0234 101.762C80.6943 103.069 80.1193 104.058 78.8893 104.871C77.3718 105.859 75.3272 107.182 73.6659 108.219C70.7427 110.036 67.7875 110.897 64.5449 110.419C63.3149 110.243 59.6409 108.888 58.8582 106.688C58.5068 105.716 58.7784 104.839 58.986 103.675C59.3055 101.921 59.2096 100.247 59.2096 100.247C59.2096 100.247 64.9123 95.7833 67.8834 101.427C67.9473 101.555 68.0431 101.746 68.1709 101.969C68.7779 103.149 70.2475 103.579 71.3976 102.91L76.1418 100.502C77.5635 99.769 79.3046 100.327 80.0234 101.762Z" fill="#371D3E"/>
<path d="M67.8196 97.1224C67.8196 97.1224 58.0597 100.486 56.3026 98.5094C55.5198 97.6326 57.6124 88.051 57.6124 88.051L58.2673 87.3177L60.903 87.6365C61.2544 87.6844 61.6538 87.0945 61.6538 87.0945C61.4461 88.5134 60.4238 93.8063 60.1522 95.4325C60.1043 95.6876 67.596 95.0339 67.596 95.0339C67.0689 95.273 67.2605 96.963 67.8196 97.1224Z" fill="#D2D9E5"/>
<path d="M58.8105 97.9366C58.8105 97.5221 58.7786 97.1076 58.7306 96.709L57.3888 89.5827C57.1972 87.4304 58.7626 86.2506 60.3759 86.0912C60.5197 86.0753 60.6794 86.0593 60.8232 86.0753C61.2066 86.0753 61.5899 86.139 61.9733 86.2666C62.1171 86.3144 63.1394 85.6448 63.2831 85.6926L65.168 86.5695L65.216 86.6014L66.2543 87.0956C66.4619 87.1912 66.6536 87.2869 66.8453 87.3826C66.989 87.4463 67.1168 87.526 67.2606 87.5898C69.0497 88.5145 70.5831 89.6464 70.7588 91.6871L69.2254 96.1191V96.167L69.8643 103.198C69.8963 103.995 69.0017 105.175 68.2031 105.254C65.2958 105.557 58.9862 105.063 58.7945 103.134L58.8105 97.9366Z" fill="#EFECF3"/>
<path d="M67.2767 83.3796C66.9093 85.8029 65.3279 86.1058 63.7945 85.4522C62.0853 84.7347 60.9671 82.8216 60.7914 81.4027C60.5358 79.2345 61.8297 77.7359 63.6507 77.5127C67.756 77.0345 67.4045 82.5506 67.2767 83.3796Z" fill="#FEC7C4"/>
<path d="M61.8615 82.5197L62.2609 87.2706C62.2768 87.4938 62.5005 87.6851 62.8998 87.7967C63.5707 87.9881 64.4812 87.8446 64.9445 87.4779C65.1361 87.3344 65.216 87.175 65.2 87.0155C65.216 87.0155 64.8007 82.2646 64.8007 82.2646L61.8615 82.5197Z" fill="#FEC7C4"/>
<path d="M63.6666 80.5744C64.2257 81.228 65.0244 81.5469 65.7592 81.4831C66.1585 81.4512 66.2064 80.7338 66.5099 80.4628C67.4044 79.7135 68.0753 78.1192 66.9572 77.4177C65.8071 76.7003 63.9701 76.7322 63.1554 76.9235C63.0277 76.9554 63.8263 77.2902 63.7305 77.3699C62.8519 78.1192 62.82 79.5541 63.6666 80.5744Z" fill="#F6344A"/>
<path d="M66.7335 87.3337C66.7335 87.3337 66.3342 86.6482 65.855 86.4728C65.3757 86.2974 61.8775 86.9989 61.8775 86.4409C61.8775 86.3612 62.197 86.1699 62.197 86.1699L62.1491 85.7075C62.1491 85.7075 61.6379 85.9626 61.4622 86.122C61.1427 86.425 60.967 87.1264 61.4782 87.5888C62.9477 88.8961 66.7335 87.3337 66.7335 87.3337Z" fill="#D2D9E5"/>
<path d="M63.3631 84.1779L63.6506 82.743C63.7305 82.3604 63.8902 82.0097 64.1458 81.7068C64.4014 81.4039 64.7368 81.1647 65.1042 81.0212L66.5099 80.4951C66.478 81.6908 66.0307 82.7112 64.9764 83.9387C64.4653 84.5286 63.9062 84.8953 63.3631 85.0547L63.3471 84.8315C63.3151 84.5924 63.3311 84.3851 63.3631 84.1779Z" fill="#F6344A"/>
<path d="M63.1713 76.9075C64.8964 76.6365 66.382 78.0235 66.4938 80.112C66.4938 80.2396 66.4938 80.3671 66.4938 80.4946L65.0881 81.0208C64.7207 81.1642 64.3853 81.4034 64.1297 81.7063C63.8741 82.0092 63.7144 82.3599 63.6345 82.7426L63.347 84.1774C63.299 84.3846 63.299 84.6078 63.315 84.8151L63.331 85.0383C62.2767 85.3253 61.2704 84.7832 60.7912 83.3165C60.5516 82.5672 57.5964 77.7685 63.1713 76.9075Z" fill="#F6344A"/>
<path d="M66.0786 82.95C66.4939 83.4282 66.5898 84.0181 66.2863 84.3051C65.9828 84.5761 65.3917 84.4167 64.9604 83.9544C64.5451 83.4761 64.4492 82.8862 64.7528 82.5992C65.0563 82.3122 65.6473 82.4717 66.0786 82.95Z" fill="#FEC7C4"/>
<path d="M69.4968 100.12L66.8612 92.4033L67.0369 95.1773C67.0529 95.5121 67.1008 95.8469 67.1807 96.1817C67.6918 98.4775 68.3308 100.167 69.5607 101.698L69.4968 100.12Z" fill="#D2D9E5"/>
<path d="M73.5543 97.4733C74.944 97.1226 76.5254 96.6762 77.372 96.437L78.011 96.2457C79.0972 96.166 80.7744 93.2166 81.2217 94.2051C81.2217 94.2051 82.851 94.3804 82.0843 95.9588C81.8766 96.3733 80.9661 96.9632 80.2633 97.2979C79.6882 97.569 79.2889 97.6806 78.8736 97.7284C78.7937 97.7443 78.7298 97.7603 78.6659 97.7762C78.5701 97.8559 74.0815 99.5299 74.0815 99.5299L73.5543 97.4733Z" fill="#FEC7C4"/>
<path d="M70.7747 90.6658C70.7747 90.6658 72.0207 96.5805 72.2603 97.3936C72.2922 97.5211 77.4198 96.0703 77.4198 96.0703C78.1706 96.437 78.6178 97.824 78.2504 98.5733C78.2504 98.5733 71.5415 101.714 70.1358 101.076C69.417 100.757 66.7653 92.834 66.7334 91.5267L68.3307 88.1787C69.0336 88.5773 70.4872 89.3106 70.7747 90.6658Z" fill="#EFECF3"/>
<path d="M52.9956 94.9554L53.9381 94.4452C54.2895 94.2539 54.7048 94.2539 55.0562 94.4452L65.8385 100.408C66.7011 100.886 67.4199 102.002 67.7074 103.325L69.768 112.285C69.9118 112.923 69.6243 113.56 69.0652 113.895L68.1068 114.389L68.1707 113.417C68.1227 113.401 68.0908 113.401 68.0429 113.369L56.8453 107.008C55.9827 106.53 55.2639 105.414 54.9764 104.091L53.1234 96.0554C53.0755 95.8322 53.0595 95.625 53.0595 95.4177L52.9956 94.9554Z" fill="#2190F4"/>
<path d="M52.5164 96.9954L54.3694 105.03C54.6569 106.37 55.3757 107.486 56.2383 107.948L67.4359 114.309C68.3624 114.819 69.1131 113.671 68.7937 112.252L66.9407 104.217C66.6532 102.878 65.9344 101.762 65.0718 101.3L53.8742 94.9547C52.9477 94.4286 52.1969 95.5605 52.5164 96.9954Z" fill="#50B1F9"/>
<path d="M85.3588 87.4138L88.3139 88.9284L80.5666 93.2807L79.5763 93.201L85.3588 87.4138Z" fill="#E76866"/>
<path d="M81.5569 85.1504C83.0425 84.3055 85.3427 85.5171 86.7164 87.8766C86.7803 87.9882 86.8442 88.0998 86.9081 88.2274L79.5761 92.3565L74.2249 89.2796L81.5569 85.1504Z" fill="#EFECF3"/>
<path d="M68.8898 86.2022L76.2218 82.073C77.7073 81.2281 80.0076 82.4397 81.3813 84.7992C81.4452 84.9108 81.5091 85.0224 81.573 85.15L74.2251 89.2791L68.8898 86.2022Z" fill="#D2D9E5"/>
<path d="M74.0493 88.9445C74.1132 89.0561 74.225 89.2793 74.241 89.2793C75.7266 88.4184 78.0268 89.646 79.4005 92.0055C79.4644 92.1171 79.5283 92.2287 79.5922 92.3563V92.8505L74.257 90.1083L68.9218 87.0633V86.1865C70.3754 85.3415 72.6756 86.585 74.0493 88.9445Z" fill="#AFBBD1"/>
<path d="M86.8922 88.2271V89.072L79.5763 93.2012V92.3562L86.8922 88.2271Z" fill="#D2D9E5"/>
<path d="M87.3236 88.7693V88.9128L79.5764 93.2811L79.5125 93.1695L87.3236 88.7693Z" fill="#4A3572"/>
<path d="M68.4265 86.696L79.5762 93.1369V93.2963L74.6723 90.4585C74.3688 90.4745 74.0173 90.2672 73.7298 89.9165L68.4265 86.8555V86.696Z" fill="#4A3572"/>
<path d="M68.8898 86.4255V86.6647L79.5762 92.8345L86.9081 88.7053V88.514L87.3394 88.7532L79.5922 93.1215L74.7042 90.2996C74.3847 90.3156 74.0173 90.1083 73.7138 89.7257L68.4265 86.6806L68.8898 86.4255Z" fill="#6B5096"/>
<path d="M74.9278 90.0761C74.5285 90.2993 73.9055 89.9805 73.5381 89.3428C73.5221 89.3109 73.5061 89.279 73.4902 89.2471V89.0239L74.9598 89.8689L74.9278 90.0761Z" fill="#AFBBD1"/>
<path d="M87.5791 91.0958L87.9785 91.0161H88.1382L88.0743 91.1596L87.8028 91.4625H87.3555L87.5791 91.0958Z" fill="#FDD5B7"/>
<path d="M87.7388 91.1273L83.5697 93.5187L82.9148 93.8854L82.9946 93.71L83.5058 93.4231L87.5791 91.0955L87.7388 91.1273Z" fill="#FFDF57"/>
<path d="M87.8347 91.3193L84.1927 93.4078L83.0426 94.0615C82.9946 94.0136 82.9467 93.9499 82.9148 93.9021L83.5537 93.5354L87.7229 91.1599L87.8347 91.3193Z" fill="#FFB862"/>
<path d="M87.8027 91.4623L83.1863 94.0929L83.0426 94.045L87.8347 91.3188L87.8027 91.4623Z" fill="#FFB862"/>
<path d="M88.25 90.9524L87.9784 91.0162C87.9784 91.0162 88.0263 91.0162 88.0583 91.064C88.0902 91.0959 88.0743 91.1596 88.0743 91.1596L88.25 90.9524Z" fill="#4A3572"/>
<path d="M101.94 87.9073L96.4287 91.0798H94.6556L90.8698 87.8116L96.3009 84.6709L101.94 87.9073Z" fill="#E76866"/>
<path d="M89.4962 87.8762L89.5282 87.6052L89.2566 87.7328L89.4962 87.8762Z" fill="#3A1C65"/>
<path d="M89.5119 86.8088V88.0205L94.6873 91.0018C94.7512 90.8423 94.7991 90.5713 94.7512 90.2206C94.7353 90.0452 94.6394 89.8539 94.6075 89.7423C92.8983 88.7538 91.2051 87.7813 89.5119 86.8088Z" fill="#EBEBED"/>
<path d="M89.2243 86.8249V86.5698L94.6394 89.6786L101.891 85.5176L101.907 86.9205L94.6713 91.0816L89.2563 87.9727V87.7336L89.4799 87.8452L94.5755 90.7787L94.5595 89.8699L89.2243 86.8249Z" fill="#6B5096"/>
<path d="M94.6394 89.6786L101.875 85.5176C101.939 85.6292 102.099 85.948 102.067 86.3466C102.051 86.6017 101.955 86.793 101.891 86.9205L94.6553 91.0816C94.7192 90.97 94.7991 90.7627 94.8311 90.5076C94.879 90.1091 94.7192 89.7902 94.6394 89.6786Z" fill="#4A3572"/>
<path d="M94.6407 89.6783L101.893 85.5173L96.4937 82.4084L89.2576 86.5695L94.6407 89.6783Z" fill="#825EA6"/>
<path d="M94.1761 89.0724L94.9268 89.0883L101.524 85.3099L101.125 85.0708L94.1761 89.0724Z" fill="#6B5096"/>
<path d="M89.0007 85.8677L89.0327 85.5967L88.7611 85.7242L89.0007 85.8677Z" fill="#B41E36"/>
<path d="M89.0006 84.7991V86.0107L94.1761 88.992C94.24 88.8326 94.2879 88.5615 94.24 88.2108C94.224 88.0354 94.1282 87.8441 94.0962 87.7325C92.403 86.7441 90.6939 85.7716 89.0006 84.7991Z" fill="#EBEBED"/>
<path d="M88.7291 84.8151V84.56L94.1442 87.6689L101.38 83.5078L101.412 84.9108L94.1762 89.0718L88.7611 85.963V85.7238L88.9687 85.8354L94.0803 88.7689L94.0644 87.8602L88.7291 84.8151Z" fill="#FF575C"/>
<path d="M94.1442 87.6689L101.38 83.5078C101.444 83.6194 101.604 83.9383 101.572 84.3368C101.556 84.5919 101.46 84.7832 101.396 84.9108L94.1602 89.0718C94.2241 88.9602 94.3039 88.7529 94.3359 88.4979C94.3678 88.0993 94.2081 87.7804 94.1442 87.6689Z" fill="#F6344A"/>
<path d="M101.381 83.5077L94.1449 87.6688L93.6337 87.3659C93.6178 87.3499 88.7458 84.56 88.7458 84.56L95.9978 80.3989L100.135 82.7903L101.062 83.3324L101.381 83.5077Z" fill="#FF7B7F"/>
<path d="M101.061 83.3166L94.1762 87.3661H93.6012C93.6171 87.3501 100.15 82.7905 100.15 82.7905L101.061 83.3166Z" fill="#FF575C"/>
<path d="M87.8188 84.5279L87.8508 84.2568L87.5632 84.3844L87.8188 84.5279Z" fill="#216AF4"/>
<path d="M87.8186 83.4592V84.6709L92.9941 87.6521C93.058 87.4927 93.1059 87.2217 93.058 86.871C93.042 86.6956 92.9462 86.5043 92.9143 86.3927C91.221 85.4202 89.5119 84.4317 87.8186 83.4592Z" fill="#EBEBED"/>
<path d="M87.5792 83.4912L87.5632 83.2361L92.9624 86.329L100.198 82.168L100.23 83.5709L92.9783 87.732L87.5632 84.6391V84.384L87.7869 84.5115L92.8825 87.429L92.8665 86.5203L87.5792 83.4912Z" fill="#50B1F9"/>
<path d="M92.9624 86.329L100.198 82.168C100.262 82.2796 100.422 82.5984 100.39 82.997C100.374 83.2521 100.278 83.4434 100.214 83.5709L92.9784 87.732C93.0423 87.6204 93.1221 87.4131 93.1541 87.158C93.186 86.7595 93.0263 86.4565 92.9624 86.329Z" fill="#2190F4"/>
<path d="M92.9622 86.3292L100.198 82.1682L94.8152 79.0593L87.5631 83.2363L92.9622 86.3292Z" fill="#50B1F9"/>
<path d="M133.551 128.529L154.141 140.917C155.196 141.555 155.18 143.101 154.094 143.691L127.513 158.852C126.858 159.235 126.044 159.219 125.389 158.852L104.287 146.64C103.425 146.146 103.425 144.887 104.303 144.408L131.491 128.545C132.13 128.179 132.896 128.179 133.551 128.529Z" fill="#EEF1F5"/>
<path d="M137.13 148.171L149.637 140.949C149.637 133.169 149.653 121.228 149.637 120.734C149.621 120.335 149.909 120 150.308 119.953C150.723 119.905 151.091 120.224 151.123 120.622C151.123 120.67 151.139 118.661 151.123 141.379C151.123 141.65 150.979 141.89 150.739 142.033L137.848 149.478C137.737 149.542 137.609 149.574 137.481 149.574C137.225 149.574 136.97 149.446 136.826 149.191C136.65 148.841 136.778 148.378 137.13 148.171Z" fill="#D2D9E5"/>
<path d="M113.233 134.397L125.74 127.175C125.74 119.395 125.756 107.454 125.74 106.96C125.724 106.561 126.012 106.226 126.411 106.179C126.827 106.131 127.194 106.45 127.226 106.848C127.226 106.896 127.242 104.887 127.226 127.606C127.226 127.877 127.082 128.116 126.842 128.259L113.952 135.704C113.84 135.768 113.712 135.8 113.584 135.8C113.329 135.8 113.073 135.673 112.929 135.417C112.738 135.051 112.865 134.604 113.233 134.397Z" fill="#D2D9E5"/>
<path d="M151.155 119.012V120.845L131.06 132.531V130.602L151.155 119.012Z" fill="#AFBBD1"/>
<path d="M131.06 130.602V132.531L107.067 118.693V116.7L131.06 130.602Z" fill="#96A6C3"/>
<path d="M151.155 117.514V119.012L131.06 130.603V129.04L151.155 117.514Z" fill="#E76866"/>
<path d="M151.155 117.513L131.06 129.04L107.067 115.297L127.162 103.787L143.887 113.352L150.228 116.987L151.155 117.513Z" fill="#F49082"/>
<path d="M131.06 129.039V130.602L107.067 116.7V115.297L131.06 129.039Z" fill="#E76866"/>
<path d="M134.318 118.884L137.257 120.399L129.51 124.751L128.519 124.655L134.318 118.884Z" fill="#E76866"/>
<path d="M130.5 116.62C131.986 115.775 134.286 116.987 135.66 119.346C135.724 119.458 135.787 119.569 135.851 119.697L128.519 123.826L123.184 120.749L130.5 116.62Z" fill="#EFECF3"/>
<path d="M117.833 117.672L125.165 113.543C126.651 112.698 128.951 113.91 130.324 116.269C130.388 116.381 130.452 116.493 130.516 116.62L123.184 120.749L117.833 117.672Z" fill="#D2D9E5"/>
<path d="M122.992 120.414C123.056 120.526 123.168 120.749 123.184 120.749C124.67 119.888 126.97 121.115 128.344 123.475C128.408 123.587 128.471 123.698 128.535 123.826V124.32L123.2 121.578L117.865 118.533V117.656C119.319 116.811 121.635 118.055 122.992 120.414Z" fill="#AFBBD1"/>
<path d="M135.851 119.697V120.541L128.519 124.655V123.826L135.851 119.697Z" fill="#D2D9E5"/>
<path d="M136.283 120.222V120.382L128.52 124.75L128.472 124.638L136.283 120.222Z" fill="#4A3572"/>
<path d="M117.37 118.166L128.52 124.607V124.767L123.616 121.929C123.312 121.945 122.961 121.737 122.673 121.387L117.37 118.326V118.166Z" fill="#4A3572"/>
<path d="M117.833 117.896V118.135L128.52 124.305L135.852 120.176V119.984L136.283 120.223L128.536 124.592L123.648 121.77C123.328 121.786 122.961 121.579 122.657 121.196L117.37 118.151L117.833 117.896Z" fill="#6B5096"/>
<path d="M123.887 121.546C123.488 121.77 122.865 121.451 122.497 120.813C122.481 120.781 122.465 120.749 122.449 120.717V120.494L123.919 121.339L123.887 121.546Z" fill="#AFBBD1"/>
<path d="M117.913 147.277C117.881 147.851 118.344 148.313 118.919 148.297C119.303 148.281 119.59 148.106 119.846 147.867C120.293 147.436 120.788 147.038 121.316 146.719C121.507 146.591 121.683 146.48 121.827 146.384C122.034 146.225 122.194 146.081 122.322 145.922C122.769 145.396 122.753 144.933 122.753 144.933C122.737 144.901 122.737 144.854 122.721 144.806C122.673 144.646 122.562 144.503 122.418 144.407C122.306 144.328 122.178 144.296 122.034 144.296H121.843C121.731 144.296 121.619 144.296 121.507 144.312C121.172 144.328 120.725 144.535 120.405 144.726L120.916 142.765L118.281 143.785C118.265 143.977 118.265 144.168 118.249 144.328C118.217 144.886 118.169 145.459 118.073 146.017C118.025 146.273 117.993 146.528 117.945 146.767C117.945 146.815 117.945 146.846 117.929 146.878C117.929 146.942 117.913 146.99 117.913 147.038C117.929 147.117 117.929 147.229 117.913 147.277Z" fill="#FEC7C4"/>
<path d="M118.265 144.408C118.265 144.775 120.102 144.759 120.661 143.818L123.121 134.412C123.232 134.029 123.312 133.647 123.36 133.248C123.376 133.136 123.392 133.025 123.408 132.913L123.344 132.897L119.83 132.1L119.846 132.307C118.792 135.703 118.265 144.376 118.265 144.408Z" fill="#371D3E"/>
<path d="M122.769 144.934C122.769 144.934 122.769 145.699 121.827 146.384C121.699 146.48 121.507 146.608 121.316 146.719C120.788 147.054 120.293 147.437 119.846 147.867C119.59 148.106 119.303 148.282 118.92 148.297C118.344 148.329 117.849 148.138 117.913 147.277C117.913 147.213 117.929 147.118 117.945 147.006C117.945 146.958 117.961 146.91 117.961 146.863C117.977 146.799 117.977 146.767 117.977 146.735C118.041 147.022 118.36 147.102 118.616 147.086C118.983 147.07 119.319 146.974 119.574 146.735C120.038 146.305 123.296 144.439 121.284 144.312L121.523 144.28C122.498 144.168 122.641 144.487 122.737 144.774C122.753 144.838 122.753 144.886 122.769 144.934Z" fill="#220428"/>
<path d="M129.414 147.134L127.577 147.15C127.082 147.182 126.587 147.007 126.236 146.672C126.06 146.513 125.996 146.289 126.028 146.066C126.044 145.923 126.076 145.747 126.092 145.572C126.092 145.572 127.13 138.493 127.545 132.77L123.376 131.702H123.312L123.36 132.053L123.408 132.324C123.248 134.54 123.392 145.572 123.536 145.891C123.568 147.214 123.584 148.171 123.552 148.458C123.504 148.952 123.68 149.637 123.903 149.924C124.415 150.562 125.437 150.227 126.22 149.988L128.552 149.303C129.398 149.048 129.926 148.378 130.021 147.836C130.053 147.469 129.782 147.166 129.414 147.134Z" fill="#FEC7C4"/>
<path d="M129.414 147.135L128.232 147.15C128.711 147.23 128.903 147.645 128.472 148.011C127.977 148.426 123.68 149.446 123.568 148.442C123.568 148.633 123.568 148.793 123.568 148.872C123.584 149.239 123.696 149.606 123.919 149.893C124.43 150.562 125.453 150.196 126.235 149.956L128.568 149.271C129.43 149.016 129.941 148.346 130.037 147.804C130.053 147.469 129.766 147.166 129.414 147.135Z" fill="#220428"/>
<path d="M118.568 143.261L124.974 139.531C125.149 139.419 125.373 139.419 125.565 139.499C125.756 139.595 125.884 139.77 125.916 139.977L127.641 154.565C127.673 154.74 127.625 154.9 127.529 155.043C127.434 155.171 127.274 155.266 127.114 155.298C126.938 155.33 126.779 155.282 126.651 155.186C126.507 155.091 126.427 154.931 126.395 154.772L124.814 141.109L119.479 144.202L117.706 160.495C117.658 160.814 117.386 161.037 117.083 161.037C117.051 161.037 117.035 161.037 117.003 161.037C116.651 160.99 116.412 160.671 116.46 160.32L118.281 143.724C118.281 143.532 118.392 143.357 118.568 143.261Z" fill="#AFBBD1"/>
<path d="M104.128 135.544C104.16 135.353 104.271 135.177 104.431 135.082L110.837 131.351C111.012 131.24 111.236 131.24 111.428 131.319C111.619 131.415 111.747 131.59 111.779 131.798L113.504 146.385C113.536 146.56 113.488 146.72 113.392 146.863C113.297 146.991 113.137 147.087 112.977 147.118C112.801 147.15 112.642 147.102 112.514 147.007C112.37 146.911 112.29 146.752 112.258 146.592L110.677 132.929L105.358 136.022L103.584 152.316C103.537 152.635 103.265 152.858 102.961 152.858C102.93 152.858 102.914 152.858 102.882 152.858C102.53 152.81 102.291 152.491 102.339 152.14L104.128 135.544Z" fill="#AFBBD1"/>
<path d="M102.69 137.459C102.674 137.459 102.674 136.359 102.674 136.359L103.185 136.327C103.313 136.199 103.457 136.072 103.633 135.976L111.524 131.432C112.706 130.747 114.159 130.747 115.325 131.432L126.267 137.698C126.539 137.857 126.747 138.049 126.906 138.288L127.226 138.208V139.34C127.226 139.978 126.906 140.631 126.267 140.998L118.376 145.542C117.194 146.227 115.741 146.227 114.575 145.542L103.633 139.276C102.93 138.894 102.626 138.16 102.69 137.459Z" fill="#2190F4"/>
<path d="M103.633 134.748L111.524 130.204C112.706 129.519 114.159 129.519 115.325 130.204L126.267 136.47C127.545 137.203 127.545 139.037 126.267 139.77L118.376 144.314C117.194 144.999 115.741 144.999 114.575 144.314L103.633 138.064C102.355 137.331 102.355 135.481 103.633 134.748Z" fill="#50B1F9"/>
<path d="M127.434 131.862C127.002 130.554 122.657 127.334 120.836 128.243L115.725 130.841C115.565 130.937 115.389 131.001 115.214 131.049C113.025 127.637 109.671 128.769 107.914 129.709C107.211 130.092 106.763 130.809 106.748 131.607C106.732 132.244 106.668 133.089 106.508 133.95C106.284 135.13 106.156 136.644 106.508 137.649C107.307 139.897 111.044 141.268 112.306 141.459C115.613 141.953 118.951 140.901 121.491 138.749C123.296 137.218 125.437 135.401 126.747 134.317C127.449 133.711 127.721 132.739 127.434 131.862Z" fill="#371D3E"/>
<path d="M105.917 125.628C106.364 130.698 106.524 132.802 106.748 133.041C109.287 135.672 113.105 135.751 115.565 134.38C116.092 134.077 116.348 133.456 116.204 132.866C116.028 132.18 115.789 131.224 115.613 130.347C115.597 130.299 115.597 130.235 115.581 130.187C115.405 129.279 115.453 128.354 115.693 127.461C115.709 127.413 115.725 127.35 115.741 127.302C116.46 126.887 116.939 126.122 116.939 125.245C116.939 124.942 116.875 124.655 116.779 124.384L117.913 120.829L117.945 120.749C117.833 119.905 117.514 119.283 117.019 118.741C116.523 118.199 115.869 117.736 115.054 117.242C115.022 117.226 114.99 117.21 114.958 117.178C114.798 117.083 114.623 116.971 114.463 116.891L114.287 116.78L113.888 116.557L113.441 116.301L112.115 115.536L111.795 115.345L111.619 115.249C111.619 115.249 111.588 115.249 111.572 115.249C111.492 115.249 111.348 115.313 111.188 115.377C110.837 115.536 110.358 115.759 110.278 115.712C109.926 115.568 109.591 115.488 109.255 115.441C108.361 115.329 107.466 115.536 106.811 116.094C105.949 116.812 105.805 117.928 105.725 118.836C105.422 121.897 105.789 124.145 105.917 125.628Z" fill="#3EB788"/>
<path d="M114.239 125.627C114.399 127.477 115.261 129.757 115.581 130.203C115.405 129.294 115.453 128.37 115.693 127.477C115.709 127.429 115.725 127.365 115.741 127.317C116.459 126.903 116.939 126.138 116.939 125.261C116.939 124.958 116.875 124.671 116.779 124.4L117.082 123.459L114.575 121.769C114.111 122.869 114.127 124.4 114.239 125.627Z" fill="#249677"/>
<path d="M115.917 113.097C115.31 115.632 113.6 115.807 112.035 114.994C110.278 114.07 109.271 111.949 109.208 110.419C109.128 108.091 110.645 106.624 112.594 106.545C117.003 106.401 116.124 112.22 115.917 113.097Z" fill="#FEC7C4"/>
<path d="M110.246 111.694V116.78C110.246 117.019 110.47 117.242 110.869 117.386C111.572 117.641 112.546 117.577 113.073 117.242C113.281 117.099 113.393 116.939 113.393 116.78C113.409 116.78 113.409 111.694 113.409 111.694H110.246Z" fill="#FEC7C4"/>
<path d="M114.974 117.242C114.974 117.242 114.639 116.525 114.175 116.317C113.712 116.11 110.182 116.493 110.23 115.951C110.23 115.871 110.565 115.712 110.565 115.712V115.249C110.565 115.249 110.022 115.457 109.847 115.6C109.511 115.871 109.255 116.557 109.735 117.051C111.076 118.47 114.974 117.242 114.974 117.242Z" fill="#249677"/>
<path d="M108.984 112.268C109.559 114.644 110.981 114.452 112.626 114.038C114.431 113.591 115.214 111.184 115.262 109.749C115.341 107.565 113.904 106.194 112.099 106.13C107.977 105.987 108.792 111.439 108.984 112.268Z" fill="#371D3E"/>
<path d="M110.07 105.971C110.533 106.369 110.837 106.943 110.837 107.565C110.837 108.793 109.735 109.781 108.377 109.781C108.169 109.781 107.961 109.749 107.77 109.701C108.217 110.084 108.808 110.323 109.463 110.323C110.821 110.323 111.923 109.335 111.923 108.107C111.907 107.071 111.124 106.226 110.07 105.971Z" fill="#FF4A59"/>
<path d="M110.837 107.565C110.837 106.944 110.549 106.37 110.07 105.971C109.878 105.923 109.671 105.891 109.463 105.891C108.105 105.891 107.003 106.88 107.003 108.107C107.003 108.729 107.291 109.303 107.77 109.702C107.962 109.749 108.169 109.781 108.377 109.781C109.735 109.781 110.837 108.793 110.837 107.565Z" fill="#371D3E"/>
<path d="M112.53 109.972C113.057 110.706 113.856 111.104 114.623 111.104C115.038 111.104 115.437 110.993 115.789 110.738C116.795 110.036 116.955 108.538 116.156 107.406C115.437 106.401 112.658 106.003 111.811 106.13C111.683 106.146 112.993 106.561 112.882 106.64C111.891 107.342 111.731 108.84 112.53 109.972Z" fill="#371D3E"/>
<path d="M122.849 124.864C124.031 124.497 125.357 124.051 126.076 123.812L126.619 123.62C127.546 123.509 128.855 120.91 129.287 121.739C129.287 121.739 130.692 121.819 130.101 123.206C129.942 123.573 129.191 124.115 128.6 124.433C128.121 124.689 127.785 124.8 127.434 124.864C127.37 124.88 127.306 124.896 127.258 124.912C127.178 124.975 125.533 126.267 123.632 127.335L122.849 124.864Z" fill="#FEC7C4"/>
<path d="M117.386 119.299C117.386 119.299 121.459 124.018 121.827 124.704C121.891 124.816 124.718 124.162 124.718 124.162C125.453 124.353 126.124 125.517 125.932 126.25C125.932 126.25 122.625 128.642 121.252 128.339C120.549 128.179 114.543 123.221 114.271 122.073L114.655 118.438C115.357 118.646 117.386 119.299 117.386 119.299Z" fill="#3EB788"/>
<path d="M114.83 111.886C115.198 112.364 115.23 112.938 114.926 113.177C114.607 113.416 114.064 113.209 113.712 112.731C113.345 112.253 113.313 111.679 113.616 111.44C113.92 111.2 114.463 111.408 114.83 111.886Z" fill="#FEC7C4"/>
<path d="M100.502 125.182L101.444 124.672C101.795 124.48 102.211 124.48 102.562 124.672L113.344 130.634C114.207 131.113 114.926 132.229 115.213 133.552L117.274 142.512C117.418 143.149 117.13 143.787 116.571 144.122L115.613 144.616L115.677 143.644C115.629 143.628 115.597 143.628 115.549 143.596L104.351 137.235C103.489 136.756 102.77 135.64 102.482 134.317L100.629 126.282C100.581 126.059 100.565 125.852 100.565 125.644L100.502 125.182Z" fill="#2190F4"/>
<path d="M100.022 127.207L101.875 135.242C102.163 136.581 102.882 137.697 103.744 138.159L114.942 144.521C115.868 145.031 116.619 143.883 116.3 142.464L114.447 134.429C114.159 133.09 113.44 131.974 112.578 131.511L101.38 125.15C100.454 124.64 99.7029 125.788 100.022 127.207Z" fill="#50B1F9"/>
<path d="M137.529 120.988L137.944 120.893H138.088L138.04 121.036L137.768 121.339L137.321 121.355L137.529 120.988Z" fill="#FDD5B7"/>
<path d="M137.688 121.02L133.519 123.396L132.88 123.762L132.944 123.603L133.455 123.3L137.529 120.988L137.688 121.02Z" fill="#FFDF57"/>
<path d="M137.8 121.196L134.158 123.284L133.008 123.938C132.96 123.89 132.912 123.826 132.88 123.778L133.519 123.412L137.688 121.036L137.8 121.196Z" fill="#FFB862"/>
<path d="M137.768 121.339L133.152 123.97L133.008 123.938L137.8 121.196L137.768 121.339Z" fill="#FFB862"/>
<path d="M138.216 120.845L137.944 120.909C137.944 120.909 137.992 120.909 138.024 120.957C138.056 120.989 138.04 121.052 138.04 121.052L138.216 120.845Z" fill="#4A3572"/>
<path d="M150.228 116.986L145.947 119.458H143.95L139.701 115.775L143.886 113.352L150.228 116.986Z" fill="#E76866"/>
<path d="M149.765 115.839L149.733 115.536L150.036 115.68L149.765 115.839Z" fill="#006A53"/>
<path d="M149.765 114.644V115.999L143.934 119.347C143.87 119.172 143.806 118.853 143.87 118.47C143.886 118.279 143.982 118.056 144.046 117.944C145.947 116.828 147.864 115.744 149.765 114.644Z" fill="#EBEBED"/>
<path d="M150.084 114.676L150.068 114.373L143.982 117.864L135.835 113.177L135.819 114.771L143.95 119.458L150.036 115.967V115.68L149.796 115.808L144.062 119.108L144.078 118.087L150.084 114.676Z" fill="#249677"/>
<path d="M143.982 117.864L135.835 113.177C135.756 113.305 135.58 113.655 135.612 114.118C135.628 114.405 135.724 114.628 135.803 114.755L143.95 119.442C143.886 119.315 143.79 119.092 143.758 118.789C143.726 118.358 143.902 118.008 143.982 117.864Z" fill="#3EB788"/>
<path d="M143.982 117.864L135.835 113.177L141.905 109.686L150.068 114.373L143.982 117.864Z" fill="#74C8A4"/>
<path d="M148.886 114.341L148.854 114.022L149.158 114.165L148.886 114.341Z" fill="#3A1C65"/>
<path d="M148.886 113.129V114.484L143.056 117.832C142.992 117.657 142.928 117.338 142.992 116.955C143.008 116.764 143.104 116.541 143.168 116.429C145.068 115.329 146.969 114.229 148.886 113.129Z" fill="#EBEBED"/>
<path d="M149.19 113.161V112.858L143.104 116.365L134.957 111.678L134.925 113.256L143.072 117.943L149.158 114.452V114.165L148.918 114.309L143.184 117.593L143.2 116.572L149.19 113.161Z" fill="#4A3572"/>
<path d="M143.104 116.365L134.957 111.678C134.877 111.806 134.701 112.156 134.733 112.619C134.749 112.906 134.845 113.129 134.925 113.256L143.072 117.943C143.008 117.816 142.912 117.593 142.88 117.306C142.848 116.843 143.024 116.493 143.104 116.365Z" fill="#6B5096"/>
<path d="M143.104 116.365L134.957 111.678L141.011 108.187L149.19 112.858L143.104 116.365Z" fill="#825EA6"/>
<path d="M34.0025 129.773L54.5927 142.161C55.647 142.799 55.631 144.345 54.5448 144.935L27.9645 160.096C27.3095 160.479 26.4949 160.463 25.84 160.096L4.73864 147.884C3.87606 147.39 3.87606 146.131 4.75462 145.652L31.9419 129.805C32.5809 129.439 33.3476 129.439 34.0025 129.773Z" fill="#EEF1F5"/>
<path d="M37.1814 149.559L49.6888 142.337C49.6888 134.557 49.7048 122.616 49.6888 122.121C49.6729 121.723 49.9604 121.388 50.3597 121.34C50.775 121.292 51.1424 121.611 51.1744 122.01C51.1744 122.058 51.1904 120.049 51.1744 142.767C51.1744 143.038 51.0306 143.277 50.791 143.421L37.9002 150.866C37.7884 150.93 37.6606 150.962 37.5328 150.962C37.2772 150.962 37.0216 150.834 36.8779 150.579C36.7022 150.212 36.83 149.766 37.1814 149.559Z" fill="#D2D9E5"/>
<path d="M13.2689 135.769L25.7764 128.547C25.7764 120.767 25.7924 108.826 25.7764 108.331C25.7604 107.933 26.0479 107.598 26.4473 107.55C26.8626 107.502 27.23 107.821 27.2619 108.22C27.2619 108.268 27.2779 106.259 27.2619 128.977C27.2619 129.248 27.1182 129.487 26.8786 129.631L13.9878 137.076C13.8759 137.14 13.7482 137.172 13.6204 137.172C13.3648 137.172 13.1092 137.044 12.9654 136.789C12.7897 136.438 12.9175 135.976 13.2689 135.769Z" fill="#371D3E"/>
<path d="M51.2064 120.4V122.234L31.1115 133.92V131.991L51.2064 120.4Z" fill="#AFBBD1"/>
<path d="M31.1115 131.942V133.919L7.50227 120.4L7.1189 118.04L31.1115 131.942Z" fill="#96A6C3"/>
<path d="M51.2064 118.9V120.399L31.1115 131.989V130.411L51.2064 118.9Z" fill="#E76866"/>
<path d="M7.11896 116.669L27.198 105.158L51.2065 118.901L31.1115 130.411L7.11896 116.669Z" fill="#F49082"/>
<path d="M31.1115 130.411V131.99L7.1189 118.088V116.669L31.1115 130.411Z" fill="#E76866"/>
<path d="M35.0887 120.894L38.0279 122.408L30.2806 126.776L29.2902 126.681L35.0887 120.894Z" fill="#E76866"/>
<path d="M31.2712 118.63C32.7568 117.785 35.057 118.997 36.4307 121.356C36.4946 121.468 36.5585 121.58 36.6224 121.707L29.2905 125.836L23.9552 122.759L31.2712 118.63Z" fill="#EFECF3"/>
<path d="M18.62 119.682L25.9519 115.553C27.4375 114.708 29.7377 115.919 31.1115 118.279C31.1754 118.391 31.2393 118.502 31.3032 118.63L23.9552 122.759L18.62 119.682Z" fill="#D2D9E5"/>
<path d="M23.7634 122.424C23.8273 122.536 23.9391 122.759 23.9551 122.759C25.4407 121.898 27.7409 123.126 29.1146 125.485C29.1785 125.597 29.2424 125.708 29.3063 125.836V126.33L23.9551 123.588L18.6199 120.543V119.666C20.0895 118.837 22.4057 120.065 23.7634 122.424Z" fill="#AFBBD1"/>
<path d="M36.6222 121.707V122.552L29.2903 126.681V125.836L36.6222 121.707Z" fill="#D2D9E5"/>
<path d="M37.0537 122.249V122.393L29.2905 126.777L29.2426 126.649L37.0537 122.249Z" fill="#4A3572"/>
<path d="M18.1407 120.176L29.2903 126.617V126.776L24.3864 123.938C24.0829 123.954 23.7315 123.747 23.4439 123.396L18.1407 120.335V120.176Z" fill="#4A3572"/>
<path d="M18.6198 119.921V120.16L29.3062 126.33L36.6382 122.201V122.01L37.0695 122.249L29.3222 126.617L24.4342 123.795C24.1148 123.811 23.7474 123.604 23.4439 123.221L18.1566 120.176L18.6198 119.921Z" fill="#6B5096"/>
<path d="M24.6579 123.556C24.2585 123.779 23.6355 123.46 23.2681 122.823C23.2522 122.791 23.2362 122.759 23.2202 122.727V122.504L24.6898 123.349L24.6579 123.556Z" fill="#AFBBD1"/>
<path d="M17.9653 148.667C17.9334 149.241 18.3966 149.703 18.9717 149.687C19.355 149.671 19.6425 149.496 19.8981 149.257C20.3454 148.826 20.8406 148.428 21.3677 148.109C21.5594 147.981 21.7351 147.87 21.8789 147.774C22.0865 147.615 22.2463 147.471 22.3741 147.312C22.8213 146.786 22.8054 146.323 22.8054 146.323C22.7894 146.291 22.7894 146.243 22.7734 146.196C22.7255 146.036 22.6137 145.893 22.4699 145.797C22.3581 145.717 22.2303 145.686 22.0865 145.686H21.8949C21.783 145.686 21.6712 145.686 21.5594 145.701C21.224 145.717 20.7767 145.925 20.4572 146.116L20.9684 144.155L18.3327 145.175C18.3167 145.367 18.3167 145.558 18.3008 145.717C18.2688 146.275 18.2209 146.849 18.125 147.407C18.0771 147.662 18.0452 147.917 17.9973 148.157C17.9973 148.204 17.9973 148.236 17.9813 148.268C17.9813 148.332 17.9653 148.38 17.9653 148.428C17.9813 148.507 17.9813 148.603 17.9653 148.667Z" fill="#FEC7C4"/>
<path d="M18.3167 145.781C18.3167 146.148 20.1536 146.132 20.7127 145.191L23.1727 135.785C23.2845 135.402 23.3644 135.02 23.4123 134.621C23.4283 134.51 23.4442 134.398 23.4602 134.286L23.3963 134.271L19.8821 133.473L19.8981 133.681C18.8278 137.092 18.3167 145.749 18.3167 145.781Z" fill="#371D3E"/>
<path d="M22.8052 146.307C22.8052 146.307 22.8052 147.072 21.8628 147.758C21.735 147.853 21.5433 147.981 21.3516 148.092C20.8245 148.427 20.3293 148.81 19.8821 149.24C19.6265 149.479 19.3389 149.655 18.9556 149.671C18.3805 149.703 17.8853 149.511 17.9492 148.65C17.9492 148.587 17.9652 148.491 17.9812 148.379C17.9812 148.332 17.9972 148.284 17.9972 148.236C18.0131 148.172 18.0131 148.14 18.0131 148.108C18.077 148.395 18.3965 148.475 18.6521 148.459C19.0195 148.443 19.3549 148.347 19.6105 148.108C20.0737 147.678 23.3324 145.813 21.3197 145.685L21.5593 145.653C22.5337 145.542 22.6775 145.86 22.7733 146.147C22.7893 146.227 22.8052 146.275 22.8052 146.307Z" fill="#371D3E"/>
<path d="M29.4503 148.523L27.6134 148.539C27.1182 148.571 26.623 148.396 26.2716 148.061C26.0958 147.901 26.0319 147.678 26.0639 147.455C26.0799 147.311 26.1118 147.136 26.1278 146.961C26.1278 146.961 27.1661 139.882 27.5814 134.159L23.4123 133.091H23.3484L23.3963 133.441L23.4442 133.712C23.2845 135.928 23.4282 146.961 23.572 147.28C23.6039 148.603 23.6199 149.559 23.588 149.846C23.54 150.341 23.7158 151.026 23.9394 151.313C24.4505 151.951 25.4729 151.616 26.2556 151.377L28.5878 150.691C29.4344 150.436 29.9615 149.767 30.0573 149.225C30.0893 148.858 29.8177 148.539 29.4503 148.523Z" fill="#FEC7C4"/>
<path d="M29.4503 148.523L28.2683 148.539C28.7475 148.619 28.9392 149.033 28.5079 149.4C28.0127 149.815 23.7158 150.835 23.6039 149.83C23.6039 150.022 23.6039 150.181 23.6039 150.261C23.6199 150.628 23.7317 150.994 23.9554 151.297C24.4665 151.967 25.4888 151.6 26.2716 151.361L28.6037 150.675C29.4663 150.42 29.9775 149.751 30.0733 149.209C30.0893 148.858 29.8177 148.539 29.4503 148.523Z" fill="#371D3E"/>
<path d="M18.6201 144.632L25.0256 140.901C25.2013 140.79 25.425 140.79 25.6166 140.869C25.8083 140.965 25.9361 141.14 25.9681 141.348L27.6932 155.935C27.7252 156.11 27.6773 156.27 27.5814 156.413C27.4856 156.541 27.3258 156.637 27.1661 156.668C26.9904 156.7 26.8306 156.653 26.7029 156.557C26.5591 156.461 26.4792 156.302 26.4473 156.142L24.8659 142.479L19.5466 145.572L17.7735 161.866C17.7256 162.185 17.4541 162.408 17.1506 162.408C17.1186 162.408 17.1026 162.408 17.0707 162.408C16.7193 162.36 16.4797 162.041 16.5276 161.69L18.3486 145.094C18.3326 144.903 18.4444 144.727 18.6201 144.632Z" fill="#AFBBD1"/>
<path d="M4.17993 136.931C4.21188 136.74 4.3237 136.565 4.48343 136.469L10.8889 132.739C11.0646 132.627 11.2882 132.627 11.4799 132.707C11.6716 132.802 11.7994 132.978 11.8314 133.185L13.5565 147.773C13.5885 147.948 13.5405 148.107 13.4447 148.251C13.3489 148.378 13.1891 148.474 13.0294 148.506C12.8537 148.538 12.6939 148.49 12.5661 148.394C12.4224 148.299 12.3425 148.139 12.3106 147.98L10.7292 134.317L5.40991 137.41L3.62085 153.687C3.57293 154.006 3.30138 154.229 2.99788 154.229C2.96593 154.229 2.94996 154.229 2.91801 154.229C2.56659 154.181 2.32698 153.863 2.3749 153.512L4.17993 136.931Z" fill="#AFBBD1"/>
<path d="M2.72636 138.845C2.71039 138.845 2.71039 137.745 2.71039 137.745L3.22155 137.713C3.34934 137.586 3.4931 137.458 3.66881 137.362L11.5598 132.819C12.7419 132.133 14.1955 132.133 15.3616 132.819L26.3036 139.084C26.5752 139.244 26.7828 139.435 26.9426 139.674L27.262 139.594V140.726C27.262 141.364 26.9426 142.018 26.3036 142.384L18.4126 146.928C17.2305 147.614 15.7769 147.614 14.6108 146.928L3.66881 140.663C2.98194 140.264 2.67844 139.531 2.72636 138.845Z" fill="#2190F4"/>
<path d="M3.68621 136.134L11.5772 131.591C12.7593 130.905 14.2129 130.905 15.379 131.591L26.321 137.856C27.5989 138.59 27.5989 140.423 26.321 141.156L18.43 145.7C17.2479 146.386 15.7943 146.386 14.6282 145.7L3.68621 139.435C2.40831 138.701 2.40831 136.868 3.68621 136.134Z" fill="#50B1F9"/>
<path d="M27.4855 133.25C27.0542 131.943 22.5976 128.722 20.8884 129.631L15.7768 132.23C15.617 132.325 15.4413 132.389 15.2656 132.437C13.0772 129.025 9.72272 130.157 7.96561 131.098C7.26277 131.48 6.8155 132.198 6.79953 132.995C6.78355 133.633 6.71966 134.478 6.55992 135.339C6.33629 136.518 6.2085 138.033 6.55992 139.037C7.35861 141.285 11.0965 142.656 12.3584 142.848C15.665 143.342 19.0035 142.29 21.5433 140.137C23.3483 138.607 25.4888 136.789 26.7987 135.705C27.5015 135.084 27.7731 134.127 27.4855 133.25Z" fill="#371D3E"/>
<path d="M5.96897 127.016C6.41623 132.086 6.57597 134.191 6.7996 134.43C9.33943 137.06 13.1572 137.14 15.6171 135.769C16.1442 135.466 16.3998 134.844 16.2561 134.254C16.0803 133.569 15.8407 132.612 15.665 131.735C15.6491 131.688 15.6491 131.624 15.6331 131.576C15.4574 130.667 15.5053 129.743 15.7449 128.85C15.7609 128.802 15.7768 128.738 15.7928 128.69C16.5116 128.276 16.9909 127.511 16.9909 126.634C16.9909 126.331 16.927 126.044 16.8311 125.773L17.9652 122.218L17.9972 122.138C17.8854 121.293 17.5659 120.671 17.0707 120.129C16.5755 119.587 15.9206 119.125 15.1059 118.631C15.074 118.615 15.0421 118.599 15.0101 118.567C14.8504 118.471 14.6747 118.36 14.5149 118.28L14.3392 118.168L13.9399 117.945L13.4926 117.69L12.1668 116.925L11.8473 116.733L11.6716 116.638C11.6716 116.638 11.6396 116.638 11.6237 116.638C11.5438 116.638 11.4 116.701 11.2403 116.765C10.8889 116.925 10.4097 117.148 10.3298 117.1C9.97838 116.957 9.64293 116.877 9.30748 116.829C8.41295 116.717 7.51842 116.925 6.8635 117.483C6.00092 118.2 5.85715 119.316 5.77728 120.225C5.47378 123.27 5.8252 125.534 5.96897 127.016Z" fill="#FFDF57"/>
<path d="M14.2913 127.016C14.451 128.865 15.3136 131.145 15.6331 131.591C15.4574 130.683 15.5053 129.758 15.7449 128.865C15.7609 128.817 15.7768 128.754 15.7928 128.706C16.5116 128.291 16.9909 127.526 16.9909 126.649C16.9909 126.346 16.927 126.059 16.8311 125.788L17.1346 124.848L14.6267 123.158C14.1635 124.258 14.1795 125.788 14.2913 127.016Z" fill="#FFA16B"/>
<path d="M15.9685 114.485C15.3615 117.02 13.6523 117.196 12.0869 116.382C10.3298 115.458 9.32344 113.337 9.25954 111.807C9.17968 109.479 10.6972 108.013 12.646 107.933C17.0547 107.773 16.1762 113.608 15.9685 114.485Z" fill="#FEC7C4"/>
<path d="M10.2979 113.067V118.153C10.2979 118.392 10.5215 118.615 10.9209 118.758C11.6237 119.013 12.5981 118.95 13.1253 118.615C13.3329 118.471 13.4447 118.312 13.4447 118.153C13.4607 118.153 13.4607 113.067 13.4607 113.067H10.2979Z" fill="#FEC7C4"/>
<path d="M15.0261 118.614C15.0261 118.614 14.6906 117.897 14.2274 117.689C13.7641 117.482 10.2339 117.865 10.2818 117.323C10.2818 117.243 10.6173 117.083 10.6173 117.083V116.621C10.6173 116.621 10.0742 116.828 9.89848 116.972C9.56303 117.243 9.30745 117.928 9.78666 118.423C11.1285 119.842 15.0261 118.614 15.0261 118.614Z" fill="#FFA16B"/>
<path d="M9.03599 113.639C9.61104 116.015 11.0327 115.824 12.678 115.409C14.483 114.963 15.2657 112.555 15.3137 111.12C15.3935 108.936 13.9559 107.565 12.1509 107.501C8.01367 107.374 8.8443 112.826 9.03599 113.639Z" fill="#371D3E"/>
<path d="M8.0137 121.659C12.3266 117.928 9.75484 114.15 10.857 112.906C11.7356 111.918 12.103 110.547 11.2404 109.335C10.4737 108.251 9.00407 107.725 7.72617 108.522C3.52507 111.169 8.6207 115.808 8.0137 121.659Z" fill="#371D3E"/>
<path d="M12.5822 111.344C13.1093 112.077 13.908 112.476 14.6747 112.476C15.09 112.476 15.4894 112.364 15.8408 112.109C16.8471 111.408 17.0069 109.909 16.2082 108.777C15.4894 107.773 12.71 107.374 11.8633 107.502C11.7356 107.518 13.0454 107.932 12.9336 108.012C11.9432 108.729 11.7835 110.228 12.5822 111.344Z" fill="#371D3E"/>
<path d="M22.8851 126.252C24.0672 125.885 25.393 125.438 26.1118 125.199L26.6549 125.008C27.5814 124.896 28.8913 122.298 29.3226 123.127C29.3226 123.127 30.7282 123.207 30.1372 124.594C29.9775 124.96 29.2267 125.502 28.6357 125.821C28.1565 126.076 27.821 126.188 27.4696 126.252C27.4057 126.268 27.3418 126.283 27.2939 126.299C27.214 126.363 25.5687 127.655 23.6678 128.723L22.8851 126.252Z" fill="#FEC7C4"/>
<path d="M17.4381 120.687C17.4381 120.687 21.5114 125.406 21.8788 126.092C21.9427 126.203 24.7701 125.55 24.7701 125.55C25.5048 125.741 26.1757 126.905 25.9841 127.638C25.9841 127.638 22.6775 130.029 21.3037 129.727C20.6009 129.567 14.5948 124.609 14.3232 123.461L14.7066 119.826C15.4094 120.017 17.4381 120.687 17.4381 120.687Z" fill="#FFDF57"/>
<path d="M14.8824 113.258C15.2498 113.736 15.2818 114.31 14.9783 114.549C14.6588 114.788 14.1157 114.581 13.7643 114.103C13.3969 113.624 13.3649 113.05 13.6684 112.811C13.9719 112.588 14.5151 112.779 14.8824 113.258Z" fill="#FEC7C4"/>
<path d="M0.554199 126.552L1.49665 126.042C1.84807 125.851 2.26339 125.851 2.61481 126.042L13.3971 132.005C14.2597 132.483 14.9785 133.599 15.266 134.922L17.3266 143.882C17.4704 144.52 17.1829 145.157 16.6238 145.492L15.6654 145.986L15.7293 145.014C15.6813 144.998 15.6494 144.998 15.6015 144.966L4.40387 138.605C3.54129 138.127 2.82247 137.011 2.53494 135.687L0.681989 127.652C0.634068 127.429 0.618094 127.222 0.618094 127.015L0.554199 126.552Z" fill="#2190F4"/>
<path d="M0.0748174 128.593L1.92777 136.628C2.2153 137.967 2.93412 139.083 3.7967 139.546L14.9943 145.907C15.9208 146.417 16.6715 145.269 16.3521 143.85L14.4991 135.815C14.2116 134.476 13.4928 133.36 12.6302 132.898L1.43259 126.537C0.506109 126.026 -0.244657 127.158 0.0748174 128.593Z" fill="#50B1F9"/>
<path d="M32.1176 117.848L32.533 117.768H32.6767L32.6288 117.911L32.3413 118.214L31.894 118.198L32.1176 117.848Z" fill="#FDD5B7"/>
<path d="M32.2774 117.88L28.0444 120.144L27.3895 120.495L27.4693 120.335L27.9805 120.048L32.1177 117.848L32.2774 117.88Z" fill="#FFDF57"/>
<path d="M32.3892 118.055L28.6833 120.048L27.5173 120.67C27.4693 120.622 27.4374 120.559 27.3895 120.495L28.0444 120.144L32.2774 117.88L32.3892 118.055Z" fill="#FFB862"/>
<path d="M32.3413 118.214L27.661 120.701L27.5173 120.654L32.3893 118.055L32.3413 118.214Z" fill="#FFB862"/>
<path d="M32.8046 117.72L32.533 117.768C32.533 117.768 32.5809 117.784 32.6129 117.816C32.6448 117.848 32.6289 117.912 32.6289 117.912L32.8046 117.72Z" fill="#4A3572"/>
<path d="M29.1143 108.522L24.3221 111.312L27.9322 114.436H29.6254L34.4814 111.631L29.1143 108.522Z" fill="#E76866"/>
<path d="M32.8682 111.376L32.8362 111.105L33.1078 111.216L32.8682 111.376Z" fill="#006A53"/>
<path d="M32.8521 110.339V111.487L27.9002 114.34C27.8363 114.197 27.7884 113.926 27.8363 113.591C27.8523 113.432 27.9322 113.24 27.9801 113.145C29.6094 112.204 31.2387 111.279 32.8521 110.339Z" fill="#EBEBED"/>
<path d="M33.1236 110.372V110.117L27.9481 113.098L21.0155 109.096L20.9995 110.451L27.9162 114.437L33.1076 111.472V111.217L32.884 111.344L28.012 114.134L28.028 113.273L33.1236 110.372Z" fill="#249677"/>
<path d="M27.9481 113.097L21.0155 109.111C20.9516 109.223 20.7919 109.526 20.8238 109.908C20.8398 110.148 20.9197 110.339 20.9836 110.451L27.9002 114.436C27.8523 114.325 27.7565 114.133 27.7405 113.894C27.7245 113.496 27.8842 113.209 27.9481 113.097Z" fill="#3EB788"/>
<path d="M27.9482 113.097L21.0156 109.096L26.1751 106.13L33.1237 110.116L27.9482 113.097Z" fill="#74C8A4"/>
<path d="M32.1175 110.084L32.0856 109.813L32.3571 109.941L32.1175 110.084Z" fill="#3A1C65"/>
<path d="M32.1014 109.063V110.211L27.1496 113.065C27.0857 112.921 27.0378 112.65 27.0857 112.316C27.1017 112.156 27.1815 111.965 27.2295 111.869C28.8588 110.929 30.4881 109.988 32.1014 109.063Z" fill="#EBEBED"/>
<path d="M32.373 109.08V108.825L27.1975 111.806L20.2649 107.821L20.2489 109.16L27.1655 113.145L32.357 110.18V109.941L32.1334 110.053L27.2614 112.858L27.2773 111.982L32.373 109.08Z" fill="#4A3572"/>
<path d="M27.1975 111.806L20.2649 107.821C20.201 107.932 20.0413 108.235 20.0732 108.618C20.0892 108.857 20.1691 109.048 20.2329 109.16L27.1496 113.145C27.1017 113.034 27.0058 112.842 26.9898 112.603C26.9739 112.221 27.1336 111.918 27.1975 111.806Z" fill="#6B5096"/>
<path d="M27.1976 111.806L20.265 107.82L25.4245 104.855L32.3731 108.824L27.1976 111.806Z" fill="#825EA6"/>
<path d="M177.591 29.9403V77.4494L176.441 78.0712V30.5621L124.814 0.621763L125.948 0L177.591 29.9403Z" fill="#E76866"/>
<path d="M176.441 30.5621V78.0712L124.814 48.2904V0.621826L176.441 30.5621Z" fill="#AFBBD1"/>
<path d="M176.441 30.5621V78.0712L124.814 48.2904V0.621826L176.441 30.5621Z" fill="#F49082"/>
<path d="M129.031 6.664V45.8351L173.31 71.3752V72.6506L127.945 46.4887V6.04224L129.031 6.664Z" fill="#249677"/>
<path d="M129.031 6.66431L173.31 32.3639V71.3755L129.031 45.8354V6.66431Z" fill="#3EB788"/>
<path d="M137.417 28.6967C137.369 28.8083 137.289 28.8242 137.161 28.7605L137.081 28.7126C136.922 28.617 136.858 28.4416 136.922 28.2822L137.625 26.8155L136.458 23.037C136.379 22.7979 136.442 22.6863 136.618 22.782L136.698 22.8298C136.81 22.8936 136.89 23.0052 136.954 23.1805L137.896 26.2734L138.855 24.2806C138.902 24.169 138.982 24.153 139.11 24.2168L139.19 24.2646C139.35 24.3603 139.414 24.5357 139.35 24.6951L137.417 28.6967Z" fill="white"/>
<path d="M139.877 25.5237C139.733 25.444 139.669 25.3005 139.669 25.1252C139.669 24.9179 139.749 24.8541 139.877 24.9338L142.768 26.6078C142.912 26.6875 142.976 26.831 142.976 27.0064C142.976 27.2137 142.896 27.2774 142.768 27.1977L139.877 25.5237ZM139.877 26.9426C139.733 26.8629 139.669 26.7194 139.669 26.5441C139.669 26.3368 139.749 26.273 139.877 26.3527L142.768 28.0267C142.912 28.1064 142.976 28.2499 142.976 28.4253C142.976 28.6326 142.896 28.6963 142.768 28.6166L139.877 26.9426Z" fill="white"/>
<path d="M145.771 31.9487C145.628 31.869 145.564 31.7255 145.564 31.5502V30.0835L143.599 28.9515C143.455 28.8718 143.391 28.7283 143.391 28.553V28.4095C143.391 28.266 143.423 28.1863 143.471 28.1066L145.436 25.6354C145.5 25.5557 145.58 25.5398 145.691 25.6036L145.851 25.6992C145.995 25.7789 146.059 25.9224 146.059 26.0978V29.7487L146.522 30.0197C146.666 30.0994 146.73 30.2429 146.73 30.4182V30.4661C146.73 30.6574 146.65 30.7052 146.522 30.6255L146.059 30.3545V31.8212C146.059 32.0125 145.979 32.0603 145.851 31.9806L145.771 31.9487ZM145.564 29.4457V26.4804L143.966 28.5211L145.564 29.4457Z" fill="white"/>
<path d="M147.369 32.8735C147.209 32.7778 147.177 32.6184 147.289 32.4909L148.231 31.3749L147.369 29.3342C147.257 29.0951 147.321 28.9675 147.496 29.0632L147.56 29.0951C147.672 29.1588 147.752 29.2545 147.816 29.4139L148.503 31.0401L149.19 30.2111C149.269 30.1313 149.333 30.1313 149.445 30.1951L149.509 30.227C149.685 30.3227 149.749 30.5299 149.637 30.6415L148.774 31.6778L149.717 33.8779C149.828 34.117 149.765 34.2445 149.589 34.1489L149.525 34.117C149.413 34.0532 149.333 33.9576 149.269 33.7982L148.503 32.0126L147.752 32.9213C147.672 33.001 147.608 33.001 147.496 32.9373L147.369 32.8735Z" fill="white"/>
<path d="M151.058 29.7805C151.506 30.1312 151.793 30.7052 151.793 31.3269C151.793 32.0125 151.442 32.2675 150.915 31.9646L150.308 31.6139C150.228 31.5661 150.18 31.4863 150.18 31.3747C150.18 31.2313 150.228 31.1994 150.308 31.2472L150.915 31.5979C151.266 31.8052 151.506 31.6298 151.506 31.1515C151.506 30.6892 151.266 30.2269 150.915 30.0356L150.787 29.9558C150.691 29.8921 150.659 29.7964 150.707 29.7167L151.234 28.8239L150.324 28.2978C150.244 28.25 150.196 28.1703 150.196 28.0587C150.196 27.9152 150.244 27.8833 150.324 27.9311L151.538 28.6326C151.634 28.6964 151.665 28.792 151.618 28.8717L151.058 29.7805Z" fill="white"/>
<path d="M155.387 34.7551C155.531 34.8348 155.595 34.9783 155.595 35.1537C155.595 35.3609 155.515 35.4247 155.387 35.345L154.173 34.6435V36.2697C154.173 36.461 154.093 36.5088 153.966 36.4291C153.806 36.3334 153.726 36.2059 153.726 36.0146V34.3884L152.496 33.6869C152.352 33.6072 152.288 33.4637 152.288 33.2884C152.288 33.0811 152.368 33.0174 152.496 33.0971L153.726 33.7985V32.1724C153.726 31.9811 153.806 31.9333 153.934 32.013C154.093 32.1086 154.173 32.2362 154.173 32.4275V34.0536L155.387 34.7551Z" fill="white"/>
<path d="M156.905 34.5154C157.128 34.4835 157.368 34.5473 157.64 34.6908C158.614 35.2169 159.205 36.5083 159.205 37.6561C159.205 38.7721 158.502 39.2982 157.64 38.804C156.985 38.4214 156.426 37.5605 156.202 36.6677C156.138 36.4445 156.234 36.3648 156.378 36.4604L156.426 36.4923C156.537 36.5561 156.617 36.6677 156.665 36.859C156.841 37.4329 157.208 37.975 157.624 38.2141C158.231 38.5649 158.71 38.1822 158.71 37.3851C158.71 36.588 158.342 35.6952 157.624 35.3126C157.384 35.185 157.176 35.1531 157.001 35.2169C156.921 35.2488 156.841 35.2488 156.729 35.185L156.617 35.1212C156.473 35.0415 156.41 34.8981 156.41 34.7227V32.0762C156.41 31.8849 156.489 31.8371 156.617 31.9168L158.582 33.0487C158.726 33.1284 158.79 33.2719 158.79 33.4473V33.4951C158.79 33.6864 158.71 33.7342 158.582 33.6545L156.889 32.682V34.5154H156.905Z" fill="white"/>
<path d="M159.78 40.0156C159.62 39.9359 159.588 39.7605 159.7 39.633L160.643 38.517L159.78 36.4763C159.668 36.2372 159.732 36.1096 159.908 36.2053L159.972 36.2372C160.083 36.3009 160.163 36.3966 160.227 36.556L160.914 38.1822L161.601 37.3532C161.681 37.2734 161.745 37.2734 161.857 37.3372L161.92 37.3691C162.096 37.4648 162.16 37.672 162.048 37.7836L161.186 38.8199L162.128 41.02C162.24 41.2591 162.176 41.3866 162 41.291L161.936 41.2591C161.825 41.1953 161.745 41.0997 161.681 40.9403L160.914 39.1547L160.163 40.0634C160.083 40.1431 160.02 40.1431 159.908 40.0793L159.78 40.0156Z" fill="white"/>
<path d="M163.949 39.4895C163.87 39.4417 163.822 39.362 163.822 39.2504V38.3895L162.671 37.7358C162.592 37.688 162.544 37.6083 162.544 37.4967V37.417C162.544 37.3373 162.56 37.2894 162.592 37.2416L163.726 35.8068C163.758 35.759 163.806 35.743 163.87 35.7908L163.965 35.8387C164.045 35.8865 164.093 35.9662 164.093 36.0778V38.2141L164.365 38.3735C164.445 38.4214 164.493 38.5011 164.493 38.6127C164.493 38.7562 164.445 38.7881 164.365 38.7402L164.093 38.5808V39.4417C164.093 39.5533 164.045 39.5852 163.965 39.5374L163.949 39.4895ZM163.822 38.0228V36.2851L162.895 37.4808L163.822 38.0228Z" fill="white"/>
<path d="M137.417 42.965C137.369 43.0766 137.289 43.0925 137.161 43.0288L137.081 42.9809C136.922 42.8853 136.858 42.7099 136.922 42.5505L137.625 41.0838L136.458 37.3054C136.379 37.0662 136.443 36.9546 136.618 37.0503L136.698 37.0981C136.81 37.1619 136.89 37.2735 136.954 37.4488L137.896 40.5417L138.855 38.5489C138.902 38.4373 138.982 38.4213 139.11 38.4851L139.19 38.5329C139.35 38.6286 139.414 38.804 139.35 38.9634L137.417 42.965Z" fill="white"/>
<path d="M139.877 39.792C139.733 39.7123 139.669 39.5688 139.669 39.3935C139.669 39.1862 139.749 39.1224 139.877 39.2022L142.768 40.8761C142.912 40.9559 142.976 41.0993 142.976 41.2747C142.976 41.482 142.896 41.5457 142.768 41.466L139.877 39.792ZM139.877 41.2109C139.733 41.1312 139.669 40.9877 139.669 40.8124C139.669 40.6051 139.749 40.5413 139.877 40.6211L142.768 42.295C142.912 42.3747 142.976 42.5182 142.976 42.6936C142.976 42.9009 142.896 42.9646 142.768 42.8849L139.877 41.2109Z" fill="white"/>
<path d="M144.941 41.8483C145.707 42.4541 146.187 43.4426 146.187 44.4948C146.187 45.6746 145.58 46.105 144.669 45.5789L143.647 44.989C143.503 44.9093 143.439 44.7658 143.439 44.5905V44.5426C143.439 44.3513 143.519 44.3035 143.647 44.3832L144.669 44.9731C145.276 45.3238 145.675 45.0209 145.675 44.2078C145.675 43.4107 145.276 42.6295 144.669 42.2788L144.446 42.1512C144.27 42.0556 144.206 41.8802 144.302 41.7367L145.212 40.2062L143.647 39.2975C143.503 39.2178 143.439 39.0743 143.439 38.8989V38.8511C143.439 38.6598 143.519 38.612 143.647 38.6917L145.723 39.8874C145.899 39.983 145.963 40.1584 145.867 40.3019L144.941 41.8483Z" fill="white"/>
<path d="M146.841 46.823C146.682 46.7432 146.65 46.5679 146.762 46.4403L147.704 45.3243L146.841 43.2837C146.73 43.0445 146.794 42.917 146.969 43.0127L147.033 43.0445C147.145 43.1083 147.225 43.204 147.289 43.3634L147.976 44.9896L148.663 44.1605C148.742 44.0808 148.806 44.0808 148.918 44.1446L148.982 44.1765C149.158 44.2721 149.222 44.4794 149.11 44.591L148.247 45.6273L149.19 47.8273C149.301 48.0665 149.238 48.194 149.062 48.0984L148.998 48.0665C148.886 48.0027 148.806 47.9071 148.742 47.7476L147.976 45.9621L147.225 46.8708C147.145 46.9505 147.081 46.9505 146.969 46.8867L146.841 46.823Z" fill="white"/>
<path d="M149.781 45.5793C149.701 45.5315 149.653 45.4518 149.653 45.3402V44.9894C149.653 43.7459 151.043 44.559 151.043 43.6662C151.043 43.2517 150.867 42.8212 150.515 42.614C150.212 42.4386 150.02 42.5661 149.972 42.885C149.956 42.9807 149.924 43.0125 149.845 42.9647L149.797 42.9328C149.717 42.885 149.669 42.7893 149.669 42.6937C149.717 42.1676 150.036 41.9444 150.515 42.2313C150.963 42.4864 151.346 43.0763 151.346 43.8416C151.346 45.0373 149.972 44.2401 149.972 45.1648V45.3242L151.218 46.0416C151.298 46.0895 151.346 46.1692 151.346 46.2808C151.346 46.4243 151.298 46.4561 151.218 46.4083L149.781 45.5793Z" fill="white"/>
<path d="M154.956 48.7678C155.1 48.8475 155.164 48.991 155.164 49.1664C155.164 49.3736 155.084 49.4374 154.956 49.3577L153.742 48.6562V50.2823C153.742 50.4737 153.662 50.5215 153.535 50.4418C153.375 50.3461 153.295 50.2186 153.295 50.0273V48.4011L152.065 47.6996C151.921 47.6199 151.857 47.4764 151.857 47.3011C151.857 47.0938 151.937 47.03 152.065 47.1098L153.295 47.8112V46.1851C153.295 45.9938 153.375 45.9459 153.503 46.0257C153.662 46.1213 153.742 46.2489 153.742 46.4402V48.0663L154.956 48.7678Z" fill="white"/>
<path d="M158.566 47.7154C158.566 47.8429 158.55 47.9386 158.518 48.0342L156.713 52.3069C156.665 52.4185 156.586 52.4503 156.474 52.3706L156.362 52.3069C156.202 52.2112 156.138 52.0518 156.202 51.8764L158.007 47.5719L155.899 46.3602C155.755 46.2805 155.691 46.137 155.691 45.9617V45.9138C155.691 45.7225 155.771 45.6747 155.899 45.7544L158.343 47.1733C158.486 47.253 158.55 47.3965 158.55 47.5719V47.7154H158.566Z" fill="white"/>
<path d="M159.205 53.9487C159.045 53.869 159.014 53.6936 159.125 53.5661L160.068 52.4501L159.205 50.4094C159.093 50.1703 159.157 50.0427 159.333 50.1384L159.397 50.1703C159.509 50.234 159.589 50.3297 159.652 50.4891L160.339 52.1153L161.026 51.2863C161.106 51.2065 161.17 51.2065 161.282 51.2703L161.346 51.3022C161.521 51.3979 161.585 51.6051 161.473 51.7167L160.611 52.753L161.553 54.9531C161.665 55.1922 161.601 55.3198 161.426 55.2241L161.362 55.1922C161.25 55.1284 161.17 55.0328 161.106 54.8734L160.339 53.0878L159.589 53.9965C159.509 54.0762 159.445 54.0762 159.333 54.0125L159.205 53.9487Z" fill="white"/>
<path d="M162.16 52.706C162.08 52.6582 162.033 52.5785 162.033 52.4669V52.1161C162.033 50.8726 163.422 51.6857 163.422 50.7929C163.422 50.3784 163.247 49.9479 162.895 49.7407C162.592 49.5653 162.4 49.6929 162.352 50.0117C162.336 50.1074 162.304 50.1392 162.224 50.0914L162.176 50.0595C162.096 50.0117 162.049 49.916 162.049 49.8204C162.096 49.2943 162.416 49.0711 162.895 49.3581C163.342 49.6131 163.726 50.203 163.726 50.9683C163.726 52.164 162.352 51.3668 162.352 52.2915V52.4509L163.598 53.1684C163.678 53.2162 163.726 53.2959 163.726 53.4075C163.726 53.551 163.678 53.5829 163.598 53.535L162.16 52.706Z" fill="white"/>
<path d="M122.354 82.7098C120.341 83.5069 117.945 83.9214 115.437 83.8896C111.587 83.8417 107.993 82.7895 105.805 81.0677C104.863 80.3184 103.776 79.1227 103.984 77.7038C104.208 76.2371 105.773 74.7704 108.217 73.8138C110.23 73.0167 112.626 72.6021 115.134 72.634C118.983 72.6819 122.577 73.7341 124.766 75.4559C125.708 76.2052 126.794 77.4009 126.587 78.8198C126.363 80.2865 124.782 81.7373 122.354 82.7098Z" fill="#EEF1F5"/>
<path d="M120.756 22.9408C119.99 20.9799 118.184 19.9915 116.731 20.7408C116.571 20.8205 116.427 20.9161 116.3 21.0277C115.581 21.6176 115.165 22.6061 115.134 23.7061C114.862 23.4988 114.542 23.3394 114.175 23.2756C114.143 23.2756 114.111 23.2756 114.079 23.2597C114.063 23.1959 114.063 23.1322 114.047 23.0843C113.935 22.6539 113.776 22.2872 113.568 21.9524C114.015 21.5538 114.367 21.0118 114.558 20.3581C114.974 18.9074 114.383 17.5682 113.233 17.345C113.105 17.329 113.76 16.7073 113.76 16.7073C112.61 16.8667 110.757 18.2856 110.373 19.577C110.214 20.1031 110.198 20.6292 110.293 21.0756C109.335 21.793 108.872 23.3235 109.255 24.8221C109.431 25.5076 109.766 26.0816 110.182 26.512C109.655 28.4889 110.485 30.2904 112.067 30.5774C112.642 30.689 113.217 30.5774 113.76 30.3064C114.782 29.8281 115.661 28.7759 116.044 27.4686C116.108 27.2613 116.156 27.0541 116.172 26.8468C117.066 27.9628 118.376 28.3932 119.494 27.8352C120.005 27.5802 120.405 27.1338 120.676 26.5917C121.188 25.5873 121.251 24.2163 120.756 22.9408Z" fill="#371D3E"/>
<path d="M120.644 76.684C120.852 76.9072 121.251 77.2898 120.996 77.5608C120.309 78.2783 119.111 78.0869 117.146 76.6521C116.906 76.4767 116.555 76.5405 116.172 76.3332C115.836 76.1579 115.565 75.8869 115.453 75.5361C115.341 75.2173 115.421 75.01 115.421 75.01C115.421 74.8984 115.501 74.739 115.581 74.5317C115.597 74.4839 115.613 74.4361 115.629 74.3723C115.788 73.8621 115.788 73.1447 115.788 73.1447C115.788 73.1447 115.82 61.5863 116.874 57.1383L115.948 47.5727L121.619 46.6321L120.884 57.2977C120.884 57.2977 117.801 72.6664 117.753 73.4955C117.689 74.452 119.127 75.5361 120.005 76.1898C120.309 76.413 120.548 76.5883 120.644 76.684Z" fill="#FEC7C4"/>
<path d="M111.555 48.0825L112.961 57.951L112.865 59.5612C111.284 64.5512 111.811 71.6935 111.859 75.169C111.875 76.5401 111.092 77.3691 111.092 79.346C111.092 80.3504 111.539 81.4345 112.785 81.4026C114.047 81.3707 113.871 78.1184 113.536 76.2053C113.488 75.9502 113.504 75.6951 113.552 75.456L116.443 61.3627L117.002 60.2786C117.13 59.9119 117.21 59.5452 117.21 59.1467V47.7795L111.555 48.0825Z" fill="#FEC7C4"/>
<path d="M113.744 77.896C113.744 77.896 113.84 79.4265 112.466 79.4265C111.427 79.4265 111.172 78.6612 111.284 77.7366C110.932 78.6931 111.14 80.0323 111.236 80.3352C111.459 81.0686 111.939 81.4672 112.849 81.4353C113.248 81.4193 113.504 81.3237 113.648 80.8135C113.887 80.0801 113.903 79.012 113.744 77.896Z" fill="#371D3E"/>
<path d="M120.98 77.5608C120.293 78.2783 119.095 78.087 117.13 76.6521C116.891 76.4767 116.539 76.5405 116.156 76.3333C115.82 76.1579 115.549 75.8869 115.437 75.5361C115.325 75.2173 115.405 75.01 115.405 75.01C115.405 74.8984 115.485 74.739 115.565 74.5317C115.581 74.4839 115.597 74.4361 115.613 74.3723C115.772 75.281 119.015 76.955 119.59 76.971C120.149 76.9869 120.277 76.5405 119.973 76.1738C120.293 76.413 120.549 76.5883 120.628 76.684C120.836 76.9072 121.251 77.2898 120.98 77.5608Z" fill="#371D3E"/>
<path d="M127.194 38.7718C125.373 38.9153 121.938 39.0428 120.628 38.0225C119.957 37.4964 118.871 29.3019 118.871 29.3019C118.823 29.0468 118.983 28.8077 119.223 28.7598L121.108 28.4091C121.363 28.3613 121.587 28.5207 121.635 28.7758C121.81 29.7961 122.497 34.4514 122.673 35.6311C122.721 35.9021 122.913 36.1253 123.2 36.1732C124.51 36.4123 125.357 36.8587 127.561 37.2732C128.551 37.4486 130.5 34.8818 130.836 35.8224C130.836 35.8224 132.928 36.6355 131.874 37.8471C131.698 38.0544 130.213 38.8834 129.733 38.8515C128.791 38.7718 127.433 38.7559 127.194 38.7718Z" fill="#FEC7C4"/>
<path d="M125.213 36.5244C125.213 37.4172 124.286 38.4694 124.574 38.9477C124.574 38.9477 120.98 38.8998 120.341 38.31C119.67 37.7041 118.807 31.8373 118.472 29.3502C118.424 29.1589 118.472 28.9197 118.6 28.7284C118.728 28.5371 118.919 28.4096 119.159 28.3617C119.159 28.3617 121.587 27.469 121.667 27.8835C121.842 28.9197 122.929 34.4837 123.088 35.5678C123.104 35.6794 123.184 35.7273 123.28 35.7751C123.695 35.9345 125.213 36.5244 125.213 36.5244Z" fill="#D2D9E5"/>
<path d="M121.938 43.2047C121.811 47.5889 121.092 57.6806 121.092 57.6806C120.692 59.7372 115.469 60.072 113.344 59.2749C113.265 59.243 113.201 59.2111 113.137 59.1792C112.785 59.0198 112.546 58.8125 112.482 58.5734L111.507 49.5817C110.309 45.5642 110.629 44.0018 111.843 41.435C111.843 41.435 111.923 41.2915 112.035 41.0843L112.482 41.0046C112.514 40.9886 121.012 39.3784 121.012 39.3784C121.667 40.5582 121.97 41.8814 121.938 43.2047Z" fill="#4A3572"/>
<path d="M120.66 37.4806C120.644 37.6719 120.629 37.8632 120.644 38.0386C120.676 38.5169 121.283 38.9792 121.028 39.3778C119.478 41.7054 116.06 41.7054 113.92 41.4344C112.817 41.2909 112.051 41.0836 112.051 41.0836C112.45 40.3821 112.658 39.601 112.658 38.8038C112.658 38.469 112.626 38.1342 112.562 37.8154C112.53 37.6878 112.498 37.5762 112.466 37.4487C112.418 37.2893 112.37 37.1458 112.306 36.9864L111.683 35.408L110.437 31.1513C110.437 29.1585 111.444 28.2976 113.121 27.2773C113.297 27.1657 113.472 27.0541 113.664 26.9584L116.268 25.4598C116.395 25.396 117.37 25.9381 117.498 25.8743C117.801 25.7468 118.121 25.6671 118.424 25.6192C120.053 25.412 121.683 26.3685 121.683 28.5686L121.555 29.6846C121.475 30.3064 121.523 30.9441 121.731 31.534C121.843 31.8209 121.906 32.1398 121.906 32.4746C121.906 33.2877 121.539 34.021 120.98 34.5152L120.724 36.6675L120.66 37.4806Z" fill="#EFECF3"/>
<path d="M114.111 38.0063C114.143 39.2498 113.967 40.3977 113.903 41.4499C112.801 41.3064 112.034 41.0992 112.034 41.0992C112.434 40.3977 112.641 39.6165 112.641 38.8194C112.641 38.4846 112.61 38.1498 112.546 37.8309L113.696 32.251C113.696 34.1003 114.063 35.9178 114.111 38.0063Z" fill="#D2D9E5"/>
<path d="M118.2 26.8631C118.552 27.5805 118.312 29.9559 118.312 29.9559C118.312 29.9559 115.133 28.8081 114.127 27.8037C113.776 27.4529 113.872 26.8471 114.303 26.592L116.188 25.5079C116.379 25.4761 116.635 25.4442 116.827 25.4282C117.641 25.6674 117.929 26.2891 118.2 26.8631Z" fill="#FEC7C4"/>
<path d="M117.498 22.2078V26.8631C117.498 27.0863 117.29 27.2935 116.923 27.4211C116.284 27.6602 115.389 27.5965 114.91 27.2776C114.718 27.1501 114.622 27.0066 114.622 26.8471C114.606 26.8471 114.606 22.1919 114.606 22.1919H117.498V22.2078Z" fill="#FEC7C4"/>
<path d="M117.498 22.4153V25.6357C117.498 26.1937 116.907 26.5923 116.396 26.3531C115.836 26.0821 115.341 25.6835 114.942 25.2212C114.718 24.9661 114.606 24.6473 114.606 24.3284V22.4153H117.498Z" fill="#EF8F9B"/>
<path d="M119.303 23.7067C118.839 26.0503 117.274 26.2735 115.804 25.572C114.175 24.7908 113.169 22.8777 113.057 21.4747C112.897 19.3384 114.239 17.9514 116.012 17.8239C120.069 17.5209 119.462 22.8936 119.303 23.7067Z" fill="#FEC7C4"/>
<path d="M112.61 17.3612C113.552 16.5003 115.165 16.4047 116.427 16.2293C117.977 16.022 119.319 17.1699 119.398 18.7323C119.43 19.5772 119.446 20.4381 119.367 21.028C119.367 21.028 119.255 20.2468 118.999 19.5772C118.999 19.5772 118.76 19.8642 117.769 20.0396C117.114 20.1512 116.507 20.0396 115.98 20.0396C115.325 20.0236 114.766 20.486 114.622 21.1237C114.526 21.586 114.431 22.1759 114.495 22.6861C114.495 22.6861 114.319 22.3672 114.063 22.0643C113.84 21.7933 113.169 21.6498 113.105 21.857C112.945 22.3991 114.479 24.5673 114.479 24.5673C111.396 23.3238 111.092 18.7163 112.61 17.3612Z" fill="#371D3E"/>
<path d="M114.287 22.2395C114.67 22.7178 114.734 23.3077 114.431 23.5628C114.111 23.8179 113.552 23.6265 113.153 23.1483C112.769 22.67 112.705 22.0801 113.009 21.825C113.328 21.5699 113.888 21.7613 114.287 22.2395Z" fill="#FEC7C4"/>
<path d="M113.312 50.8888L113.073 49.5337C113.041 49.3424 112.977 49.167 112.897 49.0076L112.721 48.6887C112.53 48.338 112.434 47.9235 112.45 47.5249L112.833 39.9362C112.833 39.6333 112.849 39.3463 112.897 39.0594C113.073 37.7361 113.6 33.7824 113.696 32.6823C113.728 32.4113 113.52 32.1722 113.248 32.1403L111.156 31.9808C110.884 31.9649 110.645 32.1722 110.629 32.4432L110.261 39.2029C110.245 39.442 110.245 39.6652 110.261 39.9043L110.868 48.1467C110.789 48.625 110.725 49.1351 110.693 49.6293L110.517 52.0048C110.501 52.1323 110.597 52.2599 110.725 52.2758C110.82 52.2918 110.868 52.2599 110.916 52.228C111.028 52.5469 111.188 52.7541 111.396 52.8019C112.146 52.9773 112.418 50.3308 112.418 50.3308C112.418 50.3308 112.625 50.8888 112.673 51.0801C112.737 51.2874 112.929 51.383 113.057 51.3671C113.408 51.3352 113.376 51.0323 113.312 50.8888Z" fill="#FEC7C4"/>
<path d="M110.453 30.8487L110.357 31.9647L109.846 39.1708C109.83 39.4258 109.83 39.6809 109.846 39.9201L110.23 43.3477C110.293 44.097 112.114 43.7144 112.881 43.5231L113.217 39.9041C113.217 39.6171 113.233 39.3461 113.281 39.0751C113.376 38.3896 114.622 29.1428 114.622 29.1428L110.453 30.8487Z" fill="#EFECF3"/>
<path d="M131.139 36.6357C131.107 36.6357 131.075 36.6357 131.043 36.6198C130.948 36.5719 130.916 36.4603 130.964 36.3647L134.845 31.2152C134.893 31.1196 135.005 31.0877 135.101 31.1355C135.197 31.1833 135.229 31.2949 135.181 31.3906L131.299 36.5401C131.267 36.6038 131.203 36.6357 131.139 36.6357Z" fill="#371D3E"/>
</svg>
