<svg width="11" height="11" viewBox="0 0 12 12" fill="none" xmlns="http://www.w3.org/2000/svg">
<path d="M3.81016 2.20316C4.39431 1.67242 5.20656 1.34297 6.09906 1.34329C6.99157 1.34297 7.80381 1.67242 8.38797 2.20316C8.97281 2.73326 9.33639 3.4696 9.33606 4.27907C9.33641 4.96877 9.07228 5.60618 8.63186 6.10673C8.50221 6.25482 8.39003 6.37768 8.30051 6.48315C8.23327 6.56217 8.17874 6.63123 8.13552 6.69407C8.07069 6.78864 8.03124 6.86673 8.00209 6.96036C7.97362 7.05432 7.95612 7.1688 7.95579 7.33057C7.95579 7.43945 7.94242 7.54553 7.90879 7.64974C7.88374 7.72751 7.84636 7.80466 7.79354 7.8756C7.71567 7.98261 7.60007 8.07252 7.47316 8.12572C7.34658 8.17954 7.21454 8.19915 7.09139 8.19915H5.10639C4.99698 8.19915 4.8807 8.1836 4.76681 8.14223C4.68174 8.11143 4.59874 8.0654 4.52807 8.00628C4.42105 7.91792 4.34593 7.80438 4.30238 7.68866C4.25847 7.57231 4.24201 7.45317 4.24201 7.33061C4.24201 7.18688 4.22794 7.08018 4.20495 6.99276C4.16928 6.86209 4.11714 6.76503 4.01526 6.62908C3.91408 6.49437 3.76109 6.32888 3.56558 6.10677C3.1255 5.60622 2.86172 4.96849 2.86207 4.27911C2.86174 3.4696 3.22534 2.73326 3.81016 2.20316ZM4.28729 5.58533C4.41181 5.72657 4.52397 5.85007 4.62791 5.9717C4.70543 6.06317 4.77848 6.154 4.84537 6.25106C4.94519 6.39602 5.03026 6.55717 5.08514 6.73761C5.14002 6.91805 5.16472 7.11309 5.16472 7.33055C5.16472 7.34237 5.16507 7.35294 5.16575 7.36228H7.03172C7.0324 7.35294 7.0331 7.34269 7.0331 7.33055C7.0331 7.13704 7.05231 6.9616 7.09586 6.79796C7.15966 6.55189 7.28007 6.34159 7.42138 6.15587C7.56372 5.9686 7.72461 5.79749 7.91017 5.58533C8.22574 5.22602 8.41302 4.77433 8.41337 4.27907C8.41302 3.69826 8.15508 3.17625 7.73523 2.79486C7.31504 2.41438 6.73979 2.18012 6.09906 2.18012C5.45833 2.18012 4.88276 2.41438 4.46256 2.79484C4.04307 3.17623 3.78513 3.69824 3.78478 4.27905C3.78513 4.77463 3.97241 5.22632 4.28729 5.58533Z" fill="white"/>
<path d="M6.09893 11.5366C5.71682 11.5366 5.40674 11.2557 5.40674 10.9088H6.79114C6.79112 11.2557 6.48104 11.5366 6.09893 11.5366Z" fill="white"/>
<path d="M4.91268 8.69757H7.28527C7.49175 8.69757 7.65881 8.84906 7.65881 9.03604C7.65881 9.22331 7.49178 9.37482 7.28527 9.37482H4.91268C4.70652 9.37482 4.53913 9.22333 4.53913 9.03604C4.53913 8.84906 4.70652 8.69757 4.91268 8.69757Z" fill="white"/>
<path d="M4.91268 9.79089H7.28527C7.49175 9.79089 7.65881 9.94239 7.65881 10.1297C7.65881 10.3167 7.49178 10.4681 7.28527 10.4681H4.91268C4.70652 10.4681 4.53913 10.3167 4.53913 10.1297C4.53913 9.94239 4.70652 9.79089 4.91268 9.79089Z" fill="white"/>
</svg>
