<svg width="11" height="11" viewBox="0 0 11 10" fill="none" xmlns="http://www.w3.org/2000/svg">
<path fillRule="evenodd" clipRule="evenodd" d="M0.924561 4.87323C0.924561 2.31563 2.99161 0.239899 5.54421 0.239899C8.10144 0.239899 10.1731 2.31563 10.1731 4.87323C10.1731 7.43083 8.10144 9.50657 5.54421 9.50657C2.99161 9.50657 0.924561 7.43083 0.924561 4.87323ZM7.38476 3.01993H8.74892C8.30499 2.25543 7.59748 1.66236 6.74661 1.37046C7.02407 1.88476 7.23678 2.44076 7.38476 3.01993ZM5.54892 1.18508C5.93274 1.74108 6.23331 2.35731 6.43216 3.01988H4.66568C4.86453 2.35731 5.16511 1.74108 5.54892 1.18508ZM1.84942 4.87323C1.84942 5.19293 1.89566 5.50337 1.96965 5.7999H3.53265C3.49566 5.4941 3.46791 5.1883 3.46791 4.87323C3.46791 4.55817 3.49566 4.25237 3.53265 3.94657H1.96965C1.89566 4.2431 1.84942 4.55353 1.84942 4.87323ZM2.3488 6.72657H3.71296C3.86093 7.30573 4.07365 7.86173 4.35111 8.37603C3.50024 8.08413 2.79273 7.4957 2.3488 6.72657ZM2.3488 3.01993H3.71296C3.86093 2.44076 4.07365 1.88476 4.35111 1.37046C3.50024 1.66236 2.79273 2.2508 2.3488 3.01993ZM5.54892 8.56137C5.16511 8.00537 4.86453 7.38913 4.66568 6.72657H6.43216C6.23331 7.38913 5.93274 8.00537 5.54892 8.56137ZM4.46676 5.7999H6.63092C6.67254 5.4941 6.70491 5.1883 6.70491 4.87323C6.70491 4.55817 6.67254 4.24773 6.63092 3.94657H4.46676C4.42514 4.24773 4.39277 4.55817 4.39277 4.87323C4.39277 5.1883 4.42514 5.4941 4.46676 5.7999ZM6.74661 8.37603C7.02407 7.86173 7.23678 7.30573 7.38476 6.72657H8.74892C8.30499 7.49107 7.59748 8.08413 6.74661 8.37603ZM7.62984 4.87323C7.62984 5.1883 7.60209 5.4941 7.5651 5.7999H9.1281C9.20209 5.50337 9.24833 5.19293 9.24833 4.87323C9.24833 4.55353 9.20209 4.2431 9.1281 3.94657H7.5651C7.60209 4.25237 7.62984 4.55817 7.62984 4.87323Z" fill="white"/>
</svg>
