<svg width="134" height="183" viewBox="0 0 134 183" fill="none" xmlns="http://www.w3.org/2000/svg">
<g style="mix-blend-mode:multiply">
<path d="M122.553 163.444C118.304 165.127 113.245 165.987 107.929 165.927C99.8315 165.84 92.2025 163.609 87.5765 159.957C85.5733 158.377 83.2779 155.859 83.7039 152.845C84.1581 149.734 87.499 146.664 92.6285 144.631C96.8777 142.945 101.937 142.085 107.253 142.145C115.35 142.232 122.979 144.466 127.605 148.115C129.608 149.695 131.904 152.21 131.46 155.226C131.023 158.338 127.686 161.408 122.553 163.444Z" fill="#EEF1F5"/>
</g>
<path d="M133.724 126.246L132.316 119.352C132.27 119.132 132.168 118.926 132.021 118.756C131.874 118.585 131.686 118.454 131.474 118.376C131.302 118.313 131.122 118.267 130.957 118.221C130.008 118.07 129.043 118.059 128.091 118.186C127.443 118.253 126.824 118.351 126.306 118.443C126.237 118.414 126.165 118.394 126.091 118.383C122.219 118.256 113.924 116.37 111.706 116.532C111.706 116.532 114.681 92.0292 110.576 87.5691C107.971 84.7349 95.2726 85.6726 95.2726 85.6726C95.2816 87.4272 95.4656 89.1766 95.8218 90.8949C94.822 90.6104 93.1462 89.9466 92.9667 90.1012C92.7871 90.2557 92.1746 89.1003 91.9352 89.5849C86.9501 99.7906 84.3343 119.788 84.2217 121.744C83.8696 127.932 86.8374 148.863 86.9818 149.839C86.1107 151.626 84.992 153.281 83.6584 154.756C83.074 155.409 82.3804 156.087 81.7327 156.691C81.3419 157.042 80.9722 157.393 80.6518 157.664C80.5955 157.71 80.5462 157.755 80.4969 157.801L80.3491 157.931C80.3033 157.973 80.2611 158.015 80.2153 158.05L80.0569 158.191C80.019 158.228 79.979 158.263 79.9372 158.296L79.8245 158.405C79.7665 158.46 79.7123 158.518 79.6626 158.58C78.9866 159.634 79.7612 160.589 80.7751 160.895C80.9659 160.955 81.1614 161 81.3595 161.028L81.5179 161.053C81.7007 161.081 81.8856 161.094 82.0706 161.092C82.135 161.099 82.1999 161.099 82.2643 161.092C82.3639 161.097 82.4638 161.097 82.5635 161.092C82.808 161.075 83.0513 161.044 83.2922 161C84.1327 160.829 84.9353 160.507 85.6616 160.052L92.0161 156.21C92.218 156.087 92.3855 155.914 92.503 155.709C92.6205 155.504 92.6844 155.273 92.6886 155.037C92.6886 154.844 92.6886 154.658 92.6604 154.468C92.4698 153.477 92.1391 152.518 91.6782 151.62C91.4458 151.135 91.1994 150.675 90.9741 150.264C93.7905 133.256 93.0265 123.11 93.0265 123.11C94.4946 117.519 97.9764 112.202 100.705 101.301H101.648C101.676 109.059 103.676 123.865 105.767 124.128C110.612 124.729 121.849 123.753 125.834 122.674C126.789 123.806 127.63 125.028 128.345 126.323C128.742 127.05 129.13 127.886 129.464 128.659C129.661 129.119 129.841 129.554 129.992 129.934C130.013 129.997 130.041 130.057 130.066 130.113C130.091 130.169 130.115 130.232 130.136 130.288C130.158 130.345 130.182 130.394 130.2 130.446C130.217 130.499 130.253 130.573 130.274 130.632C130.295 130.692 130.316 130.731 130.33 130.769C130.344 130.808 130.376 130.864 130.393 130.906C130.425 130.975 130.46 131.042 130.499 131.107C131.203 132.044 132.333 131.661 132.928 130.854C133.044 130.702 133.148 130.541 133.238 130.373L133.308 130.243C133.391 130.088 133.462 129.927 133.52 129.762C133.544 129.706 133.566 129.648 133.583 129.589C133.615 129.502 133.643 129.41 133.668 129.319C133.731 129.095 133.781 128.867 133.819 128.638C133.929 127.841 133.897 127.031 133.724 126.246Z" fill="#FEC7C4"/>
<path d="M91.1962 55.5365C92.3404 50.4758 96.3855 47.3993 100.237 48.6706C100.645 48.8006 102.761 37.5588 102.761 37.5588C108.003 35.1321 116.122 40.846 116.139 47.1605C118.744 48.5653 120.434 52.1264 120.061 55.9193C119.922 57.5213 119.357 59.0573 118.424 60.3689C120.427 64.9941 119.079 69.7247 115.322 71.0101C113.942 71.4609 112.451 71.4511 111.077 70.982C108.398 70.1742 105.845 67.9371 104.423 64.8782C104.205 64.3927 104.02 63.8929 103.87 63.3821C102.082 66.4235 99.0329 67.9863 96.1038 67.003C94.7326 66.5243 93.5549 65.6132 92.7488 64.4076C91.1047 62.153 90.4428 58.8166 91.1962 55.5365Z" fill="#343C6B"/>
<path d="M84.0322 29.3161L84.1766 32.4031C84.1968 32.8213 84.1492 33.2398 84.0357 33.6428L83.8104 34.433C83.5605 35.3075 83.9372 38.4717 84.1836 39.3497H80.7968C80.3814 38.3594 79.2337 34.433 78.9239 33.3233L77.3573 28.1958C77.3111 28.0617 77.32 27.9148 77.382 27.7872C77.444 27.6595 77.5541 27.5615 77.6882 27.5145C77.7603 27.4828 77.8382 27.4664 77.917 27.4664C77.9958 27.4664 78.0738 27.4828 78.1459 27.5145C78.2409 26.7594 78.4768 26.2186 78.8993 26.0079C80.4413 25.2458 82.374 30.9246 82.374 30.9246C82.374 30.9246 82.5395 29.6111 82.5642 29.1686C82.5697 28.972 82.6425 28.7832 82.7707 28.6336C82.8988 28.4841 83.0744 28.3829 83.2683 28.3468C83.9935 28.2626 84.0885 28.9649 84.0322 29.3161Z" fill="#FEC7C4"/>
<path d="M87.8694 46.6063C88.1475 49.5703 89.6931 52.3448 92.2384 53.8971C93.8438 54.8628 95.6322 55.8075 96.8855 56.1271C99.6491 56.8295 99.0788 61.9991 99.5717 62.8244L94.4247 66.8667L84.6305 58.0868C83.6298 56.7305 82.8295 55.238 82.2542 53.6547C80.3812 48.6186 77.167 38.5534 77.167 38.5534C80.4305 41.089 84.4123 34.7745 86.7781 35.0415L87.8694 46.6063Z" fill="#4A3572"/>
<path d="M92.0214 156.361L85.6845 160.168C84.9557 160.607 82.9244 161.633 80.7205 161.095C79.6925 160.846 78.5554 159.733 79.2349 158.69C79.2349 158.69 81.3225 157.064 81.6992 156.705C81.7344 156.705 82.1217 157.014 82.5406 157.334C83.1849 157.826 83.9911 157.685 84.7304 157.355C89.0431 155.395 91.9686 153.843 91.6447 151.624C94.0141 155.322 92.4333 156.098 92.0214 156.361Z" fill="#371D3E"/>
<path d="M132.444 119.377L133.852 126.232C134.018 127.022 134.285 129.164 133.102 130.959C132.55 131.795 131.187 132.455 130.469 131.517C130.469 131.517 129.677 129.133 129.48 128.673C129.508 128.645 129.892 128.392 130.311 128.121C130.958 127.703 131.096 126.941 131.032 126.176C130.648 121.698 130.18 118.59 128.1 118.172C132.145 117.266 132.352 118.927 132.444 119.377Z" fill="#371D3E"/>
<path d="M122.04 23.605L121.367 26.6217C121.276 27.0307 121.251 27.4516 121.293 27.8685L121.381 28.6867C121.477 29.5905 121.321 30.503 120.931 31.3242L115.365 48.0692C115.109 48.6805 114.815 49.2752 114.485 49.8497C112.974 52.452 111.316 60.4277 110.151 62.6086C109.859 63.1565 107.25 63.6165 107.806 63.8975L112.013 66.0046C112.145 66.0712 112.289 66.1107 112.437 66.1207C112.584 66.1307 112.733 66.1111 112.872 66.0629C113.012 66.0148 113.141 65.9391 113.251 65.8404C113.361 65.7417 113.45 65.622 113.513 65.4884L120.096 51.7707C120.324 51.2943 120.522 50.804 120.688 50.3028L124.754 31.3383C125.357 30.3915 125.902 29.4086 126.384 28.3953L128.806 23.6085C128.874 23.4844 128.891 23.3385 128.852 23.2024C128.813 23.0663 128.722 22.951 128.598 22.8815C128.531 22.8394 128.457 22.8115 128.379 22.7994C128.3 22.7873 128.221 22.7913 128.144 22.8113C128.179 22.0527 128.039 21.4803 127.662 21.2028C126.271 20.1844 123.395 25.4593 123.395 25.4593C123.395 25.4593 123.458 24.1388 123.508 23.7033C123.534 23.5069 123.493 23.3073 123.391 23.1374C123.288 22.9676 123.131 22.8377 122.944 22.7691C122.254 22.583 122.043 23.2503 122.04 23.605Z" fill="#FEC7C4"/>
<path d="M126.95 35.6133L121.264 51.0904C121.013 52.3264 120.623 53.5303 120.103 54.6796C118.589 58.0475 115.23 63.9897 115.23 63.9897C113.325 68.1697 112.187 72.6563 111.868 77.2368C111.822 78.048 115.723 114.815 115.723 114.815C113.54 124.648 82.4399 120.595 82.7286 117.115C84.4642 94.9897 91.4384 88.6331 92.5684 78.4519C92.7445 76.8786 92.3924 73.335 91.5334 72.0321C90.9894 71.2391 90.6806 70.3091 90.6427 69.349C90.6258 68.7913 90.6898 68.2342 90.8328 67.6949C91.0722 66.9644 91.9312 64.4393 92.6177 62.5323C93.1377 60.9675 93.8098 59.4572 94.6244 58.023C95.0689 57.1808 95.7489 56.4854 96.5818 56.0212C96.6912 56.0638 96.8028 56.1001 96.9163 56.13C97.3594 56.2711 97.8208 56.3468 98.2858 56.3548C98.747 56.3548 99.1131 56.26 99.2575 56.0036C99.5426 56.1125 101.518 55.0167 101.806 55.1291L106.073 57.3065C106.561 57.5672 107.112 57.6887 107.664 57.6577C108.216 57.6437 108.754 57.4888 109.228 57.2078C109.702 56.9268 110.096 56.5291 110.372 56.0528C111.199 54.648 112.442 52.5127 113.287 51.0342C113.894 49.9841 114.385 48.8713 114.751 47.7154L117.413 31.5254C119.434 33.8362 124.785 32.2629 126.95 35.6133Z" fill="#6B5096"/>
<path d="M107.76 57.7103C107.827 59.0764 106.933 59.9193 106.471 60.3793C105.454 61.3662 99.3389 66.7324 99.0783 66.9713L94.4453 71.0381L95.1142 64.9238C95.2726 63.4628 95.8183 58.9535 96.9308 56.5197L96.9132 56.1369C97.3563 56.278 97.8177 56.3537 98.2827 56.3617C98.7439 56.3617 99.11 56.2669 99.2544 56.0105C99.5395 56.1194 101.515 55.0236 101.803 55.136L106.07 57.3134C106.558 57.5741 107.109 57.6956 107.661 57.6646C107.665 57.7103 107.76 57.7103 107.76 57.7103Z" fill="#FFE579"/>
<path d="M98.9841 48.7759L99.3362 57.0465C98.1814 58.8025 97.4844 65.1837 97.4844 65.1837C97.4844 65.1837 103.804 59.6243 104.797 58.669C105.149 58.3424 105.374 58.1036 105.363 57.8122L104.973 48.6108L98.9841 48.7759Z" fill="#FEC7C4"/>
<path d="M99.002 49.1769L99.2801 55.537C99.3009 55.8032 99.3866 56.0602 99.5296 56.2858C99.6726 56.5114 99.8686 56.6988 100.101 56.8317C100.333 56.9646 100.594 57.0389 100.861 57.0483C101.129 57.0577 101.394 57.0019 101.635 56.8856C102.757 56.3238 103.752 55.5386 104.557 54.5783C104.982 54.0803 105.201 53.4401 105.17 52.7872L105.001 49.0083L99.002 49.1769Z" fill="#EF9B9B"/>
<path d="M95.3475 51.8143C96.5268 56.415 99.7939 56.7732 102.793 55.3052C106.134 53.6651 108.074 49.8301 108.159 47.0591C108.296 42.8448 105.377 40.1547 101.674 40.0037C93.2316 39.663 94.9426 50.2234 95.3475 51.8143Z" fill="#FEC7C4"/>
<path d="M107.744 39.4171C103.893 36.5267 98.0591 37.1905 95.8728 39.6278C95.1125 40.6215 94.6284 41.7978 94.4696 43.0378C94.3107 44.2779 94.4827 45.5377 94.968 46.6903C95.0592 45.7376 95.2455 44.7964 95.5243 43.8807C95.9873 44.1758 96.5153 44.3542 97.0628 44.4005C99.9637 44.8044 105.051 43.9264 104.762 49.1873C104.762 49.1873 105.392 49.7878 105.861 49.1873C106.287 48.6289 107.223 48.5867 107.371 48.973C107.765 49.988 105.804 52.9767 105.804 52.9767C111.842 50.2479 111.015 41.8614 107.744 39.4171Z" fill="#343C6B"/>
<path d="M104.638 49.3353C103.863 50.3046 103.782 51.4811 104.455 51.9622C105.127 52.4433 106.296 52.05 107.07 51.0807C107.845 50.1114 107.922 48.9349 107.25 48.4538C106.577 47.9726 105.409 48.366 104.638 49.3353Z" fill="#FEC7C4"/>
<path d="M105.246 12.4044L101.349 19.0771C100.145 21.1421 95.8002 20.8647 91.6425 18.452C87.4847 16.0393 85.0908 12.4149 86.2913 10.3499L90.1885 3.67725L105.246 12.4044Z" fill="#371D3E"/>
<path d="M90.1575 3.72668C88.957 5.79171 91.3509 9.41954 95.5087 11.8287C99.6664 14.2379 104.011 14.5189 105.215 12.4539C106.419 10.3889 104.021 6.76099 99.8636 4.3518C95.7058 1.94261 91.3615 1.66166 90.1575 3.72668Z" fill="#E2E9FB"/>
<path d="M86.1074 1.30654L86.5405 0.562012L94.2539 13.9811L109.762 14.0233L109.325 14.7678L93.8209 14.7257L86.1074 1.30654Z" fill="#4A3572"/>
<path d="M86.542 0.562012L102.046 0.607669L109.763 14.0233L94.2555 13.9811L86.542 0.562012Z" fill="#6B5096"/>
<path d="M98.5847 24.8272L99.5563 21.2485C99.8784 21.1452 100.151 20.9278 100.324 20.6374C100.468 20.3874 100.531 20.0993 100.505 19.8122C100.479 19.5251 100.366 19.2529 100.179 19.0325L102.676 14.7443C102.808 14.518 102.874 14.2592 102.866 13.9973C102.859 13.7354 102.778 13.4808 102.633 13.2623L98.5142 7.0532C98.4846 7.00127 98.4446 6.95596 98.3967 6.92011C98.3488 6.88426 98.294 6.85863 98.2357 6.84481C98.1775 6.83099 98.117 6.82929 98.058 6.8398C97.9991 6.8503 97.9429 6.87279 97.893 6.90588C97.8432 6.93897 97.8007 6.98193 97.7681 7.03211C97.7356 7.08229 97.7138 7.1386 97.7041 7.19755C97.6943 7.2565 97.6968 7.31681 97.7114 7.37475C97.726 7.43269 97.7525 7.48702 97.789 7.53434L101.905 13.7399C101.961 13.8236 101.992 13.9213 101.995 14.0219C101.998 14.1225 101.973 14.2219 101.922 14.3089L99.4331 18.5794C99.2038 18.5155 98.9618 18.5122 98.7308 18.5698C98.4999 18.6274 98.2879 18.7439 98.1157 18.9079C97.9435 19.0719 97.817 19.2777 97.7486 19.5052C97.6802 19.7327 97.6723 19.974 97.7257 20.2054L95.1592 22.8394C95.5558 23.3945 96.0665 23.8588 96.6571 24.2016C97.2478 24.5443 97.9049 24.7576 98.5847 24.8272Z" fill="#FFC660"/>
<g style="mix-blend-mode:multiply">
<path d="M50.4935 180.268C46.2442 181.95 41.1887 182.811 35.8727 182.751C27.7543 182.663 20.1465 180.433 15.517 176.781C13.5173 175.204 11.2184 172.686 11.662 169.673C12.1197 166.561 15.4571 163.492 20.5901 161.458C24.8393 159.772 29.8948 158.912 35.2108 158.972C43.3292 159.059 50.9371 161.293 55.563 164.942C57.5662 166.522 59.8616 169.037 59.418 172.054C58.9639 175.162 55.6264 178.231 50.4935 180.268Z" fill="#EEF1F5"/>
</g>
<path d="M36.9878 13.3994L41.8778 19.3978C43.3881 21.2486 41.5891 25.2066 37.8609 28.2338C34.1326 31.2611 29.8798 32.2129 28.3555 30.3586L23.4619 24.3602L36.9878 13.3994Z" fill="#371D3E"/>
<path d="M23.515 24.4052C25.0253 26.2595 29.2746 25.3078 33.0204 22.2981C36.7663 19.2883 38.5512 15.3128 37.0409 13.462C35.5306 11.6112 31.2813 12.5595 27.5354 15.5692C23.7896 18.5789 22.0047 22.5544 23.515 24.4052Z" fill="#E2E9FB"/>
<path d="M19.8142 27.3311L19.2686 26.6638L34.5794 24.209L40.1031 9.75732L40.6488 10.4246L35.125 24.8798L19.8142 27.3311Z" fill="#4A3572"/>
<path d="M19.2686 26.6638L24.7958 12.2087L40.1031 9.75732L34.5794 24.209L19.2686 26.6638Z" fill="#6B5096"/>
<path d="M46.2837 24.0047L43.2701 21.8343C43.2827 21.6062 43.2382 21.3785 43.1405 21.1717C43.0429 20.965 42.8952 20.7858 42.7107 20.6502C42.5263 20.5147 42.3109 20.427 42.0841 20.3953C41.8572 20.3635 41.626 20.3886 41.4113 20.4682L38.2745 16.6051C38.1087 16.401 37.8888 16.2474 37.6399 16.1618C37.391 16.0761 37.1229 16.0618 36.8663 16.1204L29.5893 17.7675C29.5327 17.7802 29.4791 17.8039 29.4317 17.8372C29.3842 17.8706 29.3438 17.9129 29.3127 17.9618C29.2817 18.0107 29.2606 18.0653 29.2507 18.1223C29.2407 18.1794 29.2422 18.2378 29.2549 18.2943C29.2676 18.3508 29.2913 18.4042 29.3248 18.4516C29.3582 18.4989 29.4006 18.5393 29.4496 18.5702C29.4987 18.6012 29.5534 18.6222 29.6105 18.6321C29.6677 18.642 29.7263 18.6406 29.783 18.6279L37.0599 16.9809C37.1581 16.9581 37.2608 16.9635 37.3561 16.9964C37.4514 17.0293 37.5355 17.0884 37.5985 17.167L40.7248 20.9985C40.5843 21.19 40.4961 21.4146 40.4685 21.6503C40.441 21.886 40.4752 22.1248 40.5677 22.3434C40.6603 22.562 40.8081 22.7529 40.9966 22.8976C41.1852 23.0423 41.4081 23.1358 41.6436 23.1689L43.2068 26.4982C43.8664 26.3203 44.4812 26.0061 45.0113 25.5759C45.5413 25.1458 45.9748 24.6093 46.2837 24.0012V24.0047Z" fill="#FFC660"/>
<path d="M52.9961 167.72C52.9961 167.72 50.5317 166.491 50.0705 166.2C49.2995 165.715 48.4475 165.146 47.7329 164.612C46.075 163.378 44.6005 161.915 43.3533 160.268C43.3533 160.103 43.3111 159.453 43.2477 158.442L38.583 159.313C38.8435 160.015 39.1041 160.753 39.3892 161.504C39.2449 161.968 39.0759 162.491 38.9456 163.021C37.3086 167.236 39.0724 167.738 39.5441 167.91L46.7436 170.519C47.5709 170.821 49.8452 171.454 51.9786 170.467C52.9609 170.007 53.8938 168.648 52.9961 167.72Z" fill="#4A3572"/>
<path d="M29.8479 174.66C29.8479 174.66 27.644 172.637 27.2427 172.201C26.5843 171.46 25.8556 170.628 25.2747 169.838C23.9116 168.05 22.8082 166.079 21.9971 163.984C22.0323 163.808 22.1978 163.12 22.4336 162.041L17.2761 161.553C17.3324 162.386 17.3887 163.218 17.4591 164.089C17.1704 164.531 16.836 165.03 16.5403 165.543C13.5584 169.48 15.2588 170.519 15.6989 170.839L22.4477 175.72C23.2258 176.282 25.4155 177.627 27.9433 177.234C29.1227 177.041 30.5097 175.9 29.8479 174.66Z" fill="#4A3572"/>
<path d="M46.402 131.694C46.2894 129.741 43.6454 109.456 38.5829 99.1138C38.3435 98.6221 18.4877 115.139 18.4877 115.139C18.5581 126.377 21.0471 130.735 21.1246 136.562C21.1246 136.562 20.7268 137.77 20.1494 140.102C19.1461 144.172 16.2275 164.71 16.2275 164.71C17.4844 166.466 21.6421 167.547 23.5608 166.561C23.5608 166.561 30.3026 142.859 31.3341 137.411C31.5454 136.277 32.4361 128.719 32.6262 120.407C34.5942 125.675 35.946 129.106 36.9318 132.881C36.9318 132.881 36.8367 134.149 36.8367 136.548C36.8367 140.744 38.2802 161.791 38.2802 161.791C39.9207 163.196 44.2193 163.252 45.8458 161.837C45.8458 161.844 46.7048 137.222 46.402 131.694Z" fill="#371D3E"/>
<path d="M27.25 57.5826C28.7674 59.3877 29.0948 61.6037 27.9823 62.5344C26.8698 63.4651 25.1659 62.7627 23.2226 60.954C22.0676 59.8158 21.2658 58.3698 20.9131 56.7889C20.9131 56.7889 25.7327 55.7809 27.25 57.5826Z" fill="#6B5096"/>
<path d="M46.5356 37.1991L46.3772 40.5846C46.3527 41.0442 46.4051 41.5047 46.5321 41.9472L46.7785 42.8111C47.0531 43.7734 46.6377 47.2432 46.3701 48.202H50.0808C50.5384 47.1168 51.7988 42.7936 52.1368 41.5925L53.8513 35.9734C53.9034 35.8276 53.8957 35.6672 53.8297 35.527C53.7638 35.3869 53.645 35.2785 53.4992 35.2254C53.4196 35.1916 53.334 35.1743 53.2475 35.1743C53.161 35.1743 53.0754 35.1916 52.9958 35.2254C52.8901 34.4001 52.6437 33.8206 52.1684 33.5782C50.4786 32.7389 48.3627 38.9726 48.3627 38.9726C48.3627 38.9726 48.1797 37.5362 48.1515 37.0551C48.1445 36.8372 48.0627 36.6283 47.9198 36.4634C47.7769 36.2985 47.5815 36.1875 47.3664 36.149C46.5778 36.0577 46.4722 36.8163 46.5356 37.1991Z" fill="#FEC7C4"/>
<path d="M41.7058 58.0032C41.4206 61.0094 34.8302 64.8936 33.5593 65.2167C30.7604 65.9191 31.3343 71.187 30.8379 72.0053L36.0518 76.1002L44.5891 69.1395C46.6126 67.5135 48.1686 65.3822 49.0989 62.962C51.0105 57.8135 53.5418 46.3119 53.5418 46.3119C50.236 48.8791 46.2015 42.4804 43.804 42.7578L41.7058 58.0032Z" fill="#4A3572"/>
<path d="M12.0277 48.5058L7.13416 51.0554L4.72964 39.8524C4.03977 38.7612 3.4144 37.6308 2.85671 36.4669L0.0614103 30.9566C0.00862075 30.843 -0.0107151 30.7168 0.00565796 30.5927C0.0220311 30.4686 0.0734387 30.3517 0.153885 30.2556C0.234331 30.1596 0.340501 30.0883 0.460014 30.0501C0.579527 30.0119 0.707457 30.0084 0.828887 30.04C0.776079 29.1726 0.948583 28.5088 1.38865 28.1857C2.97641 27.0127 6.28219 33.1024 6.28219 33.1024C6.28219 33.1024 6.2153 31.5887 6.16249 31.076C6.13537 30.8532 6.18463 30.6279 6.30225 30.4366C6.41986 30.2453 6.59892 30.0993 6.81027 30.0224C7.59535 29.7696 7.86643 30.5492 7.86643 30.9601L8.63039 34.4264C8.74417 34.8939 8.77397 35.3779 8.7184 35.8558L8.61631 36.7899C8.50663 37.8341 8.68943 38.8881 9.14439 39.8348L12.0277 48.5058Z" fill="#FEC7C4"/>
<path d="M46.4655 121.917C47.0429 125.407 17.1677 131.497 17.1677 120.972C17.1677 120.972 18.4139 87.4259 18.3682 86.6041C18.0426 81.9676 16.8884 77.4266 14.9603 73.1955C14.9603 73.1955 10.4117 66.2559 8.62332 62.9546C6.29625 58.7052 1.84277 43.8286 1.84277 43.8286C4.03959 40.4326 10.704 41.4967 12.7564 39.1753L15.4532 56.735C15.8222 57.9078 16.3205 59.0362 16.9388 60.0994C17.7943 61.599 19.0511 63.7729 19.8925 65.1882C20.4734 66.1716 21.3606 66.01 22.4238 66.0241H22.5365C23.3013 66.0605 24.0656 65.941 24.7826 65.6729L28.5742 64.2681C28.8629 64.1557 30.866 65.2655 31.1547 65.1531C31.3026 65.3954 31.6722 65.5043 32.1405 65.5043C32.6116 65.4966 33.0789 65.4196 33.5276 65.276C33.6402 65.2444 34.6893 64.7141 34.802 64.6649C42.1951 67.1022 41.5931 77.6592 42.1951 83.5768C43.6843 98.19 43.0717 101.312 46.4655 121.917Z" fill="#6B5096"/>
<path d="M36.0239 80.3288L31.3275 76.2058C31.0669 75.9635 24.8708 70.5235 23.8393 69.5331C23.6437 69.2931 23.4804 69.0286 23.3535 68.7464C22.9369 67.8722 22.6227 66.9531 22.417 66.0071H22.5296C23.2945 66.0436 24.0588 65.9241 24.7757 65.6559L28.5674 64.2512C28.856 64.1388 30.8592 65.2486 31.1479 65.1362C31.2958 65.3785 31.6654 65.4874 32.1337 65.4874C32.6048 65.4796 33.0721 65.4027 33.5208 65.2591V65.6454C34.6332 68.1038 35.2 72.6693 35.3585 74.1654L36.0239 80.3288Z" fill="#FFE579"/>
<path d="M31.4363 57.7682L31.0843 66.1512C32.2566 67.9282 32.9607 74.3973 32.9607 74.3973C32.9607 74.3973 26.5569 68.7606 25.5676 67.7948C25.2156 67.4647 24.9797 67.2224 24.9938 66.9274C24.9762 66.9274 25.3881 57.5996 25.3881 57.5996L31.4363 57.7682Z" fill="#FEC7C4"/>
<path d="M31.4196 58.1715L31.1345 64.6194C31.1124 64.8888 31.0251 65.1488 30.88 65.377C30.7349 65.6052 30.5364 65.7948 30.3016 65.9296C30.0668 66.0643 29.8026 66.1401 29.5319 66.1505C29.2612 66.1609 28.992 66.1055 28.7476 65.9891C27.6105 65.4183 26.6028 64.6211 25.7868 63.6466C25.3564 63.142 25.1348 62.4928 25.1672 61.831L25.3362 58.0029L31.4196 58.1715Z" fill="#EF9B9B"/>
<path d="M35.1192 60.8481C33.9257 65.5084 30.6129 65.8737 27.5747 64.3846C24.1879 62.7235 22.227 58.8392 22.1355 56.0297C21.9982 51.7486 24.9519 49.0304 28.7083 48.8794C37.2632 48.5317 35.5311 59.2326 35.1192 60.8481Z" fill="#FEC7C4"/>
<path d="M20.6772 53.1774C21.0292 49.388 25.5531 45.8304 31.0416 47.2071C33.932 47.9411 36.4738 48.3661 36.9104 50.4767C37.0699 51.2813 37.0093 52.1138 36.7349 52.8869C36.4605 53.66 35.9823 54.3451 35.3508 54.8701L35.2663 54.5189C35.1829 54.2109 34.9902 53.9436 34.7241 53.7666C34.4579 53.5896 34.1364 53.515 33.8193 53.5567C32.4111 53.6761 30.4361 53.5813 28.9152 54.2591C28.5626 54.4102 28.1765 54.4663 27.7953 54.422C27.4141 54.3776 27.0513 54.2342 26.7431 54.0062L25.5003 53.1142L26.817 54.6067C26.9978 54.8132 27.1171 55.0661 27.1613 55.3367C27.2055 55.6074 27.1728 55.8849 27.0669 56.138C27.024 56.2529 26.9876 56.3702 26.9578 56.4892C26.8489 56.8318 26.7769 57.185 26.7431 57.5428C26.7283 57.7111 26.6758 57.874 26.5895 58.0194C26.5031 58.1648 26.3851 58.2889 26.2441 58.3827C26.1032 58.4764 25.9429 58.5373 25.7751 58.5609C25.6074 58.5845 25.4365 58.5702 25.275 58.519C24.8918 58.4254 24.5406 58.2314 24.2576 57.9571C23.7893 57.3671 23.0324 57.2548 22.9514 57.6902C22.7402 58.8422 22.7578 59.4462 22.8529 59.7588C22.1374 59.2298 21.579 58.5174 21.2369 57.6973C20.7758 56.6893 20.4976 55.2108 20.6772 53.1774Z" fill="#6B5096"/>
<path d="M25.2405 57.4199C26.0256 58.4033 26.1066 59.5938 25.4236 60.082C24.7406 60.5702 23.5577 60.1698 22.7762 59.1864C21.9946 58.2031 21.9101 57.0126 22.5931 56.5244C23.2761 56.0362 24.459 56.4366 25.2405 57.4199Z" fill="#FEC7C4"/>
</svg>
