<svg width="335" height="190" viewBox="0 0 335 190" fill="none" xmlns="http://www.w3.org/2000/svg">
  <rect width="335" height="190" rx="4" fill="white"/>
  <path d="M148.178 78.0913L135.557 70.7357C135.382 70.6303 135.182 70.5705 134.978 70.5617C134.773 70.5529 134.57 70.5954 134.386 70.6853C134.202 70.7745 134.042 70.9071 133.921 71.0717C133.8 71.2362 133.721 71.4278 133.69 71.6299L130.296 100.441C130.249 100.769 130.334 101.101 130.531 101.367C130.727 101.633 131.021 101.81 131.347 101.861C131.509 101.888 131.675 101.881 131.834 101.841C131.993 101.802 132.142 101.731 132.273 101.632C132.407 101.534 132.519 101.411 132.604 101.27C132.689 101.128 132.745 100.97 132.767 100.807L135.891 73.8215L146.389 79.9427L149.894 112.108C149.936 112.407 150.084 112.68 150.311 112.879C150.538 113.078 150.829 113.189 151.131 113.191H151.298C151.626 113.145 151.923 112.971 152.124 112.708C152.325 112.444 152.414 112.112 152.372 111.783L148.785 79.0139C148.761 78.824 148.693 78.6423 148.588 78.4824C148.483 78.3225 148.342 78.1887 148.178 78.0913Z" fill="#371D3E"/>
  <path d="M174.312 64.8099C174.286 64.6214 174.217 64.4413 174.112 64.2832C174.006 64.125 173.865 63.9929 173.701 63.8967L161.084 56.538C160.907 56.4366 160.708 56.3796 160.505 56.372C160.301 56.3644 160.098 56.4063 159.914 56.4943C159.73 56.5823 159.57 56.7136 159.448 56.8769C159.326 57.0403 159.246 57.2309 159.214 57.4323L155.822 86.2469C155.777 86.5737 155.862 86.9053 156.059 87.1703C156.255 87.4353 156.548 87.6125 156.874 87.6638C157.036 87.6903 157.201 87.6839 157.36 87.645C157.519 87.606 157.669 87.5353 157.8 87.4371C158.067 87.2383 158.245 86.9417 158.294 86.6121L161.418 59.627L171.913 65.7451L175.43 97.9131C175.472 98.212 175.62 98.4858 175.848 98.6846C176.075 98.8834 176.366 98.994 176.667 98.9963H176.834C177.162 98.9501 177.459 98.7765 177.66 98.513C177.861 98.2496 177.95 97.9175 177.908 97.5888L174.312 64.8099Z" fill="#371D3E"/>
  <path d="M153.341 48.647L147.377 31.3538C147.29 31.0659 147.16 30.7931 146.99 30.5446L147.469 30.129L145.614 29.389C145.18 29.2113 144.711 29.1345 144.243 29.1645C143.775 29.1945 143.32 29.3305 142.913 29.5622L123.821 40.5326C123.037 40.9874 122.427 41.6896 122.085 42.529C121.743 43.3684 121.689 44.2975 121.932 45.1707L127.764 62.53C127.884 62.9582 128.098 63.3545 128.389 63.6908C128.68 64.0271 129.042 64.2952 129.448 64.4759C129.543 64.5232 129.577 64.5358 129.615 64.5515L131.634 65.3576L131.744 64.5641C131.914 64.5084 132.08 64.4378 132.238 64.3531L151.446 53.3324C152.241 52.8763 152.859 52.1667 153.203 51.3172C153.547 50.4677 153.595 49.5274 153.341 48.647Z" fill="#2190F4"/>
  <path d="M153.212 54.0876L134.005 65.1084C133.601 65.3411 133.15 65.4786 132.685 65.5105C132.22 65.5423 131.754 65.4676 131.323 65.292C130.891 65.1165 130.505 64.8448 130.195 64.4975C129.884 64.1503 129.657 63.7367 129.53 63.2884L123.686 45.9354C123.443 45.0622 123.497 44.1331 123.839 43.2937C124.18 42.4543 124.791 41.7521 125.575 41.2972L144.663 30.3174C145.065 30.0855 145.513 29.9479 145.976 29.915C146.438 29.882 146.901 29.9546 147.332 30.1271C147.762 30.2997 148.147 30.5678 148.458 30.9112C148.769 31.2545 148.999 31.6641 149.128 32.1091L155.092 49.4022C155.348 50.2809 155.301 51.2199 154.96 52.0692C154.62 52.9185 154.004 53.6291 153.212 54.0876Z" fill="#50B1F9"/>
  <path d="M176.689 67.3568V65.307L175.745 65.2534C175.503 64.9964 175.225 64.7758 174.92 64.5985L160.199 56.0967C159.118 55.4754 157.894 55.1484 156.647 55.1484C155.401 55.1484 154.176 55.4754 153.095 56.0967L132.675 67.7882C132.202 68.0581 131.798 68.4343 131.495 68.8871L130.9 68.7518L130.884 70.874C130.882 71.5004 131.046 72.1161 131.359 72.6586C131.672 73.2012 132.123 73.6512 132.666 73.963L147.383 82.4647C148.464 83.0866 149.69 83.4139 150.937 83.4139C152.184 83.4139 153.409 83.0866 154.49 82.4647L174.907 70.7575C175.5 70.4228 175.984 69.9237 176.3 69.3204C176.617 68.717 176.752 68.0351 176.689 67.3568Z" fill="#2190F4"/>
  <path d="M174.917 62.3036L160.196 53.8018C159.116 53.1805 157.891 52.8535 156.645 52.8535C155.398 52.8535 154.173 53.1805 153.093 53.8018L132.676 65.509C132.133 65.8212 131.682 66.2709 131.368 66.813C131.055 67.355 130.89 67.9702 130.89 68.5964C130.89 69.2226 131.055 69.8378 131.368 70.3799C131.682 70.9219 132.133 71.3717 132.676 71.6838L147.393 80.1856C148.474 80.8075 149.7 81.1348 150.947 81.1348C152.194 81.1348 153.419 80.8075 154.5 80.1856L174.917 68.4783C175.461 68.1669 175.912 67.7173 176.227 67.1752C176.541 66.6331 176.706 66.0176 176.706 65.391C176.706 64.7644 176.541 64.1489 176.227 63.6067C175.912 63.0646 175.461 62.6151 174.917 62.3036Z" fill="#50B1F9"/>
  <path d="M156.654 27.8552C156.483 26.7406 156.14 25.6592 155.637 24.6497C155.829 23.3975 155.829 22.1234 155.637 20.8712C155.177 18.0373 153.804 15.8331 152.054 14.7468L150.479 20.9845C150.016 20.993 149.558 21.0727 149.119 21.2207C148.76 21.3372 145.756 10.9084 145.756 10.9084C142.551 9.26475 137.941 12.3411 136.196 16.1102C135.682 17.1794 135.412 18.3496 135.406 19.5361C133.088 20.824 131.473 24.1617 131.627 27.7482C131.672 29.24 132.094 30.6962 132.855 31.9801C130.925 36.3129 131.892 40.7967 135.094 42.0783C136.275 42.5278 137.577 42.5434 138.769 42.1224C141.121 41.4013 143.429 39.3263 144.789 36.4546C145 36.0018 145.184 35.5371 145.34 35.0628C146.76 37.9628 149.33 39.4711 151.909 38.6083C153.146 38.1539 154.204 37.3124 154.925 36.209C156.44 34.0961 157.167 30.9757 156.654 27.8552Z" fill="#FF575C"/>
  <path d="M172.741 110.697C172.371 110.34 171.981 110.005 171.573 109.692C169.98 108.379 167.64 106.2 167.609 104.387C167.574 102.362 169.111 87.1626 169.961 80.3833C170.271 77.8769 170.359 75.348 170.222 72.8262C170.062 69.3625 160.111 60.5459 156.286 57.4349L156.049 57.2365V57.0381C155.81 56.5501 154.554 54.834 153.005 54.834C151.351 54.8718 149.154 54.9662 146.455 55.1111L147.261 59.5036L148.253 64.9164L156.286 70.6598L163.588 75.5247V75.8679C163.588 75.9026 163.588 75.9403 163.588 75.975C161.673 83.1826 163.137 98.0574 163.786 102.453C163.951 103.478 163.895 104.525 163.622 105.526C163.588 105.637 163.553 105.75 163.515 105.841C163.486 105.938 163.448 106.032 163.402 106.121C163.25 106.398 163.135 106.694 163.059 107C162.948 107.32 162.948 107.668 163.059 107.989C163.262 108.655 163.712 109.219 164.318 109.563C165.024 109.988 165.694 109.919 166.126 110.272C169.668 113.156 171.904 113.647 173.258 112.375C173.818 111.903 173.103 111.138 172.741 110.697Z" fill="#FFC1BB"/>
  <path d="M173.302 112.385C171.948 113.645 169.712 113.166 166.17 110.282C165.738 109.929 165.068 109.999 164.362 109.573C163.756 109.229 163.306 108.666 163.103 107.999C162.992 107.679 162.992 107.331 163.103 107.01C163.179 106.704 163.294 106.409 163.446 106.132C163.492 106.042 163.53 105.948 163.559 105.852C163.764 107.583 169.674 111.06 170.776 111.148C171.878 111.236 172.111 110.424 171.582 109.687C171.998 110.001 172.394 110.34 172.769 110.701C173.103 111.138 173.818 111.904 173.302 112.385Z" fill="#371D3E"/>
  <path d="M160.703 79.1927C160.835 78.374 160.942 77.5931 161.018 76.8374C161.138 75.5779 159.831 73.1942 157.62 70.6532C156.972 69.91 156.336 69.1701 155.778 68.449C152.844 64.6705 150.051 61.0934 150.34 58.9365C150.346 58.901 150.346 58.8649 150.34 58.8294C150.117 58.9082 149.84 59.0152 149.613 59.094C149.179 59.2671 148.832 59.4088 148.58 59.4907C148.368 59.568 148.145 59.6126 147.919 59.6229L147.642 59.5978L147.469 59.4907C147.316 59.3763 147.13 59.3154 146.94 59.3175C146.67 59.3331 146.403 59.3829 146.146 59.4655C145.737 59.5887 145.314 59.6596 144.887 59.6765C143.942 59.6765 142.875 59.2797 141.738 58.8546C140.68 58.4705 139.581 58.0611 138.614 57.9824V58.1147C137.156 63.3165 138.825 68.1058 143.312 71.6136L153.568 79.2745V79.9043C150.665 86.6994 153.779 101.814 153.615 106.203C153.577 107.239 153.395 107.233 152.932 108.158C152.878 108.262 152.822 108.366 152.765 108.473C152.718 108.564 152.663 108.65 152.601 108.731C152.403 108.976 152.236 109.245 152.104 109.531C151.944 109.829 151.886 110.171 151.94 110.504C152.019 111.201 152.364 111.839 152.904 112.286C153.518 112.834 154.188 112.891 154.55 113.316C157.507 116.799 159.617 117.69 161.179 116.688C161.774 116.307 161.21 115.429 160.936 114.925C160.637 114.507 160.316 114.105 159.973 113.722C158.644 112.148 156.742 109.572 157.044 107.784C157.501 105.019 160.703 79.1927 160.703 79.1927Z" fill="#FFC1BB"/>
  <path d="M161.172 116.683C159.598 117.684 157.501 116.793 154.544 113.311C154.182 112.886 153.511 112.829 152.897 112.281C152.358 111.834 152.013 111.195 151.934 110.499C151.88 110.165 151.937 109.823 152.098 109.526C152.229 109.239 152.397 108.971 152.595 108.726C152.657 108.644 152.711 108.558 152.759 108.468C152.645 110.209 157.822 114.709 158.886 114.995C159.951 115.282 160.332 114.526 159.948 113.707C160.299 114.091 160.627 114.496 160.93 114.92C161.204 115.417 161.768 116.302 161.172 116.683Z" fill="#371D3E"/>
  <path d="M157.406 56.6071C157.406 56.3615 154.314 54.1699 154.314 54.1699C152.245 54.2109 149.559 54.3431 146.984 54.4848L147.802 58.9152C146.858 58.2854 145.973 58.997 144.968 59.0128C143.177 59.0474 140.333 57.1928 138.079 57.3156L137.981 57.9453C136.407 63.5187 138.359 68.5914 142.919 72.1527L151.669 77.8646C154.912 78.4691 169.765 72.0236 169.362 70.0682C168.238 64.5798 157.406 56.6071 157.406 56.6071Z" fill="#6B5096"/>
  <path d="M157.406 56.6066C156.32 57.4789 152.22 59.6389 148.741 60.0703C147.45 60.2252 146.152 60.3051 144.852 60.3096C141.555 60.3096 138.961 59.7145 137.679 58.5621C137.779 58.1878 137.858 57.8084 137.915 57.4253C138.086 56.4781 138.158 55.5157 138.129 54.5536L138.063 52.9383L138.233 48.2151L138.34 45.5292L135.919 38.0256C135.919 34.5053 137.944 33.038 140.919 31.2242C141.146 31.092 141.382 30.9472 141.634 30.8149C141.698 30.7711 141.764 30.7312 141.832 30.6953L144.295 29.2657L146.373 28.0471C146.612 27.9432 148.319 28.8816 148.542 28.7902C149.116 28.5463 149.723 28.3902 150.344 28.3274C153.149 28.0345 156.55 30.7078 156.55 34.5714L155.423 48.3096C154.894 52.5479 157.406 56.6066 157.406 56.6066Z" fill="#FFDF57"/>
  <path d="M143.811 29.6377L143.839 29.5433V21.4131H149.384V29.2001C149.384 29.2001 149.73 29.3071 149.891 29.3732C150.98 29.8235 150.332 32.1127 149.891 32.4433C149.201 32.9818 146.849 32.2386 144.831 31.6183C144.634 31.5554 144.451 31.4542 144.293 31.3206C144.135 31.1869 144.005 31.0235 143.91 30.8395C143.815 30.6556 143.758 30.4547 143.741 30.2485C143.724 30.0423 143.747 29.8348 143.811 29.6377Z" fill="#FFC1BB"/>
  <path d="M145.791 57.9863C142.894 58.5656 139.572 57.8792 137.919 57.4163C138.09 56.4691 138.161 55.5067 138.133 54.5446L138.067 52.9293L138.237 48.2061L141.631 38.7881L144.286 51.8335L144.774 56.5567L145.791 57.9863Z" fill="#FFA16B"/>
  <path d="M149.295 26.2872L148.814 29.7981C148.694 30.4468 147.286 30.6231 146.279 29.9776C144.742 28.9952 143.829 27.6097 143.829 26.1613V23.3525L149.295 26.2872Z" fill="#F49082"/>
  <path d="M153.207 26.0572C151.591 30.3584 148.682 30.286 146.245 28.4786C144.601 27.26 143.294 25.6101 143.238 23.5728C143.2 22.2535 142.482 20.8711 142.589 19.7943C143.005 15.7008 145.905 13.4652 149.167 13.7958C156.601 14.5736 153.764 24.5647 153.207 26.0572Z" fill="#FFC1BB"/>
  <path d="M145.079 10.6474C147.12 9.38786 149.047 10.216 151.308 11.0252C154.806 12.2847 155.401 13.7269 155.011 16.649C154.851 18.0764 154.576 19.4885 154.189 20.8715C154.192 19.9448 154.113 19.0196 153.953 18.1068C153.953 18.1068 153.433 18.5508 151.528 18.5194C150.269 18.5005 149.198 18.1006 148.212 17.8896C147.624 17.7783 147.016 17.8744 146.49 18.1615C145.965 18.4486 145.555 18.9089 145.331 19.464C144.929 20.3723 144.673 21.3382 144.572 22.3262C144.41 21.8726 144.212 21.4325 143.98 21.01C143.647 20.4149 142.463 19.9331 142.283 20.2921C141.811 21.2367 142.913 25.368 142.913 25.368C137.645 22.024 141.808 12.6846 145.079 10.6474Z" fill="#FF575C"/>
  <path d="M144.745 21.1077C145.258 22.2098 145.091 23.3717 144.377 23.7054C143.662 24.0392 142.667 23.4126 142.153 22.3105C141.64 21.2085 141.807 20.0465 142.522 19.7128C143.237 19.379 144.235 20.0056 144.745 21.1077Z" fill="#FFC1BB"/>
  <path d="M105.257 92.3486V146.338L146.156 170.089L146.38 116.204L105.257 92.3486Z" fill="#D2D9E5"/>
  <path d="M190.607 67.3633V102.705L226.91 123.302L227.108 69.3785L190.607 67.3633Z" fill="#D2D9E5"/>
  <path d="M146.379 116.204L146.178 170.061L149.361 168.018V153.502L226.91 108.738V123.302L229.687 121.46L229.879 67.6152L146.379 116.204Z" fill="#AFBBD1"/>
  <path d="M92 97.2705V100.797L140.658 128.941V125.213L92 97.2705Z" fill="#E76866"/>
  <path d="M241.325 66.8691L192.67 38.9268L92 97.2707L140.658 125.213L241.325 66.8691Z" fill="#F49082"/>
  <path d="M140.658 125.213V128.926L241.325 70.1943V66.8691L140.658 125.213Z" fill="#E76866"/>
  <g style="mix-blend-mode:multiply">
  <path d="M198.523 141.681L227.032 157.221C227.496 157.474 227.883 157.846 228.155 158.299C228.427 158.752 228.574 159.269 228.58 159.797C228.585 160.325 228.45 160.846 228.188 161.304C227.926 161.763 227.547 162.144 227.089 162.407L195.544 180.525C195.092 180.786 194.58 180.924 194.058 180.924C193.536 180.924 193.023 180.786 192.572 180.525L164.72 164.372C164.268 164.109 163.893 163.731 163.633 163.277C163.373 162.823 163.237 162.308 163.24 161.785C163.243 161.261 163.384 160.748 163.649 160.296C163.914 159.845 164.293 159.472 164.749 159.214L195.635 141.71C196.074 141.46 196.57 141.326 197.075 141.321C197.581 141.316 198.079 141.44 198.523 141.681Z" fill="#EEF1F5"/>
  </g>
  <path d="M184.536 146.464L171.916 139.109C171.74 139.003 171.541 138.944 171.336 138.935C171.132 138.926 170.928 138.968 170.744 139.058C170.56 139.148 170.401 139.28 170.28 139.445C170.158 139.609 170.079 139.801 170.048 140.003L166.654 168.814C166.608 169.142 166.692 169.474 166.889 169.74C167.086 170.006 167.379 170.183 167.706 170.235C167.867 170.261 168.033 170.254 168.192 170.215C168.351 170.175 168.501 170.104 168.631 170.005C168.765 169.907 168.878 169.784 168.963 169.643C169.048 169.501 169.103 169.343 169.126 169.18L172.249 142.195L182.747 148.316L186.252 180.481C186.294 180.78 186.442 181.053 186.67 181.252C186.897 181.451 187.188 181.562 187.489 181.564H187.656C187.984 181.518 188.28 181.344 188.481 181.082C188.682 180.819 188.771 180.488 188.73 180.16L185.144 147.387C185.119 147.197 185.052 147.015 184.946 146.855C184.841 146.696 184.701 146.562 184.536 146.464Z" fill="#AFBBD1"/>
  <path d="M212.991 131.231C212.965 131.042 212.897 130.862 212.791 130.704C212.685 130.546 212.545 130.414 212.381 130.318L199.763 122.968C199.587 122.868 199.388 122.811 199.185 122.804C198.982 122.796 198.78 122.838 198.597 122.926C198.413 123.013 198.254 123.144 198.132 123.306C198.01 123.469 197.929 123.659 197.896 123.859L194.492 152.668C194.444 152.84 194.433 153.02 194.46 153.197C194.486 153.374 194.551 153.543 194.648 153.694C194.745 153.844 194.873 153.971 195.024 154.068C195.174 154.165 195.344 154.228 195.521 154.255C195.698 154.281 195.878 154.269 196.05 154.22C196.222 154.171 196.382 154.086 196.518 153.97C196.655 153.854 196.765 153.711 196.842 153.549C196.919 153.388 196.961 153.212 196.964 153.033L200.088 126.048L210.586 132.169L214.09 164.334C214.133 164.633 214.281 164.907 214.508 165.105C214.735 165.304 215.026 165.415 215.328 165.417H215.495C215.823 165.371 216.12 165.197 216.321 164.934C216.522 164.67 216.611 164.338 216.568 164.01L212.991 131.231Z" fill="#AFBBD1"/>
  <path d="M215.838 135.01C215.854 135.01 215.854 132.843 215.854 132.843L214.849 132.787C214.593 132.515 214.299 132.282 213.977 132.094L198.422 123.114C197.28 122.457 195.986 122.111 194.669 122.111C193.351 122.111 192.057 122.457 190.915 123.114L169.337 135.485C168.832 135.769 168.401 136.167 168.077 136.647L167.447 136.502V138.744C167.445 139.407 167.618 140.059 167.95 140.632C168.282 141.206 168.761 141.681 169.337 142.01L184.892 150.99C186.033 151.647 187.328 151.992 188.645 151.992C189.962 151.992 191.256 151.647 192.398 150.99L213.977 138.618C214.602 138.26 215.11 137.729 215.44 137.089C215.77 136.449 215.908 135.727 215.838 135.01Z" fill="#2190F4"/>
  <path d="M213.977 129.665L198.422 120.685C197.28 120.028 195.986 119.683 194.669 119.683C193.351 119.683 192.057 120.028 190.915 120.685L169.337 133.044C168.767 133.377 168.294 133.853 167.966 134.426C167.638 134.998 167.465 135.646 167.465 136.306C167.465 136.966 167.638 137.614 167.966 138.187C168.294 138.759 168.767 139.235 169.337 139.568L184.892 148.549C186.033 149.206 187.328 149.552 188.645 149.552C189.962 149.552 191.257 149.206 192.398 148.549L213.968 136.193C214.538 135.861 215.012 135.385 215.342 134.813C215.672 134.241 215.846 133.592 215.847 132.932C215.848 132.271 215.676 131.622 215.348 131.049C215.019 130.476 214.547 129.999 213.977 129.665Z" fill="#72BEFF"/>
  <path d="M181.183 114.129L182.615 116.419L182.65 129.014C182.652 129.977 182.909 130.923 183.393 131.756C183.877 132.589 184.572 133.28 185.408 133.759L189.502 136.108L191.029 140.916L195.85 138.177C196.271 137.937 196.621 137.589 196.864 137.169C197.106 136.749 197.232 136.272 197.229 135.787L197.188 121.646C197.183 119.719 196.67 117.828 195.703 116.162C194.735 114.496 193.345 113.114 191.674 112.155L190.834 111.673C190.033 111.208 189.127 110.956 188.202 110.94C187.276 110.925 186.362 111.147 185.547 111.585L183.998 112.492L182.798 113.178L181.183 114.129Z" fill="#F6344A"/>
  <path d="M194.379 128.46C194.374 128.492 194.358 128.521 194.334 128.542C194.309 128.563 194.278 128.575 194.245 128.575C194.213 128.575 194.182 128.563 194.157 128.542C194.133 128.521 194.116 128.492 194.112 128.46V123.211C194.097 120.95 193.381 118.749 192.062 116.913C191.704 116.407 191.3 115.935 190.856 115.503C190.197 114.853 189.456 114.293 188.652 113.837L187.805 113.346C187.542 113.194 187.262 113.074 186.97 112.99C186.586 112.833 186.18 112.733 185.767 112.694C184.755 112.568 183.728 112.738 182.811 113.185L184.01 112.499C184.588 112.377 185.182 112.353 185.767 112.426C186.178 112.457 186.582 112.541 186.97 112.678C187.307 112.787 187.631 112.932 187.937 113.109L188.784 113.601C189.53 114.028 190.223 114.541 190.849 115.131C191.291 115.54 191.694 115.988 192.055 116.469C193.547 118.402 194.361 120.772 194.373 123.214L194.379 128.46Z" fill="#C6193B"/>
  <path d="M181.003 136.294L188.72 140.724C189.138 140.963 189.612 141.088 190.094 141.087C190.575 141.085 191.048 140.957 191.464 140.714C191.881 140.472 192.226 140.125 192.466 139.707C192.705 139.289 192.831 138.816 192.83 138.334L192.792 124.196C192.787 122.269 192.275 120.377 191.307 118.711C190.339 117.044 188.95 115.662 187.278 114.703L186.431 114.218C185.596 113.738 184.649 113.486 183.685 113.488C182.722 113.491 181.776 113.746 180.943 114.23C180.11 114.714 179.419 115.409 178.94 116.245C178.46 117.081 178.21 118.028 178.213 118.991L178.244 131.549C178.248 132.512 178.504 133.458 178.988 134.291C179.472 135.124 180.167 135.814 181.003 136.294Z" fill="#FF575C"/>
  <path d="M180.556 131.641L189.477 136.757C189.621 136.841 189.784 136.884 189.951 136.884C190.117 136.884 190.28 136.839 190.424 136.756C190.568 136.672 190.687 136.552 190.77 136.407C190.852 136.263 190.895 136.099 190.894 135.932L190.878 129.786C190.878 129.454 190.791 129.128 190.625 128.841C190.459 128.553 190.221 128.315 189.933 128.149L181.013 123.032C180.869 122.949 180.705 122.905 180.539 122.905C180.372 122.906 180.209 122.95 180.065 123.034C179.921 123.117 179.802 123.238 179.72 123.382C179.637 123.527 179.595 123.69 179.596 123.857L179.611 130.003C179.611 130.335 179.698 130.661 179.864 130.949C180.03 131.236 180.269 131.475 180.556 131.641Z" fill="#C6193B"/>
  <path d="M180.047 131.933L188.964 137.05C189.108 137.134 189.272 137.179 189.439 137.179C189.606 137.179 189.77 137.135 189.914 137.051C190.058 136.967 190.178 136.846 190.26 136.701C190.343 136.556 190.386 136.392 190.384 136.225L190.365 130.079C190.365 129.747 190.278 129.421 190.112 129.133C189.946 128.846 189.708 128.607 189.421 128.441L180.503 123.325C180.359 123.241 180.196 123.197 180.029 123.196C179.862 123.196 179.699 123.24 179.554 123.323C179.41 123.407 179.291 123.527 179.208 123.671C179.125 123.816 179.082 123.98 179.083 124.147L179.099 130.296C179.099 130.628 179.187 130.955 179.353 131.242C179.519 131.529 179.759 131.768 180.047 131.933Z" fill="#F6344A"/>
  <path d="M188.944 131.108C188.914 131.107 188.885 131.098 188.859 131.083L180.421 126.243C180.401 126.232 180.383 126.217 180.369 126.199C180.355 126.181 180.345 126.161 180.338 126.139C180.332 126.117 180.331 126.094 180.333 126.071C180.336 126.049 180.343 126.027 180.354 126.007C180.377 125.967 180.415 125.939 180.459 125.927C180.504 125.915 180.551 125.921 180.591 125.944L189.029 130.787C189.049 130.798 189.066 130.813 189.08 130.831C189.093 130.848 189.103 130.869 189.109 130.89C189.115 130.912 189.117 130.935 189.114 130.957C189.111 130.979 189.104 131 189.092 131.02C189.078 131.047 189.057 131.069 189.031 131.085C189.004 131.1 188.975 131.108 188.944 131.108Z" fill="#C6193B"/>
  <path d="M192.046 112.263V116.913C191.688 116.407 191.285 115.935 190.84 115.503V112.263C190.841 111.949 190.759 111.641 190.603 111.369C190.446 111.098 190.221 110.873 189.949 110.716L187.616 109.35C187.552 109.307 187.477 109.284 187.4 109.284C187.323 109.284 187.248 109.307 187.184 109.35C187.117 109.386 187.06 109.439 187.021 109.505C186.982 109.57 186.961 109.645 186.961 109.721V112.99C186.576 112.833 186.171 112.733 185.758 112.694V109.721C185.757 109.431 185.833 109.146 185.979 108.895C186.125 108.644 186.336 108.437 186.589 108.295C186.836 108.145 187.119 108.065 187.408 108.065C187.697 108.065 187.98 108.145 188.226 108.295L190.56 109.649C191.015 109.916 191.392 110.298 191.652 110.757C191.913 111.216 192.049 111.735 192.046 112.263Z" fill="#C6193B"/>
  <path d="M220.139 110.754L218.281 109.756C217.942 109.575 217.564 109.479 217.179 109.479C216.795 109.479 216.416 109.575 216.077 109.756L194.839 121.526C193.135 122.471 191.728 124.675 191.145 127.304L187.074 144.994C186.936 145.602 186.997 146.238 187.247 146.809C187.497 147.38 187.923 147.856 188.462 148.168L190.352 149.135L190.216 147.217C190.306 147.195 190.393 147.166 190.478 147.129L212.557 134.569C214.257 133.624 215.665 131.42 216.247 128.797L219.903 112.936C219.99 112.522 220.034 112.1 220.032 111.677L220.139 110.754Z" fill="#50B1F9"/>
  <path d="M221.093 114.781L217.438 130.642C216.855 133.271 215.448 135.475 213.747 136.417L191.659 148.965C189.835 149.972 188.343 147.705 188.966 144.899L192.625 129.026C193.208 126.397 194.615 124.193 196.319 123.252L218.392 110.707C220.224 109.699 221.717 111.947 221.093 114.781Z" fill="#2190F4"/>
  <path d="M159.97 51.3773C161.651 52.6369 163.323 53.8145 164.23 54.5041C164.328 54.5765 166.078 55.7416 167.527 56.6453C168.606 57.3289 169.91 57.565 171.161 57.3034C171.222 57.2907 171.283 57.2749 171.343 57.2561C171.644 57.1609 171.914 56.9884 172.128 56.756C172.341 56.5236 172.49 56.2393 172.559 55.9316C172.628 55.6238 172.615 55.3033 172.522 55.002C172.428 54.7007 172.258 54.4291 172.026 54.2144C171.654 53.7725 171.193 53.413 170.673 53.1588C170.154 52.9046 169.588 52.7611 169.01 52.7376C167.895 52.6526 166.913 52.7911 166.154 52.4542C165.984 52.3816 165.822 52.293 165.669 52.1897C164.665 51.4615 163.761 50.6063 162.977 49.6455L159.97 51.3773Z" fill="#F49082"/>
  <path d="M165.915 52.337C165.429 52.4513 164.997 52.7286 164.69 53.1227C164.384 53.5169 164.221 54.0041 164.23 54.5033C162.127 53.1399 158.115 50.9137 155.363 48.9174C155.363 48.7159 155.395 48.5143 155.423 48.3128L156.538 34.5746C156.545 34.4698 156.545 34.3646 156.538 34.2598C156.853 36.5174 157.797 43.3913 158.534 44.8271C159.271 46.263 165.915 52.337 165.915 52.337Z" fill="#FFA16B"/>
  <path d="M175.27 51.9658L164.142 58.4177L163.95 71.4191H165.915L187.38 59.0002L175.27 51.9658Z" fill="#E76866"/>
  <path d="M160.073 55.3419C157.151 53.6636 152.601 56.0787 149.915 60.7326C149.783 60.9625 149.663 61.186 149.547 61.4159L163.984 69.5713L174.51 63.4941L160.073 55.3419Z" fill="#EFECF3"/>
  <path d="M185.038 57.4169L170.601 49.2709C167.675 47.5926 163.129 50.0046 160.443 54.6617C160.315 54.8884 160.192 55.1151 160.074 55.3418L174.511 63.494L185.038 57.4169Z" fill="#D2D9E5"/>
  <path d="M174.879 62.8388C174.756 63.0498 174.523 63.4938 174.514 63.5127C171.589 61.8186 167.039 64.2369 164.353 68.8908C164.224 69.1175 164.104 69.3411 163.984 69.571V70.5502L174.511 65.1469L185.037 59.139V57.4166C182.115 55.7383 177.565 58.1818 174.879 62.8388Z" fill="#AFBBD1"/>
  <path d="M149.547 61.415V63.087L163.984 71.2329V69.5704L149.547 61.415Z" fill="#D2D9E5"/>
  <path d="M148.697 62.4795V62.7786L163.985 71.4189L164.089 71.1765L148.697 62.4795Z" fill="#4A3572"/>
  <path d="M185.953 58.4111L163.984 71.1165V71.4314L173.651 65.8392C174.253 65.8612 174.955 65.4613 175.509 64.7654L185.953 58.726V58.4111Z" fill="#4A3572"/>
  <path d="M185.037 57.8789V58.3607L163.985 70.5496L149.547 62.388V61.9975L148.697 62.4793L163.985 71.1164L173.604 65.5525C174.234 65.5934 174.971 65.1683 175.544 64.4315L185.954 58.411L185.037 57.8789Z" fill="#6B5096"/>
  <path d="M173.132 65.0839C173.916 65.5341 175.134 64.8886 175.855 63.6385C175.89 63.5787 175.922 63.5189 175.953 63.4559V63.0088L173.062 64.6745L173.132 65.0839Z" fill="#AFBBD1"/>
  <path d="M160.291 61.5187C159.932 61.8336 157.243 62.8223 156.427 62.794C154.755 62.7499 153.241 61.991 152.853 61.8336C151.723 61.3928 149.837 60.7189 147.79 59.9443L149.094 56.2256C150.312 57.027 151.622 57.6803 152.995 58.1715C153.232 58.2679 153.476 58.3437 153.726 58.3982C155.426 58.6438 158.546 56.1532 158.918 57.8283C158.918 57.8315 162.306 59.6483 160.291 61.5187Z" fill="#FFC1BB"/>
  <path d="M152.958 57.9262C152.013 58.2191 151.286 60.6247 151.837 61.4308C151.837 61.4308 140.048 58.8016 137.17 55.2183C135.769 53.4738 135.394 44.1818 135.936 38.2148C135.936 38.2148 137.255 35.51 139.084 35.5855C139.866 35.6196 140.606 35.9431 141.162 36.4931C141.718 37.0431 142.049 37.7803 142.091 38.5612C142.28 42.2012 141.962 50.2463 142.359 51.6286C142.614 52.5544 152.958 57.9262 152.958 57.9262Z" fill="#FFDF57"/>
  <path d="M145.001 99.0938L129.424 108.14L137.809 115.398H141.732L157.432 106.314L145.001 99.0938Z" fill="#E76866"/>
  <path d="M126.385 108.282L126.445 107.662L125.837 107.942L126.385 108.282Z" fill="#3A1C65"/>
  <path d="M126.395 105.889V108.565L137.878 115.178C138.066 114.615 138.112 114.015 138.01 113.43C137.947 113.068 137.834 112.716 137.674 112.385C133.92 110.229 130.16 108.063 126.395 105.889Z" fill="#EBEBED"/>
  <path d="M125.777 105.946L125.768 105.379L137.783 112.281L153.833 103.023L153.886 106.147L137.843 115.401L125.837 108.505V107.942L126.322 108.219L137.629 114.715L137.591 112.7L125.777 105.946Z" fill="#6B5096"/>
  <path d="M137.783 112.281L153.842 103.023C154.171 103.582 154.32 104.229 154.27 104.875C154.236 105.317 154.109 105.746 153.896 106.134L137.837 115.389C138.041 114.996 138.17 114.569 138.218 114.129C138.259 113.484 138.108 112.841 137.783 112.281Z" fill="#4A3572"/>
  <path d="M137.783 112.28L153.833 103.023L141.896 96.124L125.837 105.385L137.783 112.28Z" fill="#825EA6"/>
  <path d="M136.734 110.937L138.394 110.956L153.051 102.571L152.148 102.048L136.734 110.937Z" fill="#6B5096"/>
  <path d="M125.276 103.817L125.336 103.2L124.729 103.477L125.276 103.817Z" fill="#B41E36"/>
  <path d="M125.286 101.433V104.109L136.77 110.722C136.956 110.16 137.002 109.561 136.902 108.977C136.839 108.614 136.725 108.261 136.565 107.929C132.812 105.769 129.039 103.602 125.286 101.433Z" fill="#EBEBED"/>
  <path d="M124.666 101.49L124.656 100.923L136.672 107.816L152.725 98.5615L152.778 101.682L136.735 110.936L124.729 104.04V103.477L125.214 103.754L136.521 110.25L136.483 108.235L124.666 101.49Z" fill="#FF575C"/>
  <path d="M136.672 107.816L152.731 98.5615C153.058 99.1199 153.207 99.7646 153.159 100.41C153.125 100.852 152.997 101.281 152.784 101.669L136.735 110.927C136.94 110.535 137.069 110.107 137.116 109.667C137.157 109.02 137.002 108.375 136.672 107.816Z" fill="#F6344A"/>
  <path d="M152.724 98.5608L136.665 107.815L135.535 107.154L124.734 100.913L140.793 91.6523L149.978 96.9738L152.028 98.164L152.724 98.5608Z" fill="#FF7B7F"/>
  <path d="M152.022 98.1643L136.744 107.148H135.466C135.494 107.119 149.972 96.9678 149.972 96.9678L152.022 98.1643Z" fill="#FF575C"/>
  <path d="M122.647 100.854L122.707 100.237L122.1 100.514L122.647 100.854Z" fill="#216AF4"/>
  <path d="M122.656 98.4697V101.146L134.14 107.759C134.328 107.197 134.373 106.598 134.272 106.014C134.209 105.651 134.096 105.298 133.935 104.966C130.182 102.804 126.422 100.638 122.656 98.4697Z" fill="#EBEBED"/>
  <path d="M122.109 98.5272L122.1 97.9573L134.046 104.853L150.096 95.5957L150.149 98.7193L134.106 107.974L122.1 101.078V100.514L122.585 100.791L133.892 107.287L133.854 105.272L122.109 98.5272Z" fill="#50B1F9"/>
  <path d="M134.046 104.853L150.105 95.5957C150.433 96.1546 150.583 96.8007 150.533 97.4472C150.499 97.8888 150.371 98.3182 150.158 98.7067L134.099 107.961C134.304 107.569 134.433 107.141 134.48 106.701C134.521 106.056 134.37 105.413 134.046 104.853Z" fill="#2190F4"/>
  <path d="M134.046 104.853L150.096 95.5953L138.158 88.6963L122.1 97.9569L134.046 104.853Z" fill="#50B1F9"/>
  <path d="M220.892 58.4326L209.765 64.8845L218.15 72.1424H222.073L233.324 65.6496L220.892 58.4326Z" fill="#E76866"/>
  <path d="M229.589 62.6406V65.3202L218.106 71.9327C217.918 71.3701 217.872 70.7696 217.973 70.1851C218.037 69.8217 218.15 69.4688 218.31 69.1366C222.073 66.9765 225.845 64.8101 229.589 62.6406Z" fill="#EBEBED"/>
  <path d="M230.225 62.6962L230.219 62.1294L218.209 69.0253L202.16 59.7646L202.106 62.8882L218.15 72.1425L230.156 65.2467V64.6831L229.671 64.9633L218.364 71.4561L218.401 69.444L230.225 62.6962Z" fill="#249677"/>
  <path d="M218.209 69.026L202.151 59.7686C201.822 60.3273 201.672 60.9736 201.722 61.62C201.756 62.0618 201.884 62.4913 202.097 62.8796L218.14 72.1339C217.935 71.7416 217.806 71.3143 217.759 70.8743C217.722 70.2272 217.879 69.5836 218.209 69.026Z" fill="#3EB788"/>
  <path d="M218.21 69.0258L202.16 59.7652L214.097 52.8662L230.219 62.13L218.21 69.0258Z" fill="#74C8A4"/>
  <path d="M227.857 59.6582V62.3347L216.374 68.9472C216.189 68.3839 216.144 67.7839 216.245 67.1996C216.309 66.8377 216.421 66.4861 216.578 66.1542L227.857 59.6582Z" fill="#EBEBED"/>
  <path d="M228.474 59.7053L228.487 59.1385L216.471 66.0406L200.419 56.7832L200.365 59.9068L216.408 69.1611L228.418 62.2653V61.7016L227.933 61.9787L216.622 68.4747L216.66 66.4595L228.474 59.7053Z" fill="#4A3572"/>
  <path d="M216.471 66.0406L200.412 56.7832C200.085 57.3426 199.937 57.9886 199.987 58.6347C200.02 59.0761 200.147 59.5054 200.359 59.8942L216.402 69.1485C216.199 68.7557 216.071 68.3286 216.024 67.889C215.984 67.2419 216.139 66.5977 216.471 66.0406Z" fill="#6B5096"/>
  <path d="M216.471 66.0414L200.419 56.784L212.359 49.8818L228.487 59.1393L216.471 66.0414Z" fill="#825EA6"/>
  <path d="M146.899 79.6533L148.851 77.8427C149.071 77.6319 149.343 77.483 149.639 77.4111C149.934 77.3392 150.244 77.3469 150.536 77.4333L159.088 80.0689C159.232 80.1109 159.363 80.1899 159.468 80.298C159.572 80.4062 159.646 80.5397 159.683 80.6855C159.72 80.8312 159.718 80.984 159.678 81.1288C159.638 81.2736 159.56 81.4054 159.453 81.511L157.539 83.3751C156.947 83.9262 156.279 83.8758 154.872 83.8758L147.246 81.0922C147.104 81.0469 146.976 80.9658 146.875 80.8569C146.774 80.7479 146.702 80.6148 146.668 80.4702C146.633 80.3256 146.636 80.1745 146.676 80.0314C146.717 79.8883 146.794 79.7581 146.899 79.6533Z" fill="#E76866"/>
  <path d="M158.508 79.9174L158.354 80.0087C158.245 79.8406 158.08 79.7166 157.888 79.6591L149.336 77.011C149.044 76.9249 148.734 76.9174 148.437 76.9893C148.141 77.0612 147.869 77.2098 147.648 77.4203L145.321 79.6529C145.283 79.6912 145.25 79.7334 145.221 79.7788H145.054V80.4085C145.081 80.5718 145.156 80.7236 145.267 80.8459C145.379 80.9682 145.523 81.0558 145.683 81.0981L154.248 83.8093C154.548 83.9002 154.866 83.9084 155.17 83.833C155.474 83.7576 155.751 83.6014 155.974 83.381L158.269 81.0981C158.419 80.9492 158.509 80.7512 158.524 80.5408L158.508 79.9174Z" fill="#6B5096"/>
  <path d="M145.321 79.1526L147.648 76.9233C147.869 76.7128 148.141 76.5641 148.437 76.4923C148.733 76.4204 149.043 76.4279 149.336 76.5139L157.888 79.1621C158.032 79.2049 158.162 79.2843 158.266 79.3925C158.369 79.5007 158.443 79.634 158.48 79.7794C158.517 79.9248 158.515 80.0772 158.476 80.2218C158.436 80.3664 158.359 80.4982 158.253 80.6042L155.958 82.8871C155.736 83.108 155.458 83.2646 155.154 83.34C154.85 83.4154 154.532 83.4069 154.232 83.3153L145.667 80.6042C145.523 80.5608 145.392 80.4801 145.288 80.3702C145.184 80.2603 145.111 80.1251 145.076 79.9781C145.041 79.8312 145.045 79.6776 145.088 79.5327C145.131 79.3878 145.212 79.2567 145.321 79.1526Z" fill="#371D3E"/>
  <path d="M154.734 82.981C154.627 82.9801 154.521 82.9642 154.419 82.9337L145.964 80.2541C145.88 80.2277 145.805 80.1798 145.745 80.1152C145.685 80.0506 145.643 79.9715 145.623 79.8856C145.603 79.7998 145.605 79.7102 145.63 79.6258C145.656 79.5413 145.702 79.4648 145.766 79.4039L148.099 77.1557C148.302 76.9566 148.574 76.8437 148.858 76.8408C148.965 76.8408 149.071 76.8557 149.173 76.8849L157.659 79.5078C157.739 79.5322 157.811 79.5768 157.868 79.6373C157.925 79.6978 157.966 79.7721 157.986 79.853C158.006 79.9339 158.005 80.0187 157.982 80.0989C157.96 80.1791 157.917 80.2521 157.857 80.3108L155.521 82.6503C155.419 82.7555 155.296 82.8389 155.161 82.8957C155.026 82.9525 154.881 82.9815 154.734 82.981Z" fill="#6B5096"/>
  <path d="M199.6 86.634C199.719 86.7046 199.817 86.8052 199.884 86.9258C199.952 87.0463 199.986 87.1825 199.984 87.3205C199.981 87.4586 199.943 87.5936 199.872 87.7119C199.8 87.8302 199.699 87.9276 199.578 87.9943L180.317 98.7002C179.827 98.9709 179.271 99.1027 178.711 99.0812H176.907L177.376 96.9148L171.337 93.2465L191.102 81.5361L199.6 86.634Z" fill="#E76866"/>
  <path d="M159.881 88.003L155.394 73.2037C155.279 72.8249 155.297 72.4178 155.446 72.0509C155.595 71.6839 155.866 71.3795 156.213 71.1885L176.806 59.8812C176.978 59.7946 177.167 59.7457 177.359 59.7375C177.551 59.7294 177.743 59.7623 177.922 59.8341C178.101 59.9059 178.262 60.0149 178.396 60.1538C178.529 60.2928 178.631 60.4585 178.695 60.6401L182.767 75.8267C182.844 76.0839 182.831 76.3598 182.73 76.6084C182.628 76.8571 182.445 77.0635 182.21 77.1933L161.683 89.0201C161.179 89.2878 160.203 89.1146 159.881 88.003Z" fill="#AFBBD1"/>
  <path d="M160.55 88.441L155.871 73.0119C155.793 72.7548 155.806 72.4787 155.907 72.2298C156.009 71.981 156.192 71.7747 156.428 71.6454L177.418 60.1239C177.532 60.0611 177.659 60.0246 177.789 60.0171C177.919 60.0096 178.049 60.0312 178.17 60.0804C178.291 60.1295 178.399 60.2051 178.487 60.3014C178.574 60.3977 178.64 60.5124 178.677 60.6372L183.356 76.0663C183.434 76.3235 183.421 76.5993 183.319 76.848C183.218 77.0967 183.034 77.3031 182.799 77.4328L161.812 88.9543C161.698 89.0165 161.571 89.0525 161.441 89.0597C161.311 89.067 161.18 89.0453 161.06 88.9962C160.939 88.9471 160.831 88.8719 160.742 88.7759C160.654 88.6799 160.588 88.5655 160.55 88.441Z" fill="#D2D9E5"/>
  <path d="M162.184 88.6043L183.11 77.6528C183.452 77.4646 183.838 77.3697 184.228 77.3774C184.618 77.3851 184.999 77.4953 185.333 77.6968L198.672 84.9832C198.855 85.1276 199.002 85.314 199.098 85.5265C199.195 85.7391 199.24 85.9717 199.228 86.205C199.217 86.4383 199.15 86.6655 199.033 86.8676C198.916 87.0697 198.752 87.2409 198.555 87.3668L178 98.7906C177.659 98.9791 177.274 99.0754 176.884 99.0698C176.494 99.0643 176.113 98.9572 175.777 98.7591L162.275 91.0068C161.535 90.566 161.576 89.0703 162.184 88.6043Z" fill="#AFBBD1"/>
  <path d="M198.565 86.8102L178.009 98.234C177.668 98.4225 177.283 98.5187 176.894 98.5132C176.504 98.5077 176.122 98.4006 175.786 98.2025L162.284 90.4596C162.115 90.3596 161.975 90.2165 161.879 90.0449C161.784 89.8733 161.735 89.6794 161.738 89.4828C161.742 89.2863 161.798 89.0942 161.899 88.9262C162.001 88.7582 162.146 88.6201 162.319 88.5263L165.868 86.5803L181.186 78.1667L183.12 77.1024C183.462 76.9154 183.848 76.8213 184.238 76.8296C184.628 76.8379 185.009 76.9482 185.343 77.1497L198.596 84.8894C198.762 84.9906 198.898 85.1333 198.991 85.3033C199.085 85.4733 199.132 85.6648 199.129 85.8588C199.126 86.0528 199.072 86.2426 198.973 86.4095C198.874 86.5763 198.733 86.7145 198.565 86.8102Z" fill="#EFECF3"/>
  <path d="M181.873 79.1241L167.423 87.1094C167.326 87.1629 167.218 87.191 167.108 87.191C166.998 87.191 166.889 87.1629 166.793 87.1094L165.88 86.5679L181.199 78.1543L181.895 78.5731C181.943 78.6022 181.982 78.6438 182.009 78.6934C182.036 78.743 182.049 78.7988 182.046 78.8551C182.044 78.9114 182.027 78.966 181.996 79.0133C181.966 79.0606 181.923 79.0989 181.873 79.1241Z" fill="#AFBBD1"/>
  <path d="M187.08 83.9101L187.827 83.4977C187.94 83.4378 187.956 83.3465 187.861 83.293L187.231 82.9561C187.172 82.9313 187.108 82.9201 187.043 82.9234C186.979 82.9267 186.916 82.9443 186.86 82.975L186.114 83.3875C186.003 83.4504 185.988 83.5417 186.079 83.5921L186.709 83.9322C186.768 83.9565 186.833 83.9671 186.897 83.9633C186.961 83.9595 187.024 83.9413 187.08 83.9101Z" fill="#AFBBD1"/>
  <path d="M176.52 89.7665L177.266 89.354C177.379 89.291 177.392 89.1997 177.301 89.1493L176.671 88.8092C176.611 88.7849 176.547 88.7743 176.483 88.7781C176.418 88.7819 176.356 88.8001 176.299 88.8313L175.553 89.2438C175.44 89.3036 175.427 89.3981 175.518 89.4484L176.148 89.7854C176.207 89.8108 176.272 89.8223 176.336 89.8191C176.401 89.8158 176.463 89.7978 176.52 89.7665Z" fill="#AFBBD1"/>
  <path d="M185.551 84.7568L186.294 84.3442C186.407 84.2813 186.423 84.19 186.328 84.1396L185.699 83.7995C185.638 83.7752 185.574 83.7645 185.509 83.7683C185.444 83.7721 185.381 83.7903 185.324 83.8216L184.581 84.234C184.467 84.2939 184.452 84.3883 184.546 84.4387L185.176 84.7756C185.236 84.8011 185.301 84.8127 185.365 84.8094C185.43 84.8061 185.494 84.7881 185.551 84.7568Z" fill="#AFBBD1"/>
  <path d="M184.011 85.6171L184.754 85.2046C184.867 85.1417 184.883 85.0503 184.788 85L184.159 84.6599C184.098 84.6355 184.034 84.6249 183.969 84.6287C183.904 84.6325 183.841 84.6507 183.784 84.6819L183.041 85.0944C182.927 85.1542 182.912 85.2455 183.006 85.2991L183.636 85.636C183.696 85.6615 183.76 85.673 183.825 85.6698C183.89 85.6665 183.954 85.6485 184.011 85.6171Z" fill="#AFBBD1"/>
  <path d="M173.509 91.4325L174.256 91.02C174.369 90.9571 174.385 90.8657 174.29 90.8154L173.661 90.4753C173.601 90.4514 173.537 90.4407 173.473 90.4439C173.409 90.4472 173.346 90.4643 173.289 90.4942L172.543 90.9067C172.433 90.9697 172.417 91.0609 172.511 91.1113L173.141 91.4514C173.2 91.4751 173.264 91.4856 173.327 91.4824C173.391 91.4791 173.453 91.4621 173.509 91.4325Z" fill="#AFBBD1"/>
  <path d="M171.998 92.2733L172.744 91.8608C172.858 91.7978 172.874 91.7065 172.779 91.6561L172.149 91.316C172.09 91.2917 172.025 91.2811 171.961 91.2849C171.897 91.2888 171.834 91.3069 171.778 91.3381L171.032 91.7474C170.921 91.8104 170.906 91.9017 170.997 91.9552L171.627 92.2922C171.686 92.3169 171.75 92.3281 171.815 92.3248C171.879 92.3216 171.942 92.304 171.998 92.2733Z" fill="#AFBBD1"/>
  <path d="M170.506 93.1171L171.249 92.7047C171.362 92.6417 171.378 92.5504 171.283 92.5L170.654 92.1599C170.594 92.136 170.529 92.1252 170.464 92.1285C170.4 92.1318 170.336 92.1489 170.279 92.1788L169.536 92.5913C169.422 92.6543 169.407 92.7456 169.501 92.796L170.131 93.1361C170.191 93.16 170.256 93.1708 170.32 93.1675C170.385 93.1642 170.448 93.1471 170.506 93.1171Z" fill="#AFBBD1"/>
  <path d="M175.015 90.5977L175.761 90.1852C175.874 90.1254 175.89 90.0341 175.796 89.9805L175.166 89.6436C175.107 89.6182 175.042 89.6066 174.978 89.6099C174.914 89.6132 174.851 89.6312 174.794 89.6625L174.048 90.075C173.938 90.138 173.922 90.2293 174.014 90.2797L174.643 90.6197C174.703 90.644 174.767 90.6547 174.832 90.6508C174.896 90.647 174.958 90.6289 175.015 90.5977Z" fill="#AFBBD1"/>
  <path d="M178.151 88.8535L183.167 86.0794C183.281 86.0164 183.296 85.922 183.202 85.8716L182.572 85.5284C182.512 85.5036 182.447 85.4924 182.383 85.4957C182.318 85.4989 182.255 85.5166 182.197 85.5473L177.181 88.3214C177.068 88.3843 177.052 88.4788 177.147 88.5292L177.776 88.8724C177.836 88.8972 177.901 88.9084 177.966 88.9051C178.031 88.9019 178.094 88.8843 178.151 88.8535Z" fill="#AFBBD1"/>
  <path d="M184.876 79.5931L185.623 79.1838C185.733 79.1208 185.749 79.0295 185.654 78.976L185.311 78.7902C185.251 78.7647 185.186 78.7531 185.121 78.7564C185.056 78.7597 184.993 78.7777 184.936 78.8091L184.193 79.2216C184.08 79.2845 184.064 79.3758 184.158 79.4262L184.505 79.6152C184.564 79.6395 184.629 79.6501 184.693 79.6463C184.757 79.6425 184.82 79.6243 184.876 79.5931Z" fill="#AFBBD1"/>
  <path d="M181.803 81.2902L182.549 80.8777C182.66 80.8178 182.675 80.7234 182.584 80.673L182.238 80.4841C182.177 80.4597 182.113 80.4491 182.048 80.4529C181.983 80.4567 181.92 80.4749 181.863 80.5061L181.12 80.9186C181.006 80.9784 180.991 81.0729 181.085 81.1233L181.432 81.3122C181.491 81.3365 181.556 81.3472 181.62 81.3433C181.684 81.3395 181.747 81.3214 181.803 81.2902Z" fill="#AFBBD1"/>
  <path d="M183.356 80.4307L184.102 80.0182C184.215 79.9584 184.231 79.8639 184.136 79.8135L183.79 79.6246C183.73 79.6003 183.666 79.5897 183.602 79.5935C183.537 79.5973 183.475 79.6155 183.418 79.6467L182.672 80.0686C182.559 80.1284 182.546 80.2229 182.638 80.2733L182.984 80.4622C183.044 80.4851 183.109 80.4941 183.173 80.4887C183.238 80.4833 183.3 80.4634 183.356 80.4307Z" fill="#AFBBD1"/>
  <path d="M180.248 82.1505L180.994 81.738C181.108 81.6782 181.123 81.5837 181.029 81.5333L180.683 81.3444C180.623 81.3201 180.559 81.3094 180.494 81.3133C180.43 81.3171 180.367 81.3352 180.311 81.3664L179.565 81.7789C179.451 81.8388 179.439 81.9332 179.53 81.9836L179.877 82.1694C179.936 82.1951 180 82.2067 180.065 82.2034C180.129 82.2002 180.192 82.182 180.248 82.1505Z" fill="#AFBBD1"/>
  <path d="M178.696 83.0089L179.442 82.5965C179.552 82.5335 179.568 82.4422 179.473 82.3918L179.13 82.2029C179.07 82.1785 179.005 82.1678 178.94 82.1717C178.876 82.1755 178.812 82.1937 178.756 82.2249L178.012 82.6374C177.899 82.6972 177.883 82.7917 177.978 82.8421L178.324 83.031C178.384 83.0553 178.448 83.0659 178.512 83.0621C178.577 83.0583 178.639 83.0401 178.696 83.0089Z" fill="#AFBBD1"/>
  <path d="M177.14 83.8692L177.886 83.4567C178 83.3938 178.015 83.3024 177.921 83.2521L177.575 83.0631C177.515 83.0388 177.451 83.0282 177.386 83.032C177.322 83.0358 177.259 83.054 177.203 83.0852L176.457 83.4977C176.343 83.5575 176.328 83.652 176.422 83.7024L176.768 83.8913C176.828 83.9156 176.892 83.9262 176.957 83.9224C177.021 83.9186 177.084 83.9004 177.14 83.8692Z" fill="#AFBBD1"/>
  <path d="M175.588 84.7286L176.331 84.3161C176.444 84.2531 176.46 84.1618 176.365 84.1114L176.019 83.9225C175.959 83.8982 175.895 83.8876 175.831 83.8914C175.766 83.8952 175.704 83.9134 175.647 83.9445L174.901 84.357C174.791 84.4168 174.775 84.5082 174.87 84.5617L175.213 84.7475C175.273 84.773 175.337 84.7845 175.402 84.7812C175.467 84.778 175.531 84.76 175.588 84.7286Z" fill="#AFBBD1"/>
  <path d="M174.033 85.5889L174.779 85.1764C174.892 85.1135 174.905 85.0221 174.813 84.9718L174.467 84.7828C174.407 84.7585 174.343 84.7479 174.279 84.7517C174.215 84.7555 174.152 84.7737 174.096 84.8049L173.349 85.2174C173.236 85.2772 173.22 85.3685 173.315 85.422L173.661 85.6078C173.72 85.6335 173.785 85.6452 173.849 85.6419C173.913 85.6386 173.976 85.6205 174.033 85.5889Z" fill="#AFBBD1"/>
  <path d="M172.48 86.4482L173.226 86.0514C173.34 85.9885 173.355 85.8971 173.261 85.8468L172.914 85.6578C172.855 85.6335 172.79 85.6229 172.726 85.6267C172.662 85.6305 172.599 85.6487 172.543 85.6799L171.797 86.0924C171.686 86.1522 171.671 86.2435 171.765 86.297L172.108 86.4828C172.169 86.5054 172.234 86.5141 172.298 86.5081C172.362 86.5021 172.425 86.4816 172.48 86.4482Z" fill="#AFBBD1"/>
  <path d="M170.924 87.3106L171.67 86.8981C171.784 86.8351 171.796 86.7438 171.705 86.6935L171.359 86.5045C171.299 86.4802 171.235 86.4696 171.17 86.4734C171.106 86.4772 171.044 86.4954 170.987 86.5266L170.241 86.939C170.128 86.9989 170.112 87.0902 170.206 87.1437L170.553 87.3295C170.612 87.355 170.676 87.3665 170.741 87.3632C170.805 87.36 170.868 87.342 170.924 87.3106Z" fill="#AFBBD1"/>
  <path d="M169.372 88.1671L170.115 87.7546C170.229 87.6916 170.245 87.6003 170.15 87.5499L169.804 87.361C169.744 87.3367 169.68 87.326 169.615 87.3299C169.551 87.3337 169.488 87.3518 169.432 87.383L168.686 87.7955C168.576 87.8554 168.56 87.9466 168.651 88.0002L168.998 88.186C169.057 88.2115 169.122 88.223 169.187 88.2197C169.252 88.2164 169.315 88.1984 169.372 88.1671Z" fill="#AFBBD1"/>
  <path d="M167.817 89.0274L168.563 88.6149C168.673 88.552 168.689 88.4606 168.598 88.4103L168.251 88.2213C168.192 88.197 168.127 88.1864 168.063 88.1902C167.999 88.194 167.936 88.2122 167.88 88.2434L167.134 88.6559C167.02 88.7157 167.004 88.807 167.099 88.8606L167.445 89.0463C167.504 89.0718 167.569 89.0833 167.633 89.08C167.698 89.0768 167.76 89.0588 167.817 89.0274Z" fill="#AFBBD1"/>
  <path d="M165.508 90.2806L166.928 89.5155C167.036 89.4588 167.051 89.3706 166.963 89.3203L166.648 89.1471C166.591 89.1238 166.53 89.1135 166.468 89.1168C166.407 89.1201 166.347 89.1368 166.292 89.166L164.888 89.9437C164.781 90.0035 164.765 90.0917 164.857 90.1389L165.171 90.3121C165.227 90.3314 165.285 90.3385 165.343 90.3331C165.401 90.3277 165.458 90.3098 165.508 90.2806Z" fill="#AFBBD1"/>
  <path d="M182.251 82.4268L182.994 82.0143C183.107 81.9513 183.123 81.86 183.029 81.8096L182.399 81.4695C182.339 81.4455 182.274 81.4348 182.209 81.4381C182.145 81.4413 182.082 81.4585 182.024 81.4884L181.281 81.9009C181.168 81.9639 181.152 82.0552 181.246 82.1056L181.876 82.4457C181.936 82.4696 182.001 82.4804 182.065 82.4771C182.13 82.4739 182.193 82.4567 182.251 82.4268Z" fill="#AFBBD1"/>
  <path d="M183.806 81.5636L184.55 81.1511C184.663 81.0912 184.679 80.9999 184.584 80.9464L183.954 80.6095C183.895 80.5847 183.83 80.5735 183.765 80.5767C183.7 80.58 183.637 80.5977 183.58 80.6284L182.837 81.0409C182.723 81.1038 182.708 81.1952 182.802 81.2455L183.432 81.5856C183.492 81.6099 183.557 81.6206 183.622 81.6168C183.686 81.613 183.75 81.5948 183.806 81.5636Z" fill="#AFBBD1"/>
  <path d="M180.695 83.286L181.438 82.8736C181.552 82.8106 181.567 82.7193 181.473 82.6689L180.843 82.3288C180.783 82.3045 180.718 82.2938 180.653 82.2976C180.588 82.3014 180.525 82.3196 180.468 82.3509L179.725 82.7634C179.612 82.8232 179.596 82.9176 179.691 82.968L180.32 83.305C180.38 83.3305 180.445 83.342 180.51 83.3387C180.575 83.3354 180.638 83.3174 180.695 83.286Z" fill="#AFBBD1"/>
  <path d="M179.136 84.1622L179.883 83.7497C179.996 83.6898 180.012 83.5954 179.917 83.545L179.288 83.2081C179.228 83.1826 179.164 83.1711 179.1 83.1744C179.035 83.1776 178.972 83.1957 178.916 83.227L178.17 83.6395C178.059 83.7024 178.044 83.7938 178.138 83.8441L178.768 84.1842C178.827 84.208 178.891 84.2184 178.955 84.2146C179.018 84.2108 179.08 84.1929 179.136 84.1622Z" fill="#AFBBD1"/>
  <path d="M177.581 85.0087L178.328 84.5962C178.441 84.5332 178.457 84.4419 178.362 84.3915L177.732 84.0515C177.673 84.0276 177.609 84.0168 177.545 84.0201C177.48 84.0234 177.418 84.0405 177.361 84.0703L176.615 84.4829C176.504 84.5458 176.489 84.6371 176.58 84.6875L177.21 85.0276C177.269 85.0517 177.333 85.0625 177.398 85.0593C177.462 85.056 177.524 85.0387 177.581 85.0087Z" fill="#AFBBD1"/>
  <path d="M176.026 85.869L176.772 85.4565C176.885 85.3935 176.901 85.3022 176.806 85.2518L176.177 84.9118C176.117 84.8875 176.053 84.8768 175.988 84.8806C175.924 84.8845 175.862 84.9026 175.805 84.9338L175.059 85.3463C174.949 85.4061 174.933 85.4975 175.024 85.551L175.654 85.8879C175.713 85.9127 175.778 85.9238 175.842 85.9206C175.906 85.9173 175.969 85.8997 176.026 85.869Z" fill="#AFBBD1"/>
  <path d="M174.486 86.7286L175.232 86.3161C175.345 86.2562 175.358 86.1618 175.266 86.1114L174.637 85.7745C174.577 85.749 174.513 85.7375 174.449 85.7408C174.384 85.7441 174.322 85.7621 174.265 85.7934L173.519 86.2059C173.409 86.2688 173.393 86.3602 173.484 86.4106L174.114 86.7506C174.174 86.7749 174.238 86.7856 174.302 86.7817C174.367 86.7779 174.429 86.7598 174.486 86.7286Z" fill="#AFBBD1"/>
  <path d="M172.912 87.5879L173.658 87.1785C173.768 87.1156 173.784 87.0243 173.693 86.9708L173.063 86.6338C173.003 86.609 172.939 86.5979 172.875 86.6011C172.811 86.6044 172.748 86.6221 172.691 86.6527L171.945 87.0652C171.832 87.1282 171.816 87.2195 171.91 87.2699L172.54 87.6099C172.6 87.6342 172.664 87.6449 172.728 87.6411C172.793 87.6373 172.855 87.6191 172.912 87.5879Z" fill="#AFBBD1"/>
  <path d="M171.359 88.4504L172.105 88.038C172.215 87.975 172.231 87.8837 172.14 87.8333L171.51 87.4932C171.451 87.4691 171.386 87.4582 171.322 87.4615C171.258 87.4648 171.195 87.482 171.139 87.5121L170.392 87.9403C170.279 88.0033 170.263 88.0946 170.358 88.1482L170.987 88.4851C171.048 88.5066 171.113 88.5147 171.177 88.5087C171.241 88.5027 171.303 88.4828 171.359 88.4504Z" fill="#AFBBD1"/>
  <path d="M169.804 89.3104L170.55 88.8979C170.66 88.8349 170.676 88.7436 170.581 88.6932L169.952 88.3532C169.892 88.3289 169.828 88.3182 169.763 88.322C169.699 88.3259 169.636 88.344 169.58 88.3752L168.834 88.7877C168.72 88.8475 168.705 88.942 168.799 88.9924L169.429 89.3293C169.489 89.3553 169.553 89.3671 169.618 89.3638C169.683 89.3605 169.747 89.3422 169.804 89.3104Z" fill="#AFBBD1"/>
  <path d="M168.248 90.17L168.991 89.7575C169.104 89.6977 169.12 89.6064 169.026 89.5528L168.396 89.2159C168.336 89.1911 168.271 89.1799 168.206 89.1832C168.142 89.1864 168.078 89.2041 168.021 89.2348L167.278 89.6473C167.165 89.7103 167.149 89.8016 167.243 89.8519L167.873 90.192C167.933 90.2164 167.998 90.227 168.063 90.2232C168.128 90.2194 168.191 90.2012 168.248 90.17Z" fill="#AFBBD1"/>
  <path d="M166.712 91.0197L167.455 90.6072C167.568 90.5473 167.584 90.4529 167.489 90.4025L166.86 90.0656C166.8 90.0401 166.735 90.0285 166.67 90.0318C166.605 90.0351 166.542 90.0531 166.485 90.0845L165.742 90.497C165.629 90.5599 165.613 90.6513 165.707 90.7016L166.337 91.0417C166.397 91.066 166.462 91.0767 166.527 91.0729C166.592 91.0691 166.655 91.0509 166.712 91.0197Z" fill="#AFBBD1"/>
  <path d="M185.372 80.6762L186.776 79.8984C186.883 79.8417 186.899 79.7536 186.808 79.7032L186.216 79.3883C186.159 79.3651 186.097 79.3547 186.036 79.358C185.974 79.3613 185.914 79.3781 185.86 79.4072L184.455 80.185C184.348 80.2448 184.333 80.3329 184.424 80.3802L185.016 80.6951C185.073 80.7192 185.134 80.73 185.196 80.7267C185.258 80.7235 185.318 80.7062 185.372 80.6762Z" fill="#AFBBD1"/>
  <path d="M183.129 83.3211L183.875 82.9087C183.989 82.8457 184.004 82.7544 183.91 82.704L183.28 82.3639C183.221 82.3396 183.156 82.329 183.092 82.3328C183.028 82.3366 182.965 82.3548 182.909 82.3859L182.162 82.7953C182.052 82.8583 182.036 82.9496 182.128 83.0031L182.758 83.34C182.817 83.3648 182.881 83.376 182.945 83.3727C183.01 83.3694 183.073 83.3518 183.129 83.3211Z" fill="#AFBBD1"/>
  <path d="M184.685 82.4618L185.431 82.0493C185.544 81.9864 185.557 81.895 185.466 81.8446L184.836 81.5046C184.776 81.4807 184.712 81.47 184.648 81.4732C184.584 81.4765 184.521 81.4936 184.464 81.5235L183.718 81.936C183.605 81.999 183.592 82.0902 183.684 82.1406L184.313 82.4807C184.373 82.5048 184.437 82.5156 184.501 82.5124C184.565 82.5091 184.628 82.4918 184.685 82.4618Z" fill="#AFBBD1"/>
  <path d="M181.577 84.1806L182.32 83.7681C182.433 83.7051 182.449 83.6138 182.355 83.5634L181.725 83.2234C181.665 83.199 181.6 83.1883 181.535 83.1922C181.47 83.196 181.407 83.2142 181.35 83.2454L180.607 83.6579C180.494 83.7177 180.478 83.8122 180.573 83.8626L181.202 84.1995C181.262 84.225 181.327 84.2365 181.392 84.2333C181.457 84.23 181.52 84.212 181.577 84.1806Z" fill="#AFBBD1"/>
  <path d="M180.021 85.0409L180.768 84.6283C180.878 84.5654 180.894 84.474 180.799 84.4237L180.169 84.0836C180.11 84.0593 180.045 84.0487 179.981 84.0525C179.917 84.0563 179.854 84.0745 179.798 84.1056L179.051 84.5181C178.938 84.578 178.922 84.6724 179.017 84.7228L179.647 85.0597C179.706 85.0857 179.771 85.0975 179.836 85.0942C179.901 85.091 179.965 85.0727 180.021 85.0409Z" fill="#AFBBD1"/>
  <path d="M178.465 85.9008L179.212 85.4883C179.322 85.4285 179.338 85.3341 179.246 85.2837L178.617 84.9467C178.557 84.9211 178.493 84.9094 178.429 84.9126C178.364 84.9159 178.301 84.9341 178.245 84.9657L177.499 85.3781C177.385 85.4411 177.37 85.5324 177.464 85.5828L178.094 85.9229C178.154 85.9472 178.218 85.9578 178.282 85.954C178.346 85.9502 178.409 85.932 178.465 85.9008Z" fill="#AFBBD1"/>
  <path d="M176.91 86.7598L177.657 86.3473C177.77 86.2874 177.786 86.193 177.691 86.1426L177.061 85.8057C177.002 85.7809 176.938 85.7697 176.874 85.773C176.809 85.7763 176.747 85.7939 176.69 85.8246L175.944 86.2371C175.833 86.3 175.818 86.3914 175.909 86.4418L176.539 86.7818C176.598 86.8061 176.663 86.8168 176.727 86.8129C176.791 86.8091 176.854 86.791 176.91 86.7598Z" fill="#AFBBD1"/>
  <path d="M175.358 87.626L176.101 87.2166C176.215 87.1537 176.23 87.0624 176.136 87.0088L175.506 86.6719C175.447 86.6471 175.383 86.636 175.318 86.6392C175.254 86.6425 175.191 86.6601 175.135 86.6908L174.388 87.1033C174.278 87.1663 174.262 87.2576 174.357 87.308L174.987 87.648C175.046 87.6719 175.111 87.6823 175.175 87.6785C175.239 87.6747 175.302 87.6567 175.358 87.626Z" fill="#AFBBD1"/>
  <path d="M173.803 88.4824L174.546 88.0699C174.659 88.0069 174.675 87.9156 174.58 87.8652L173.951 87.5252C173.89 87.5012 173.826 87.4905 173.761 87.4937C173.696 87.497 173.633 87.5141 173.576 87.544L172.833 87.9566C172.719 88.0195 172.704 88.1108 172.798 88.1612L173.428 88.5013C173.488 88.5253 173.553 88.536 173.617 88.5327C173.682 88.5295 173.745 88.5123 173.803 88.4824Z" fill="#AFBBD1"/>
  <path d="M172.247 89.342L172.993 88.9295C173.103 88.8665 173.119 88.7752 173.025 88.7248L172.395 88.3848C172.335 88.3607 172.271 88.3498 172.207 88.3531C172.143 88.3564 172.08 88.3736 172.023 88.4037L171.277 88.8162C171.164 88.8791 171.148 88.9704 171.242 89.024L171.872 89.3609C171.932 89.3853 171.997 89.3962 172.062 89.393C172.126 89.3897 172.19 89.3723 172.247 89.342Z" fill="#AFBBD1"/>
  <path d="M170.707 90.201L171.454 89.7885C171.564 89.7256 171.579 89.6342 171.488 89.5839L170.858 89.2438C170.799 89.2195 170.734 89.2089 170.67 89.2127C170.606 89.2165 170.543 89.2347 170.487 89.2658L169.741 89.6752C169.627 89.7382 169.615 89.8295 169.706 89.883L170.336 90.2199C170.395 90.2447 170.459 90.2559 170.524 90.2526C170.588 90.2493 170.651 90.2317 170.707 90.201Z" fill="#AFBBD1"/>
  <path d="M186.322 81.5365L188.016 80.5918C188.127 80.532 188.142 80.4439 188.051 80.3966L187.453 80.0817C187.395 80.0578 187.333 80.0471 187.271 80.0504C187.209 80.0536 187.148 80.0708 187.094 80.1006L185.4 81.0453C185.293 81.1051 185.277 81.1932 185.368 81.2405L185.963 81.5554C186.021 81.5793 186.083 81.59 186.145 81.5867C186.207 81.5835 186.268 81.5663 186.322 81.5365Z" fill="#AFBBD1"/>
  <path d="M168.043 91.6471L169.737 90.7024C169.844 90.6426 169.86 90.5544 169.769 90.504L169.173 90.1892C169.116 90.1652 169.054 90.1545 168.992 90.1578C168.93 90.1611 168.869 90.1782 168.814 90.208L167.12 91.1527C167.01 91.2125 166.994 91.3007 167.086 91.3511L167.684 91.6659C167.742 91.6898 167.804 91.7006 167.866 91.6973C167.928 91.694 167.988 91.6769 168.043 91.6471Z" fill="#AFBBD1"/>
  <path d="M183.617 84.4455L184.36 84.0329C184.473 83.97 184.489 83.8786 184.395 83.8283L183.765 83.4914C183.705 83.4659 183.64 83.4543 183.575 83.4576C183.511 83.4608 183.447 83.4789 183.39 83.5103L182.647 83.9227C182.534 83.9857 182.518 84.077 182.613 84.1274L183.242 84.4675C183.302 84.4918 183.367 84.5025 183.432 84.4987C183.497 84.4949 183.56 84.4767 183.617 84.4455Z" fill="#AFBBD1"/>
  <path d="M185.16 83.586L185.907 83.1735C186.02 83.1137 186.033 83.0192 185.941 82.9688L185.312 82.6319C185.252 82.6065 185.188 82.5949 185.124 82.5982C185.059 82.6015 184.996 82.6194 184.94 82.6508L184.194 83.0633C184.083 83.1263 184.068 83.2176 184.159 83.268L184.789 83.608C184.848 83.6323 184.913 83.643 184.977 83.6392C185.041 83.6353 185.104 83.6172 185.16 83.586Z" fill="#AFBBD1"/>
  <path d="M182.043 85.3045L182.789 84.892C182.902 84.829 182.918 84.7378 182.824 84.6874L182.194 84.3473C182.134 84.323 182.07 84.3124 182.005 84.3162C181.941 84.32 181.879 84.3382 181.822 84.3693L181.098 84.7913C180.988 84.8511 180.972 84.9456 181.063 84.996L181.693 85.3329C181.75 85.3537 181.811 85.3619 181.871 85.357C181.931 85.3521 181.99 85.3342 182.043 85.3045Z" fill="#AFBBD1"/>
  <path d="M180.5 86.1649L181.246 85.7524C181.356 85.6894 181.372 85.5981 181.281 85.5477L180.651 85.2076C180.591 85.1833 180.527 85.1727 180.462 85.1765C180.398 85.1804 180.336 85.1985 180.279 85.2297L179.533 85.6422C179.42 85.702 179.404 85.7965 179.498 85.8468L180.128 86.1838C180.187 86.2092 180.252 86.2208 180.316 86.2175C180.38 86.2142 180.443 86.1962 180.5 86.1649Z" fill="#AFBBD1"/>
  <path d="M178.947 87.0243L179.69 86.6119C179.804 86.5489 179.819 86.4576 179.725 86.4072L179.095 86.0671C179.035 86.0428 178.97 86.0321 178.905 86.0359C178.84 86.0397 178.777 86.0579 178.72 86.0891L177.977 86.5017C177.864 86.5615 177.848 86.6528 177.943 86.7063L178.572 87.0432C178.632 87.0687 178.697 87.0803 178.762 87.077C178.827 87.0737 178.89 87.0557 178.947 87.0243Z" fill="#AFBBD1"/>
  <path d="M185.972 91.949L189.697 89.8896C190.258 89.5748 190.327 89.1182 189.867 88.8632L186.775 87.1723C186.477 87.0493 186.155 86.9945 185.833 87.012C185.511 87.0294 185.197 87.1186 184.914 87.273L181.189 89.3323C180.629 89.6472 180.559 90.1006 181.016 90.3557L184.111 92.0497C184.409 92.1727 184.731 92.2275 185.053 92.21C185.375 92.1926 185.689 92.1034 185.972 91.949Z" fill="#AFBBD1"/>
  <path d="M177.392 87.8846L178.138 87.4721C178.249 87.4092 178.264 87.3178 178.173 87.2675L177.543 86.9274C177.484 86.9031 177.419 86.8924 177.355 86.8963C177.291 86.9001 177.228 86.9182 177.172 86.9494L176.425 87.3619C176.312 87.4218 176.296 87.5131 176.391 87.5666L177.021 87.9035C177.08 87.9283 177.144 87.9395 177.209 87.9362C177.273 87.9329 177.336 87.9153 177.392 87.8846Z" fill="#AFBBD1"/>
  <path d="M175.84 88.7431L176.583 88.3306C176.696 88.2676 176.712 88.1763 176.617 88.1259L175.988 87.7858C175.927 87.7615 175.863 87.7508 175.798 87.7547C175.733 87.7585 175.67 87.7766 175.613 87.8079L174.87 88.2172C174.756 88.2802 174.741 88.3715 174.835 88.425L175.465 88.762C175.525 88.7868 175.59 88.798 175.654 88.7947C175.719 88.7914 175.783 88.7738 175.84 88.7431Z" fill="#AFBBD1"/>
  <path d="M174.284 89.6034L175.031 89.1909C175.144 89.128 175.157 89.0366 175.065 88.9863L174.436 88.6462C174.376 88.6223 174.312 88.6116 174.248 88.6148C174.184 88.6181 174.121 88.6353 174.064 88.6651L173.318 89.0776C173.207 89.1406 173.192 89.2319 173.283 89.2823L173.913 89.6223C173.972 89.6464 174.037 89.6572 174.101 89.654C174.165 89.6507 174.228 89.6335 174.284 89.6034Z" fill="#AFBBD1"/>
  <path d="M172.732 90.4592L173.479 90.0467C173.589 89.9837 173.604 89.8924 173.51 89.8421L172.88 89.502C172.821 89.4778 172.757 89.467 172.692 89.4703C172.628 89.4736 172.565 89.4908 172.509 89.5209L171.762 89.9334C171.649 89.9963 171.633 90.0876 171.728 90.138L172.358 90.4781C172.418 90.5025 172.482 90.5134 172.547 90.5102C172.612 90.5069 172.675 90.4895 172.732 90.4592Z" fill="#AFBBD1"/>
  <path d="M186.766 82.6973L189.317 81.2866C189.433 81.2236 189.449 81.1292 189.351 81.0756L188.722 80.7261C188.66 80.7019 188.595 80.6913 188.529 80.6951C188.463 80.6989 188.399 80.717 188.341 80.7482L185.79 82.1588C185.674 82.2218 185.658 82.3163 185.755 82.3698L186.385 82.7162C186.446 82.7418 186.512 82.7533 186.578 82.7501C186.644 82.7468 186.708 82.7287 186.766 82.6973Z" fill="#AFBBD1"/>
  <path d="M169.3 92.3487L171.851 90.938C171.967 90.8751 171.983 90.7806 171.885 90.7271L171.255 90.3776C171.194 90.3533 171.127 90.3427 171.061 90.3465C170.995 90.3503 170.93 90.3684 170.871 90.3996L168.324 91.8103C168.207 91.8732 168.192 91.9677 168.286 92.0212L168.916 92.3676C168.977 92.3937 169.044 92.4055 169.11 92.4022C169.177 92.399 169.242 92.3807 169.3 92.3487Z" fill="#AFBBD1"/>
  <path d="M187.975 82.7295L188.504 82.4367C188.605 82.3832 188.617 82.3013 188.535 82.254C188.476 82.2231 188.41 82.207 188.343 82.207C188.277 82.207 188.211 82.2231 188.151 82.254L187.622 82.5469C187.522 82.6036 187.509 82.6854 187.591 82.7295C187.65 82.7612 187.716 82.7778 187.783 82.7778C187.85 82.7778 187.916 82.7612 187.975 82.7295Z" fill="#AFBBD1"/>
  <path d="M188.602 83.0723L189.131 82.7795C189.232 82.7259 189.248 82.6441 189.163 82.5969C189.104 82.566 189.038 82.5498 188.972 82.5498C188.906 82.5498 188.84 82.566 188.782 82.5969L188.253 82.8897C188.152 82.9463 188.136 83.0282 188.221 83.0723C188.28 83.104 188.345 83.1206 188.412 83.1206C188.478 83.1206 188.544 83.104 188.602 83.0723Z" fill="#AFBBD1"/>
  <path d="M177.152 62.2188L168.745 66.8349L157.517 73.0002L161.516 86.1936L163.465 85.1262L181.151 75.4153L177.152 62.2188Z" fill="#50B1F9"/>
  <path d="M169.961 68.0615L165.584 70.4641L159.74 73.6727L161.825 80.5402L162.839 79.986L172.043 74.9291L169.961 68.0615Z" fill="#EFECF3"/>
  <path d="M177.049 68.3203L172.672 70.7228L166.828 73.9315L168.909 80.799L169.923 80.2417L179.13 75.1878L177.049 68.3203Z" fill="#D2D9E5"/>
</svg>
