<svg width="311" height="150" viewBox="0 0 311 150" fill="none" xmlns="http://www.w3.org/2000/svg">
<rect width="311" height="150" rx="4" fill="white"/>
<g clip-path="url(#clip0)">
<path d="M194.142 119.241C198.34 117.477 201.061 114.86 201.437 112.213C201.814 109.567 199.845 107.391 198.137 106.009C194.171 102.833 187.629 100.862 180.681 100.804C176.107 100.745 171.793 101.509 168.146 102.98C167.741 103.156 167.364 103.333 166.988 103.509L155.553 96.8633L115.43 120.241L162.877 147.736L203 124.358L194.142 119.241Z" fill="#EEF1F5"/>
<path d="M164.18 49.4316C164.209 50.1668 162.211 57.0184 162.501 58.9592L162.674 59.6649C162.761 60.0178 162.79 60.4001 162.761 60.7529L162.501 63.4877C162.53 63.8111 162.298 64.4875 161.806 64.3699C161.545 64.311 161.256 63.9582 161.227 63.5171C161.227 63.1348 161.14 61.9586 161.14 61.9586C161.14 61.9586 159.519 67.1634 158.332 66.5165C157.927 66.3107 158.911 64.0758 158.853 63.4289C158.853 63.4289 158.708 63.3112 158.506 63.1642C158.129 62.8702 157.898 62.4585 157.811 61.988C157.637 61.3705 158.216 59.6943 158.216 59.6943C158.448 58.9886 158.824 58.3416 159.142 57.6947C159.75 56.3714 159.693 50.7255 159.924 49.9021C160.735 50.3138 163.398 49.461 164.18 49.4316Z" fill="#FEC7C4"/>
<path d="M159.519 55.8122C159.519 56.7237 162.616 57.1648 162.761 56.2532L166.495 44.2262C166.785 43.2558 166.987 42.2854 167.074 41.2562C167.566 35.7867 167.653 27.9941 167.624 26.7297C167.624 26.4944 167.653 26.2592 167.682 26.0239L161.227 23.7891C160.995 24.3772 161.719 34.5222 160.792 41.315C160.04 46.6963 159.519 55.8122 159.519 55.8122Z" fill="#249677"/>
<path d="M159.721 16.262C159.808 12.3804 162.269 9.55744 165.222 9.91031C165.54 9.93971 165.858 10.0279 166.148 10.1456C167.74 10.7043 169.043 12.1746 169.767 14.0565C170.114 13.5272 170.548 13.0567 171.127 12.7039C171.185 12.6745 171.243 12.6451 171.301 12.6157C171.272 12.498 171.272 12.3804 171.243 12.2628C171.156 11.4688 171.214 10.7043 171.359 9.99853C170.374 9.58684 169.419 8.85169 168.695 7.85189C167.074 5.61704 167.277 2.91169 169.101 1.79426C169.303 1.67664 167.827 1.02971 167.827 1.02971C169.882 0.58862 173.906 1.88248 175.354 3.88209C175.933 4.70545 176.28 5.58763 176.396 6.44041C178.48 7.08734 180.188 9.43981 180.478 12.2922C180.593 13.5861 180.391 14.7917 179.957 15.7915C182.07 18.8791 181.78 22.5549 179.262 24.0252C178.364 24.5545 177.293 24.7603 176.222 24.6133C174.167 24.4074 172.025 23.143 170.548 21.114C170.317 20.7905 170.114 20.4376 169.94 20.1142C169.101 22.6137 167.132 24.2016 164.874 23.9075C163.832 23.7899 162.877 23.2606 162.095 22.4961C160.619 21.114 159.663 18.7909 159.721 16.262Z" fill="#4A3572"/>
<path d="M171.417 109.126C171.041 109.537 170.317 110.243 170.78 110.743C172.025 112.066 174.196 111.713 177.757 109.067C178.191 108.743 178.828 108.861 179.523 108.479C180.131 108.155 180.623 107.655 180.826 107.008C181.028 106.42 180.884 106.038 180.884 106.038C180.884 105.832 180.739 105.538 180.594 105.156C180.565 105.068 180.536 104.979 180.507 104.862C180.218 103.921 180.218 102.597 180.218 102.597C180.218 102.597 180.16 81.2781 178.249 73.0738L179.928 55.4303L169.651 53.6953L170.983 73.3679C170.983 73.3679 176.57 101.715 176.657 103.244C176.773 105.009 174.167 107.008 172.575 108.214C172.025 108.626 171.562 108.949 171.417 109.126Z" fill="#FEC7C4"/>
<path d="M187.89 56.3712L185.342 74.5735L185.516 77.5435C188.382 86.7476 187.426 99.9215 187.34 106.332C187.311 108.861 188.729 110.39 188.729 114.036C188.729 115.889 187.919 117.888 185.66 117.83C183.374 117.771 183.692 111.772 184.3 108.243C184.387 107.773 184.358 107.302 184.271 106.861L179.031 80.8664L178.018 78.8668C177.786 78.1904 177.642 77.5141 177.642 76.779V55.8125L187.89 56.3712Z" fill="#FEC7C4"/>
<path d="M183.894 111.36C183.894 111.36 183.72 114.183 186.21 114.183C188.091 114.183 188.555 112.772 188.352 111.066C188.989 112.831 188.613 115.301 188.439 115.86C188.034 117.212 187.165 117.947 185.515 117.889C184.791 117.859 184.328 117.683 184.068 116.742C183.662 115.36 183.604 113.389 183.894 111.36Z" fill="#220428"/>
<path d="M170.781 110.743C172.026 112.066 174.197 111.713 177.757 109.066C178.192 108.743 178.829 108.861 179.523 108.478C180.131 108.155 180.623 107.655 180.826 107.008C181.029 106.42 180.884 106.038 180.884 106.038C180.884 105.832 180.739 105.538 180.594 105.155C180.566 105.067 180.537 104.979 180.508 104.861C180.218 106.537 174.341 109.625 173.299 109.654C172.286 109.684 172.055 108.861 172.605 108.184C172.026 108.625 171.562 108.949 171.418 109.125C171.041 109.507 170.318 110.243 170.781 110.743Z" fill="#220428"/>
<path d="M169.072 47.3738C169.304 55.4605 170.606 74.0744 170.606 74.0744C171.33 77.8678 180.796 78.4853 184.647 77.015C184.791 76.9562 184.907 76.8974 185.023 76.8386C185.66 76.5445 186.094 76.1623 186.21 75.7212L187.976 59.1362C190.147 51.7259 189.568 48.8441 187.368 44.1098C187.368 44.1098 187.223 43.8451 187.02 43.4628L186.21 43.3158C186.152 43.2864 170.751 40.3164 170.751 40.3164C169.564 42.4924 168.985 44.9037 169.072 47.3738Z" fill="#371D3E"/>
<path d="M168.87 41.4335C169.015 41.757 169.159 42.0804 169.246 42.4039C169.507 43.2273 168.754 44.4623 169.449 44.9622C173.502 48.0204 179.35 45.8738 182.852 44.08C184.647 43.139 185.834 42.3157 185.834 42.3157C184.734 41.3453 183.895 40.1102 183.373 38.7576C183.171 38.1694 182.997 37.5813 182.91 36.9932C182.881 36.758 182.852 36.5227 182.823 36.3169C182.794 36.0228 182.794 35.7287 182.794 35.4347L182.881 32.2882L182.389 24.1428C181.144 20.6729 178.915 19.8201 175.412 19.1144C175.065 19.0262 174.689 18.9673 174.283 18.8791L168.899 17.8793C168.638 17.8499 167.307 19.379 167.046 19.379C166.438 19.3496 165.859 19.4084 165.309 19.5261C162.385 20.173 160.214 22.8489 161.575 26.7011L162.501 28.5537C163.022 29.5829 163.341 30.7003 163.341 31.8766C163.341 32.4647 163.428 33.0528 163.63 33.6115C164.122 35.023 165.193 36.0522 166.467 36.5815L168.233 40.1396L168.87 41.4335Z" fill="#3EB788"/>
<path d="M180.362 38.2568C181.086 40.4329 182.07 42.3148 182.823 44.0792C184.618 43.1382 185.804 42.3148 185.804 42.3148C184.704 41.3444 184.299 39.8153 183.778 38.4627C183.575 37.8745 182.996 37.5805 182.881 36.963L177.496 27.9941C178.654 31.2288 179.146 34.5811 180.362 38.2568Z" fill="#249677"/>
<path d="M166.495 21.4957C166.351 22.9366 168.203 26.9358 168.203 26.9358C168.203 26.9358 172.922 22.966 173.993 20.5841C174.369 19.7608 173.848 18.761 172.951 18.6139L169.072 17.9082C168.724 17.9964 168.261 18.0846 167.943 18.1729C166.727 19.0256 166.611 20.2901 166.495 21.4957Z" fill="#FEC7C4"/>
<path d="M164.816 12.9695L167.682 21.0562C167.827 21.4385 168.29 21.6737 168.985 21.6737C170.201 21.6737 171.706 21.0268 172.343 20.174C172.604 19.8505 172.662 19.5271 172.575 19.2624L169.709 11.1758L164.816 12.9695Z" fill="#FEC7C4"/>
<path d="M164.932 13.3231L166.929 18.9102C167.277 19.8806 168.521 20.2041 169.245 19.4689C170.056 18.6455 170.635 17.6457 171.011 16.6165C171.214 16.0578 171.214 15.4109 171.011 14.8522L169.824 11.5293L164.932 13.3231Z" fill="#EF8F9B"/>
<path d="M162.674 16.6739C164.903 20.4379 167.711 19.8498 169.767 17.7326C172.083 15.3507 172.604 11.4103 171.909 8.91077C170.867 5.1174 167.711 3.52948 164.614 4.41166C157.55 6.44067 161.893 15.3801 162.674 16.6739Z" fill="#FEC7C4"/>
<path d="M170.172 1.47147C168.03 0.589289 165.222 1.41266 162.964 1.91256C160.185 2.53008 158.622 5.38246 159.461 8.11721C159.924 9.58751 160.445 11.0872 160.938 12.0576C160.938 12.0576 160.648 10.6167 160.677 9.32286C160.677 9.32286 161.256 9.67573 163.051 9.35226C164.238 9.11702 165.193 8.58771 166.09 8.23484C167.191 7.79375 168.435 8.26424 169.072 9.26405C169.535 9.9992 170.028 10.999 170.259 11.9106C170.259 11.9106 170.375 11.2342 170.607 10.5579C170.838 9.94038 171.88 9.26405 172.112 9.58751C172.72 10.4403 171.446 15.1452 171.446 15.1452C175.904 11.0578 173.588 2.91236 170.172 1.47147Z" fill="#4A3572"/>
<path d="M170.317 10.999C169.941 12.087 170.201 13.1457 170.896 13.3809C171.591 13.6162 172.43 12.9398 172.807 11.8812C173.183 10.7932 172.922 9.73457 172.228 9.49932C171.533 9.26408 170.693 9.91101 170.317 10.999Z" fill="#FEC7C4"/>
<path d="M180.709 49.256C180.681 49.3148 180.623 49.3442 180.594 49.403C180.304 49.7559 178.857 51.8143 177.901 53.314C177.409 54.0786 174.543 55.3724 174.051 55.4018C172.691 55.4901 172.17 54.6667 172.025 53.7551C171.735 51.9907 172.864 50.3146 174.543 49.7853C175.933 49.3442 177.438 49.1972 177.93 48.1974C178.075 47.8739 178.423 47.9327 178.538 47.6387L180.709 49.256Z" fill="#FEC7C4"/>
<path d="M177.381 48.8429C178.133 48.196 179.147 49.8133 179.523 50.8425C179.523 50.8425 188.874 43.9027 189.916 39.8153C190.437 37.7863 184.792 28.3175 182.36 23.7302C181.578 22.2305 179.668 21.7012 178.249 22.6128C176.976 23.4361 175.818 25.7592 176.483 27.1413C177.989 30.1995 182.939 37.6098 183.547 38.7861C183.634 38.9331 183.576 39.1095 183.489 39.2566C183.113 39.9329 177.381 48.8429 177.381 48.8429Z" fill="#3EB788"/>
<path d="M135.404 98.7155L123.796 91.8345C123.477 91.6287 123.072 91.6287 122.725 91.7757C122.377 91.9522 122.146 92.2756 122.088 92.6579L118.961 119.564C118.903 119.888 118.99 120.182 119.164 120.447C119.338 120.682 119.627 120.858 119.917 120.917C120.235 120.976 120.524 120.888 120.756 120.711C121.017 120.535 121.161 120.241 121.219 119.947L124.085 94.7457L133.725 100.45L136.939 130.503C137.025 131.091 137.518 131.503 138.068 131.503C138.125 131.503 138.154 131.503 138.212 131.503C138.849 131.415 139.283 130.827 139.197 130.18L135.983 99.5683C135.925 99.2154 135.723 98.892 135.404 98.7155Z" fill="#AFBBD1"/>
<path d="M159.432 86.3066C159.374 85.9537 159.171 85.6302 158.882 85.4538L147.273 78.5728C146.955 78.367 146.55 78.367 146.202 78.514C145.855 78.6904 145.623 79.0139 145.565 79.3962L142.439 106.303C142.381 106.626 142.468 106.92 142.641 107.185C142.815 107.42 143.105 107.596 143.394 107.655C143.713 107.714 144.002 107.626 144.234 107.449C144.494 107.273 144.639 106.979 144.697 106.685L147.563 81.484L157.203 87.1888L160.416 117.242C160.503 117.83 160.995 118.241 161.545 118.241C161.603 118.241 161.632 118.241 161.69 118.241C162.327 118.153 162.761 117.565 162.674 116.918L159.432 86.3066Z" fill="#AFBBD1"/>
<path d="M140.007 71.2212L134.536 55.0773C134.449 54.7832 134.333 54.548 134.188 54.3127L134.622 53.9305L132.915 53.2541C132.046 52.9307 131.178 52.9601 130.425 53.4012L112.882 63.6344C111.405 64.5166 110.682 66.281 111.145 67.9571L116.5 84.1892C116.732 85.042 117.34 85.6595 118.035 86.0124C118.122 86.0712 118.151 86.0712 118.179 86.0712L120.032 86.8357L120.148 86.1006C120.293 86.0418 120.466 85.983 120.611 85.8947L138.27 75.6027C139.775 74.7205 140.499 72.8973 140.007 71.2212Z" fill="#2190F4"/>
<path d="M140.037 76.3073L122.378 86.5994C120.786 87.5404 118.759 86.6876 118.267 84.8938L112.911 68.6911C112.448 67.015 113.172 65.2212 114.648 64.3685L132.191 54.1352C133.784 53.1942 135.781 54.0176 136.302 55.8113L141.774 71.9552C142.266 73.6019 141.542 75.4251 140.037 76.3073Z" fill="#50B1F9"/>
<path d="M161.632 88.6869V86.7755L160.764 86.7167C160.561 86.4814 160.301 86.2756 160.011 86.0991L146.492 78.1595C144.465 76.9833 141.976 76.9833 139.949 78.1595L121.19 89.0985C120.727 89.3632 120.38 89.7161 120.119 90.1278L119.569 90.0101V91.9803C119.569 93.0977 120.119 94.2152 121.219 94.8621L134.739 102.802C136.765 103.978 139.255 103.978 141.281 102.802L160.04 91.8627C161.198 91.1864 161.719 89.9219 161.632 88.6869Z" fill="#2190F4"/>
<path d="M160.011 83.9526L146.492 76.013C144.465 74.8368 141.976 74.8368 139.949 76.013L121.19 86.952C118.99 88.2165 118.99 91.4218 121.19 92.7156L134.709 100.655C136.736 101.831 139.225 101.831 141.252 100.655L160.011 89.7162C162.182 88.4518 162.182 85.2465 160.011 83.9526Z" fill="#50B1F9"/>
<path d="M143.307 50.491C143.104 45.3743 140.875 41.2869 138.328 41.4045C137.864 41.4339 137.401 41.581 136.996 41.875C136.07 39.9048 134.767 38.6698 133.377 38.7286C130.83 38.8462 128.948 43.0807 129.151 48.1973C129.151 48.3149 129.18 48.4031 129.18 48.5208L129.643 60.1067C129.73 62.1651 131.93 63.4296 133.696 62.4004L141.107 58.1659C142.612 57.3131 143.509 55.6664 143.452 53.902L143.336 50.8144C143.307 50.6968 143.307 50.6086 143.307 50.491Z" fill="#371D3E"/>
<path d="M161.748 128.593C161.719 128.563 161.69 128.534 161.604 128.475C161.575 128.446 161.546 128.416 161.517 128.387C161.488 128.357 161.459 128.357 161.43 128.328C161.401 128.299 161.343 128.269 161.285 128.24C161.256 128.21 161.198 128.181 161.169 128.152C161.14 128.122 161.082 128.093 161.054 128.063C161.025 128.034 160.967 128.004 160.938 127.975C160.677 127.769 160.359 127.563 160.011 127.328C159.606 127.034 157.782 126.093 156.653 124.77C156.045 124.064 155.785 123.094 155.843 122.153C156.103 118.006 157.261 106.597 157.956 101.127C158.245 98.7749 158.303 96.4225 158.188 94.07C158.043 90.8353 148.895 82.6017 145.363 79.7199L145.161 79.5434V79.367C144.929 78.8965 143.771 77.3086 142.352 77.3086C140.818 77.338 138.821 77.4262 136.331 77.5732L137.055 81.5725V81.6607L137.952 86.7185L145.334 92.0704L147.94 93.8347L152.05 96.6283V96.9518V97.04C150.371 103.421 151.5 116.271 152.137 121.065C152.282 122.182 152.224 123.3 151.877 124.358C151.616 125.182 151.385 126.034 151.414 126.711C151.385 126.858 151.414 127.005 151.414 127.152C151.471 127.534 151.703 127.857 152.05 128.004L157.261 130.386C157.869 130.651 158.506 130.857 159.143 130.886C159.346 130.886 159.548 130.886 159.722 130.886C159.809 130.886 159.867 130.886 159.953 130.857C160.011 130.857 160.04 130.857 160.098 130.827C160.243 130.798 160.388 130.769 160.503 130.739C160.532 130.739 160.59 130.71 160.619 130.71C160.764 130.68 160.909 130.622 161.054 130.563C161.835 130.151 162.356 129.328 161.748 128.593Z" fill="#FEC7C4"/>
<path d="M152.08 128.033L157.262 130.386C157.87 130.651 159.52 131.268 161.141 130.621C161.893 130.327 162.675 129.357 162.038 128.592C162.038 128.592 160.301 127.533 159.954 127.298C159.925 127.328 159.664 127.592 159.375 127.857C158.941 128.298 158.304 128.269 157.696 128.092C154.222 126.975 151.819 126.034 151.877 124.299C150.459 127.416 151.732 127.857 152.08 128.033Z" fill="#371D3E"/>
<path d="M152.224 131.211C152.195 131.181 152.166 131.152 152.079 131.093C152.05 131.064 152.021 131.034 151.992 131.005C151.964 130.976 151.935 130.976 151.906 130.946C151.877 130.917 151.819 130.887 151.761 130.858C151.732 130.829 151.674 130.799 151.645 130.77C151.616 130.74 151.558 130.711 151.529 130.682C151.5 130.652 151.442 130.623 151.413 130.593C151.153 130.388 150.835 130.182 150.487 129.946C149.937 129.535 146.174 128.27 146.29 126.006C146.521 121.595 149.416 99.9817 149.416 99.9817C149.532 99.2172 149.619 98.482 149.677 97.7763C149.763 96.9235 149.127 95.4238 147.94 93.7477C147.534 93.1889 147.071 92.6008 146.55 91.9833C145.942 91.2776 145.363 90.6012 144.871 89.9249C142.179 86.3962 139.602 83.0733 139.863 81.0443C139.863 81.0149 139.863 80.9855 139.863 80.9561C139.66 81.0443 139.4 81.1325 139.197 81.2207C138.792 81.3677 138.473 81.4854 138.242 81.5736C137.981 81.6618 137.807 81.6912 137.634 81.6912L137.373 81.6618L137.228 81.5736C137.171 81.5442 137.084 81.4854 137.026 81.4854C136.939 81.456 136.852 81.4266 136.736 81.4266C136.534 81.4266 136.273 81.4854 136.013 81.5442C135.694 81.6324 135.318 81.7206 134.884 81.75C134.015 81.75 133.031 81.3972 131.96 80.9855C131.004 80.6326 129.991 80.2503 129.094 80.1621V80.2797C127.733 85.1317 129.267 89.6014 133.407 92.8949L142.845 100.041V100.629C140.529 106.186 142.41 117.596 142.816 123.124C142.902 124.389 142.816 125.683 142.41 126.888C142.15 127.712 141.918 128.594 141.947 129.241C141.918 129.388 141.947 129.535 141.947 129.682C142.005 130.064 142.237 130.388 142.584 130.535L147.795 132.916C148.403 133.181 149.04 133.387 149.677 133.416C149.879 133.416 150.082 133.416 150.256 133.416C150.342 133.416 150.4 133.416 150.487 133.387C150.545 133.387 150.574 133.387 150.632 133.358C150.777 133.328 150.921 133.299 151.037 133.269C151.066 133.269 151.124 133.24 151.153 133.24C151.298 133.21 151.442 133.152 151.587 133.093C152.34 132.769 152.861 131.946 152.224 131.211Z" fill="#FEC7C4"/>
<path d="M142.584 130.653L147.766 133.005C148.373 133.27 150.024 133.887 151.645 133.24C152.397 132.946 153.179 131.976 152.542 131.211C152.542 131.211 150.805 130.153 150.458 129.917C150.429 129.947 150.168 130.211 149.879 130.476C149.445 130.917 148.808 130.888 148.2 130.711C144.726 129.594 142.323 128.653 142.381 126.918C140.963 130.035 142.236 130.505 142.584 130.653Z" fill="#371D3E"/>
<path d="M146.375 78.8971C146.375 78.6618 143.538 76.6328 143.538 76.6328C141.628 76.6622 139.167 76.8092 136.793 76.9269L137.546 81.0731C136.678 80.5144 135.867 81.1613 134.941 81.1613C133.291 81.1907 130.685 79.4558 128.601 79.5734L128.514 80.1615C127.066 85.3664 128.861 90.1007 133.059 93.4236L141.107 98.7755C144.089 99.3342 157.752 93.306 157.376 91.4828C156.334 86.3368 146.375 78.8971 146.375 78.8971Z" fill="#4A3572"/>
<path d="M146.376 78.8961C145.391 79.7195 141.599 81.7191 138.415 82.1308C137.141 82.2778 135.954 82.3661 134.825 82.3661C131.785 82.3661 129.412 81.8073 128.225 80.7487C128.312 80.3959 128.398 80.043 128.456 79.6901C128.601 78.8079 128.688 77.8963 128.659 77.0142L128.601 75.5145L128.746 71.1036L128.833 68.6041L126.604 61.6054C126.604 58.312 128.456 56.9593 131.206 55.2538C131.409 55.1361 131.641 54.9891 131.872 54.8715C131.93 54.8421 131.988 54.7833 132.046 54.7539L134.304 53.4306L136.215 52.2838C136.446 52.1955 138.009 53.0483 138.212 52.9895C138.733 52.7542 139.312 52.6072 139.862 52.5484C142.439 52.2838 145.565 54.7833 145.565 58.3708L144.523 71.1918C144.06 75.1028 146.376 78.8961 146.376 78.8961Z" fill="#FFDF57"/>
<path d="M133.985 54.1969L134.014 54.1086V46.9336H138.849V53.8146C138.849 53.8146 139.138 53.9028 139.283 53.9616C140.238 54.3733 139.659 56.3729 139.283 56.667C138.675 57.1375 136.648 56.4905 134.883 55.9318C134.159 55.726 133.754 54.932 133.985 54.1969Z" fill="#FFC1BB"/>
<path d="M135.693 80.1621C133.03 80.6915 129.961 80.0739 128.456 79.6328C128.601 78.7507 128.688 77.8391 128.659 76.9569L128.601 75.4572L128.746 71.0463L131.843 62.2539L134.275 74.428L134.738 78.8389C134.767 78.8683 135.693 80.1621 135.693 80.1621Z" fill="#FFB36B"/>
<path d="M138.761 51.2264L138.356 54.3434C138.24 54.9315 137.024 55.0786 136.156 54.4905C134.824 53.6083 134.014 52.4026 134.014 51.1088V48.6387L138.761 51.2264Z" fill="#F49082"/>
<path d="M142.178 51.0201C140.759 54.8135 138.241 54.7547 136.128 53.1668C134.709 52.0787 133.551 50.6379 133.522 48.8147C133.493 47.6384 132.856 46.4328 132.972 45.4918C133.319 41.8749 135.867 39.9047 138.704 40.1987C145.131 40.8457 142.641 49.6969 142.178 51.0201Z" fill="#FFC1BB"/>
<path d="M131.756 39.4049C134.969 36.6407 140.036 37.0818 142.004 39.2872C142.467 39.8165 142.641 40.5223 142.525 41.228C142.525 41.228 143.48 43.0806 143.046 45.7859C143.046 45.7859 142.901 44.3745 142.467 43.1982C142.149 43.4629 141.715 43.6099 141.165 43.7275C138.675 44.1686 134.188 43.2276 134.622 48.109C134.622 48.109 134.13 47.9032 133.725 47.3445C133.348 46.8446 132.19 46.5505 132.075 46.9034C131.785 47.8444 133.956 51.9024 133.956 51.9024C128.659 49.5205 129.035 41.7279 131.756 39.4049Z" fill="#371D3E"/>
<path d="M134.738 45.7275C135.201 46.7567 135.056 47.8447 134.39 48.1388C133.725 48.4622 132.827 47.8741 132.335 46.8449C131.872 45.8157 132.017 44.7277 132.683 44.4336C133.348 44.1395 134.246 44.6983 134.738 45.7275Z" fill="#FFC1BB"/>
<path d="M155.031 109.273C155.06 108.597 154.568 108.009 153.902 107.95C153.208 107.891 152.6 108.391 152.542 109.097C152.542 109.185 152.513 110.097 152.542 146.56L125.967 131.181C125.127 130.681 124.085 131.298 124.085 132.269C124.085 132.71 124.317 133.151 124.722 133.357L152.658 149.53C152.745 149.589 152.831 149.618 152.947 149.648C153.005 149.706 153.092 149.795 153.179 149.824C154.018 150.324 155.06 149.706 155.06 148.736V148.001C155.031 134.768 155.031 110.126 155.031 109.273Z" fill="#D2D9E5"/>
<path d="M193.852 88.3358C193.881 87.6594 193.389 87.0713 192.723 87.0125C192.028 86.9537 191.42 87.4536 191.362 88.1593C191.362 88.2476 191.333 87.1889 191.362 123.652L164.787 108.273C163.947 107.773 162.905 108.391 162.905 109.361C162.905 109.802 163.137 110.243 163.542 110.449L191.478 126.622C191.565 126.681 191.652 126.711 191.767 126.74C191.825 126.799 191.912 126.887 191.999 126.916C192.839 127.416 193.881 126.799 193.881 125.828V125.093C193.852 111.89 193.852 89.1885 193.852 88.3358Z" fill="#D2D9E5"/>
<path d="M120.147 91.6289V94.7459L153.728 114.624V111.331L120.147 91.6289Z" fill="#D2D9E5"/>
<path d="M153.729 111.332V114.625L193.852 91.0711V87.6895L153.729 111.332Z" fill="#AFBBD1"/>
<path d="M120.147 88.9531V91.6291L153.728 111.331V108.567L120.147 88.9531Z" fill="#E76866"/>
<path d="M193.852 85.1899L160.271 65.5762L120.147 88.9539L153.728 108.568L193.852 85.1899Z" fill="#F49082"/>
<path d="M153.729 108.569V111.333L193.852 87.6909V85.1914L153.729 108.569Z" fill="#E76866"/>
<path d="M154.018 74.75C152.368 75.2205 152.484 76.779 152.484 76.779C150.544 75.5146 146.868 73.4267 144.32 71.5742C144.32 71.3977 144.349 71.1919 144.378 71.0155L145.42 58.1945C145.42 58.1062 145.42 57.9886 145.42 57.9004C145.71 60.0176 146.578 66.4281 147.244 67.7808C147.91 69.0747 154.018 74.75 154.018 74.75Z" fill="#FFB36B"/>
<path d="M149.792 78.5447C147.099 76.9862 142.931 79.221 140.441 83.5731C140.325 83.7789 140.21 83.9848 140.094 84.22L153.381 91.8362L163.05 86.1608L149.792 78.5447Z" fill="#EFECF3"/>
<path d="M172.748 80.485L159.461 72.8689C156.768 71.3104 152.6 73.5452 150.11 77.8973C149.994 78.1032 149.878 78.309 149.763 78.5443L163.05 86.1604L172.748 80.485Z" fill="#D2D9E5"/>
<path d="M163.398 85.5439C163.282 85.7497 163.079 86.1614 163.05 86.1614C160.358 84.5735 156.19 86.8377 153.7 91.1898C153.584 91.3956 153.468 91.6015 153.353 91.8367V92.7483L163.022 87.6905L172.69 82.074V80.4566C170.056 78.9275 165.859 81.2212 163.398 85.5439Z" fill="#AFBBD1"/>
<path d="M140.123 84.2188V85.7773L153.382 93.3934V91.8349L140.123 84.2188Z" fill="#D2D9E5"/>
<path d="M139.342 85.2188V85.4834L153.382 93.57L153.469 93.3348L139.342 85.2188Z" fill="#4A3572"/>
<path d="M173.588 81.4258L153.382 93.3058V93.5998L162.269 88.3656C162.819 88.395 163.456 88.0127 163.977 87.3658L173.588 81.7198V81.4258Z" fill="#4A3572"/>
<path d="M172.749 80.9258V81.3669L153.382 92.747L140.094 85.1308V84.778L139.312 85.2191L153.353 93.2763L162.211 88.0714C162.79 88.1008 163.456 87.7186 164.006 87.0128L173.588 81.3963L172.749 80.9258Z" fill="#6B5096"/>
<path d="M161.806 87.6595C162.53 88.0712 163.659 87.4831 164.325 86.3069C164.353 86.2481 164.382 86.1892 164.411 86.1304V85.7188L161.748 87.2773L161.806 87.6595Z" fill="#AFBBD1"/>
<path d="M149.01 83.4832C148.692 83.7772 146.202 84.6888 145.449 84.6594C143.915 84.63 142.525 83.9243 142.149 83.7772C141.107 83.3655 139.37 82.748 137.488 82.0129L138.675 78.543C139.833 79.2781 141.049 79.9545 142.265 80.3661C142.554 80.4838 142.757 80.5426 142.931 80.572C144.494 80.8072 147.36 78.4841 147.707 80.0427C147.736 80.0133 150.863 81.7188 149.01 83.4832Z" fill="#FFC1BB"/>
<path d="M142.265 80.1312C141.397 80.3958 140.731 82.6601 141.223 83.3952C141.223 83.3952 130.396 80.9546 127.733 77.6023C126.459 75.9849 126.112 67.2808 126.604 61.7231C126.604 61.7231 127.82 59.1942 129.499 59.253C130.975 59.3118 132.191 60.5174 132.278 62.0171C132.452 65.4282 132.162 72.9267 132.538 74.2206C132.77 75.1028 142.265 80.1312 142.265 80.1312Z" fill="#FFDF57"/>
</g>
<defs>
<clipPath id="clip0">
<rect width="92" height="149" fill="white" transform="translate(111 1)"/>
</clipPath>
</defs>
</svg>
