<svg width="164" height="191" viewBox="0 0 164 191" fill="none" xmlns="http://www.w3.org/2000/svg">
<g clip-path="url(#clip1)">
<path d="M47.2906 55.8596V95.7952L6.28011 119.049L6.02722 58.1766L47.2906 55.8596Z" fill="#D2D9E5"/>
<path d="M133.021 126.547L6.2802 119.049L42.9494 140.407C41.9379 140.702 40.9685 140.997 39.999 141.376C33.5082 143.945 29.2933 147.863 28.7032 151.781C28.6611 152.076 28.6611 152.371 28.6611 152.666C24.1933 153.34 19.9785 154.435 16.1851 155.951C7.7554 159.279 2.27609 164.334 1.51741 169.474C0.800886 174.445 4.55211 178.573 7.83969 181.185C15.4264 187.167 27.9445 190.874 41.2635 191C49.9882 191.085 58.2915 189.694 65.2882 186.914C73.7179 183.586 79.1972 178.531 79.9558 173.392C80.4195 170.359 79.155 167.662 77.3848 165.388C77.5534 165.345 77.722 165.303 77.8484 165.219C79.3658 164.629 80.7988 163.913 82.0211 163.197L98.0376 172.507H113.253L164 144.072L133.021 126.547Z" fill="#EEF1F5"/>
<path d="M3.62485 56.7442V53.1213L98.0797 108.222L144.401 80.9667V84.5896L98.0797 111.803L3.62485 56.7442Z" fill="#E76866"/>
<path d="M3.62485 53.1214L50.1147 26.1606L144.401 80.9668L98.0797 108.222L3.62485 53.1214Z" fill="#F49082"/>
<path d="M144.485 84.6736V145.672L98.2484 172.465L97.9955 111.592L144.485 84.6736Z" fill="#D2D9E5"/>
<path d="M97.9954 111.593L98.2483 172.465L95.8037 170.948L95.593 113.109L6.06946 61.1255L6.28021 119.049L3.83559 117.532L3.62485 56.7444L97.9954 111.593Z" fill="#AFBBD1"/>
<path d="M63.6864 139.565C63.6864 139.565 63.6864 141.671 61.1154 143.566C60.736 143.819 60.2724 144.156 59.7245 144.493C58.2493 145.42 56.2683 147.105 55.046 148.285C54.3295 148.917 53.5708 149.422 52.5171 149.464C50.9576 149.548 49.5667 149.043 49.7353 146.684C49.7353 146.515 49.7774 146.22 49.8196 145.968C49.8196 145.841 49.8617 145.715 49.8617 145.589C49.9039 145.42 49.9882 141.039 49.9882 140.913C50.1989 141.713 51.2948 138.596 51.9691 138.596C52.9807 138.553 52.8543 140.997 53.5708 140.365C54.8352 139.185 56.184 139.733 59.598 137.964L60.2724 137.837C62.9278 137.542 63.3493 138.427 63.6443 139.227C63.6443 139.312 63.6864 139.438 63.6864 139.565Z" fill="#371D3E"/>
<path d="M82.9062 150.264C82.9062 150.264 80.3773 150.012 79.5343 149.969C77.5533 149.885 73.212 148.664 71.8633 149.59C70.3038 150.644 66.8898 151.57 66.8476 148.664L64.9088 149.295C64.8666 149.927 64.698 153.466 64.698 153.677C64.6559 154.73 64.8666 155.825 65.4146 156.71C66.7212 158.774 70.7674 157.552 73.0434 157.089L79.9558 156.162C82.4847 155.657 84.0864 153.887 84.55 152.371C84.6343 151.402 83.9178 150.433 82.9062 150.264Z" fill="#371D3E"/>
<path d="M59.9352 104.937C60.0195 104.937 58.6708 139.943 58.6708 139.943C58.7129 142.934 48.9345 142.724 49.1031 140.238L48.4708 104.937H59.9352Z" fill="#371D3E"/>
<path d="M73.9286 149.211C73.9286 151.655 65.0774 153.129 64.4452 149.927L60.0196 113.615H74.5608L73.9286 149.211Z" fill="#EFECF3"/>
<path d="M49.7774 140.407L66.8897 130.423C67.3955 130.128 67.9855 130.128 68.4913 130.338C68.9971 130.591 69.3343 131.055 69.4186 131.602L74.0128 170.653C74.0971 171.117 73.9706 171.538 73.7177 171.917C73.4648 172.296 73.0434 172.507 72.6219 172.591C72.1582 172.675 71.7368 172.549 71.3574 172.296C70.9781 172.043 70.7673 171.622 70.683 171.159L66.4682 134.593L52.222 142.892L47.4592 186.493C47.3327 187.335 46.6162 187.967 45.7732 187.967C45.6889 187.967 45.6046 187.967 45.5625 187.967C44.6352 187.841 44.003 186.998 44.0873 186.071L48.9344 141.67C49.0187 141.123 49.3137 140.659 49.7774 140.407Z" fill="#AFBBD1"/>
<path d="M11.1693 119.765C11.2536 119.259 11.5487 118.796 12.0123 118.543L29.1246 108.559C29.6304 108.265 30.2205 108.265 30.7263 108.475C31.232 108.728 31.5692 109.191 31.6535 109.739L36.2477 148.79C36.332 149.253 36.2056 149.675 35.9527 150.054C35.6998 150.433 35.2783 150.643 34.8568 150.728C34.3932 150.812 33.9717 150.686 33.5924 150.433C33.213 150.18 33.0023 149.759 32.918 149.295L28.7031 112.73L14.4569 121.029L9.69414 164.629C9.56769 165.472 8.85117 166.104 8.0082 166.104C7.9239 166.104 7.8396 166.104 7.79745 166.104C6.87018 165.977 6.23796 165.135 6.32225 164.208L11.1693 119.765Z" fill="#AFBBD1"/>
<path d="M7.33381 124.862C7.29166 124.862 7.29166 121.913 7.29166 121.913L8.64041 121.829C8.9776 121.492 9.35694 121.155 9.82057 120.902L30.8948 108.728C34.056 106.916 37.9336 106.916 41.0948 108.728L70.3459 125.494C71.0624 125.915 71.6103 126.463 72.0318 127.053L72.8748 126.842L72.9169 129.875C72.9169 131.602 72.074 133.329 70.3459 134.298L49.2716 146.473C46.1105 148.284 42.2328 148.284 39.0717 146.473L9.82057 129.707C8.00818 128.696 7.16521 126.758 7.33381 124.862Z" fill="#2190F4"/>
<path d="M9.86253 117.659L30.9368 105.484C34.0979 103.673 37.9756 103.673 41.1367 105.484L70.3878 122.25C73.8019 124.188 73.8019 129.117 70.3878 131.097L49.3136 143.229C46.1524 145.041 42.2748 145.041 39.1136 143.229L9.86253 126.463C6.44849 124.525 6.44849 119.596 9.86253 117.659Z" fill="#50B1F9"/>
<path d="M37.47 107L42.2749 125.747C44.4245 124.609 46.4898 123.219 48.3865 121.618C53.36 117.406 59.2608 112.393 62.8434 109.359C64.7823 107.717 65.5409 105.063 64.7401 102.619C63.5178 98.9965 59.3872 97.2693 55.9732 99.0386L41.8956 106.2C40.5047 107.043 38.9452 107.295 37.47 107Z" fill="#AFBBD1"/>
<path d="M73.76 110.202C75.5302 113.698 74.055 116.352 70.7253 118.501C66.679 121.155 61.1997 124.693 56.7319 127.474C48.9345 132.318 41.0105 134.677 32.3701 133.371C29.0825 132.866 19.2619 129.285 17.1545 123.387C16.2272 120.775 16.9437 118.416 17.4916 115.341C18.3346 110.623 18.0817 106.158 18.0817 106.158C18.0817 106.158 33.3395 94.1939 41.2634 109.317C41.432 109.654 41.6849 110.16 42.0221 110.749C43.6659 113.909 47.5857 115.046 50.6626 113.277L63.3071 106.832C67.1426 104.852 71.8211 106.41 73.76 110.202Z" fill="#EFECF3"/>
<path d="M41.137 97.7749C41.137 97.7749 15.0471 106.79 10.3686 101.482C8.26115 99.1229 13.8669 73.5102 13.8669 73.5102L15.6371 71.5724L22.676 72.415C23.6032 72.5413 24.6991 70.9827 24.6991 70.9827C24.1511 74.774 21.4115 88.9705 20.695 93.3095C20.5685 93.9836 40.6312 92.2143 40.6312 92.2143C39.1139 92.8461 39.6197 97.3958 41.137 97.7749Z" fill="#220428"/>
<path d="M17.028 99.9658C17.028 98.8705 16.9437 97.7752 16.8173 96.6799L13.1925 77.6389C12.6867 71.8676 16.8594 68.7081 21.2007 68.2869C21.5801 68.2448 22.0016 68.2026 22.423 68.2448C23.4346 68.2448 24.4883 68.4133 25.4999 68.7503C25.8792 68.8767 28.5767 67.0652 28.9982 67.2337L34.0139 69.5928L34.1403 69.677L36.9221 70.983C37.4701 71.2357 37.9759 71.4885 38.4816 71.7412C38.861 71.9097 39.2403 72.1204 39.5775 72.2889C44.3403 74.7743 48.4287 77.8074 48.8923 83.2417L44.7618 95.0791V95.2055L46.4477 114.036C46.532 116.184 44.1295 119.302 41.98 119.554C34.1825 120.355 17.3652 119.049 16.8173 113.867L17.028 99.9658Z" fill="#371D3E"/>
<path d="M39.6617 61.0406C38.6923 67.5281 34.4353 68.3285 30.3469 66.6013C25.7527 64.6635 22.7602 59.5662 22.2965 55.7327C21.58 49.9193 25.0783 45.9173 29.9254 45.3276C40.9262 44.0217 39.9989 58.7658 39.6617 61.0406Z" fill="#FEC7C4"/>
<path d="M25.2048 58.7241L26.3007 71.4462C26.3428 72.0359 26.9329 72.5836 27.9866 72.8363C29.799 73.3418 32.2015 72.9627 33.4659 71.9938C33.9717 71.6147 34.1824 71.1934 34.1403 70.7721C34.1824 70.7721 33.0866 58.05 33.0866 58.05L25.2048 58.7241Z" fill="#FEC7C4"/>
<path d="M30.0097 53.5003C31.4849 55.2696 33.6345 56.1122 35.6155 55.9436C36.6692 55.8594 36.7957 53.9216 37.6386 53.2054C40.0411 51.1834 41.8113 46.9287 38.8188 45.033C35.742 43.0952 30.8527 43.2216 28.661 43.7271C28.3238 43.8113 30.4312 44.696 30.1783 44.9066C27.818 46.9286 27.7337 50.7621 30.0097 53.5003Z" fill="#371D3E"/>
<path d="M38.1866 71.5726C38.1866 71.5726 37.1329 69.7612 35.8263 69.2978C34.5197 68.8344 25.2049 70.688 25.1627 69.2136C25.1627 69.0029 26.0057 68.4974 26.0057 68.4974L25.8793 67.2336C25.8793 67.2336 24.4884 67.9077 24.0247 68.3289C23.1818 69.1293 22.676 71.025 24.0669 72.2466C28.071 75.7852 38.1866 71.5726 38.1866 71.5726Z" fill="#220428"/>
<path d="M29.209 63.1471L29.9677 59.3136C30.1784 58.3026 30.5999 57.3337 31.2743 56.5333C31.9486 55.7329 32.8338 55.101 33.8453 54.7218L37.5966 53.2896C37.5123 56.4911 36.2899 59.2293 33.5081 62.5152C32.1594 64.0738 30.6842 65.0849 29.209 65.5061L29.1668 64.8742C29.0825 64.2845 29.0825 63.6947 29.209 63.1471Z" fill="#371D3E"/>
<path d="M28.7032 43.7271C33.2974 43.011 37.3015 46.6759 37.5966 52.2787C37.5966 52.6157 37.5966 52.9527 37.5966 53.2898L33.8454 54.722C32.8338 55.1012 31.9908 55.7331 31.2743 56.5335C30.5999 57.3339 30.1784 58.2606 29.9677 59.3138L29.209 63.1473C29.0826 63.6949 29.0826 64.2847 29.1247 64.8744L29.1669 65.5063C26.3429 66.2646 23.6454 64.8323 22.381 60.9146C21.6644 58.8083 13.7827 46.0019 28.7032 43.7271Z" fill="#371D3E"/>
<path d="M36.4585 59.8613C37.5965 61.125 37.8494 62.7258 37.0064 63.4841C36.2056 64.2002 34.604 63.779 33.4659 62.5152C32.3279 61.2514 32.075 59.6506 32.918 58.8923C33.7188 58.1341 35.3205 58.5975 36.4585 59.8613Z" fill="#FEC7C4"/>
<path d="M45.5626 105.821L38.5238 85.1372L38.9875 92.5514C39.0296 93.4361 39.1561 94.3628 39.3668 95.2054C40.7156 101.356 42.4436 105.863 45.7312 109.992L45.5626 105.821Z" fill="#220428"/>
<path d="M56.437 98.7441C60.1882 97.8173 64.3609 96.5956 66.6369 95.9637L68.3228 95.4582C71.2311 95.2476 75.6988 87.3279 76.9211 89.9818C76.9211 89.9818 81.2624 90.4873 79.2393 94.6578C78.6914 95.7531 76.2468 97.3539 74.3922 98.2385C72.8327 98.9968 71.779 99.2496 70.6832 99.4181C70.4724 99.4602 70.3038 99.5023 70.0931 99.5445C69.798 99.7551 57.8279 104.263 57.8279 104.263L56.437 98.7441Z" fill="#FEC7C4"/>
<path d="M48.9766 80.5456C48.9766 80.5456 52.3064 96.3429 52.9386 98.5335C53.0229 98.9126 66.7212 94.9949 66.7212 94.9949C68.7443 95.9638 69.9244 99.6709 68.955 101.693C68.955 101.693 51.0419 110.076 47.2485 108.391C45.3097 107.548 38.2287 86.3169 38.1444 82.8625L42.4436 73.8896C44.3403 74.9007 48.2601 76.9227 48.9766 80.5456Z" fill="#371D3E"/>
<path d="M1.47519 92.0038L4.0041 90.6557C4.93137 90.1502 6.06938 90.1502 6.99665 90.6557L35.7841 106.622C38.1023 107.885 39.999 110.876 40.7998 114.457L46.3212 138.427C46.7006 140.112 45.9419 141.881 44.4246 142.724L41.8956 144.03L42.0642 141.418C41.9378 141.376 41.8113 141.376 41.727 141.291L11.8016 124.272C9.48341 123.009 7.58673 120.018 6.78591 116.437L1.81238 94.9526C1.68593 94.3628 1.64378 93.8152 1.64378 93.2676L1.47519 92.0038Z" fill="#50B1F9"/>
<path d="M0.210768 97.4381L5.1843 118.922C5.98512 122.503 7.8818 125.452 10.2 126.758L40.1254 143.777C42.6122 145.125 44.6353 142.092 43.7924 138.258L38.7767 116.774C37.9759 113.193 36.0792 110.202 33.761 108.939L3.83554 91.9196C1.39093 90.5716 -0.632203 93.6468 0.210768 97.4381Z" fill="#2190F4"/>
<path d="M104.149 85.853L88.1747 95.1208L96.773 102.577H99.3862L116.288 92.8881L104.149 85.853Z" fill="#E76866"/>
<path d="M84.55 93.2249L96.6044 100.218V100.934L84.55 93.9831V93.2249Z" fill="#D2D9E5"/>
<path d="M84.55 93.9832V95.4154L96.6044 102.366V100.934L84.55 93.9832Z" fill="#EFECF3"/>
<path d="M84.5499 94.531V94.8259L96.5201 101.777V102.24L83.8334 94.9101L84.5499 94.531Z" fill="#FF575C"/>
<path d="M83.8334 92.8459V92.6353L96.7308 100.049V102.577L83.8334 95.1628V94.9101L96.5201 102.24V100.176L83.8334 92.8459Z" fill="#F6344A"/>
<path d="M113.97 90.192L100.398 97.9432L96.7308 100.049L83.8334 92.6353L87.2053 90.6553L87.4582 90.4868L100.988 82.6514L112.537 89.3494L113.97 90.192Z" fill="#FF575C"/>
<path d="M112.537 89.3494L97.9953 97.7325H95.3821L87.2053 90.6553L87.4582 90.4868L100.988 82.6514L112.537 89.3494Z" fill="#F6344A"/>
<path d="M100.398 97.9429L96.7308 100.049V102.577L100.398 100.47L113.97 92.6771V90.1917L100.398 97.9429Z" fill="#F6344A"/>
<path d="M84.8871 89.6021L95.2135 95.584V96.3001L84.8871 90.3182V89.6021Z" fill="#D2D9E5"/>
<path d="M84.8871 90.3181V91.5398L95.2135 97.5217V96.3L84.8871 90.3181Z" fill="#EFECF3"/>
<path d="M84.8872 90.6553V90.9923L95.1292 96.8899V97.3533L84.2128 91.0344L84.8872 90.6553Z" fill="#50B1F9"/>
<path d="M84.2128 89.223V88.9702L95.34 95.4155V97.7325L84.2128 91.2872V91.0344L95.1292 97.3533V95.5419L84.2128 89.223Z" fill="#2190F4"/>
<path d="M99.26 80.2502L87.8378 86.8641L84.213 88.9704L95.3402 95.4157L99.0071 93.3094L110.472 86.7377L99.26 80.2502Z" fill="#50B1F9"/>
<path d="M99.007 93.3092L95.34 95.4155V97.7325L99.007 95.6262L110.471 89.0124V86.7375L99.007 93.3092Z" fill="#2190F4"/>
<path d="M72.8747 66.7698L56.8583 76.0375L65.3723 83.4517L68.0698 83.4939L84.9292 73.7627C83.8755 72.5411 82.1896 70.7718 79.6185 69.2552C76.9632 67.7387 74.4764 67.0647 72.8747 66.7698Z" fill="#E76866"/>
<path d="M69.8401 65.7168C73.1698 63.8212 78.3963 66.5594 81.431 71.8673C81.5995 72.12 81.726 72.3728 81.8524 72.6255L65.3724 81.9354L53.36 74.9846L69.8401 65.7168Z" fill="#D2D9E5"/>
<path d="M41.3062 68.0758L57.7862 58.7659C61.116 56.8702 66.3424 59.6084 69.3771 64.9163C69.5457 65.1691 69.6721 65.4218 69.7986 65.6746L53.3185 74.9845L41.3062 68.0758Z" fill="#EFECF3"/>
<path d="M52.9386 74.2683C53.065 74.521 53.3601 75.0266 53.3601 75.0266C56.6898 73.1309 61.9162 75.8691 64.9509 81.177C65.1195 81.4297 65.246 81.6825 65.3724 81.9352V83.0727L41.3056 69.0446V68.0757C44.6775 66.1379 49.8618 68.9604 52.9386 74.2683Z" fill="#AFBBD1"/>
<path d="M81.8524 72.6257V73.5525L65.3723 82.8203V81.9356L81.8524 72.6257Z" fill="#AFBBD1"/>
<path d="M82.8219 73.2578V73.5948L65.3724 83.4945L65.2459 83.1996L82.8219 73.2578Z" fill="#4A3572"/>
<path d="M40.4204 68.708L65.3723 83.1573V83.4943L54.3294 77.0911C53.655 77.1332 52.8542 76.6699 52.222 75.8695L40.4204 69.045V68.708Z" fill="#4A3572"/>
<path d="M41.3056 68.1602V68.5393L65.3724 82.4409L81.8525 73.131V72.6677L82.8219 73.2153L65.3724 83.0728L54.3716 76.796C53.6551 76.8381 52.8121 76.3748 52.1377 75.5322L40.3783 68.7499L41.3056 68.1602Z" fill="#6B5096"/>
<path d="M54.9195 76.248C54.0344 76.7535 52.6435 76.0373 51.8005 74.6051C51.7584 74.5208 51.7162 74.4787 51.6741 74.3944V73.8889L54.9617 75.7846L54.9195 76.248Z" fill="#AFBBD1"/>
<path d="M120.25 84.041C120.25 85.389 122.231 86.4843 124.633 86.4843C127.036 86.4843 129.017 85.389 129.017 84.041C129.017 82.6929 127.036 81.5977 124.633 81.5977C122.231 81.5977 120.25 82.6508 120.25 84.041Z" fill="#E76866"/>
<path d="M128.005 75.616L127.71 78.1857L127.162 83.1987L127.036 84.2518C127.036 85.3471 125.434 86.2739 123.411 86.2739C121.43 86.2739 119.786 85.3892 119.786 84.2518L119.66 83.1987L119.112 78.1857L118.817 75.616H128.005Z" fill="#EFECF3"/>
<path d="M127.752 78.1858L127.204 83.1988C127.204 83.1988 126.024 84.5468 123.453 84.5468C121.008 84.5468 119.702 83.1988 119.702 83.1988L119.154 78.1858C119.702 79.1968 121.43 79.9551 123.453 79.9551C125.476 79.9551 127.204 79.1968 127.752 78.1858Z" fill="#FFA16B"/>
<path d="M127.162 76.964C127.668 76.5428 127.963 76.0794 127.963 75.5317C127.963 74.1416 125.94 73.0042 123.411 73.0042C120.882 73.0042 118.859 74.1416 118.859 75.5317C118.859 76.0794 119.154 76.5428 119.66 76.964C120.46 76.29 121.851 75.8687 123.411 75.8687C124.97 75.8687 126.361 76.29 127.162 76.964Z" fill="#D2D9E5"/>
<path d="M127.162 76.9642C126.867 77.2169 126.488 77.4276 126.024 77.5961C126.024 77.5961 125.729 77.3854 125.603 77.4276C125.35 77.5118 124.549 77.9752 124.549 77.9752C124.549 77.9752 123.959 77.8067 123.706 77.8067C123.664 77.8067 123.2 78.0595 123.2 78.0595C123.032 78.0595 122.905 78.0595 122.736 78.0173C122.736 78.0173 122.441 77.8067 122.315 77.8067C122.02 77.7646 121.767 77.4276 121.514 77.3854C121.346 77.3433 120.924 77.6803 120.924 77.6803C120.418 77.5118 119.997 77.2591 119.66 77.0063C119.828 76.8799 120.039 76.7535 120.25 76.6272C120.334 76.585 120.46 76.5429 120.545 76.4587C120.756 76.3744 120.924 76.2902 121.177 76.2059C121.303 76.1638 121.388 76.1217 121.514 76.1217C122.062 75.9953 122.652 75.911 123.327 75.8689C123.369 75.8689 123.411 75.8689 123.453 75.8689C123.537 75.8689 123.622 75.8689 123.664 75.8689C123.874 75.8689 124.085 75.8689 124.296 75.911C124.422 75.911 124.507 75.9531 124.633 75.9531C124.844 75.9953 125.055 76.0374 125.223 76.0795C125.35 76.1217 125.434 76.1217 125.56 76.1638C125.771 76.2059 125.982 76.2902 126.151 76.3744C126.277 76.4165 126.361 76.4587 126.446 76.5008C126.741 76.6272 126.993 76.7957 127.162 76.9642Z" fill="#AFBBD1"/>
<path d="M128.216 68.4968L129.017 67.5701L129.523 67.7386L129.438 69.0024L128.427 69.8027L128.216 68.4968Z" fill="#EFECF3"/>
<path d="M128.427 68.9182L128.342 69.171L125.561 76.1639L124.844 77.9332C124.76 77.9332 124.633 77.9753 124.549 77.9753C124.465 77.9753 124.549 77.7647 124.549 77.7647L125.223 76.0796L128.216 68.5391L128.427 68.9182Z" fill="#6B5096"/>
<path d="M129.017 69.1707L128.932 69.4235L126.151 76.3743L125.603 77.7645C125.35 77.8487 125.097 77.8908 124.844 77.933L125.561 76.1637L128.342 69.1707L128.427 68.918L129.017 69.1707Z" fill="#6B5096"/>
<path d="M129.438 69.0022L126.446 76.5428L126.024 77.6381C125.898 77.6802 125.729 77.7223 125.603 77.8066L126.151 76.4164L128.932 69.4656L129.017 69.2128L129.438 69.0022Z" fill="#4A3572"/>
<path d="M129.017 67.5701C128.975 67.6544 129.059 67.7386 129.185 67.7808C129.312 67.8229 129.438 67.8229 129.48 67.7386L129.522 66.9382L129.017 67.5701Z" fill="#6B5096"/>
<path d="M123.748 63.7788L124.212 62.6414H124.717L125.097 63.8209L124.38 64.9162L123.748 63.7788Z" fill="#EFECF3"/>
<path d="M124.085 64.1158V64.3686L123.664 75.869L123.579 78.0596C123.537 78.0596 123.495 78.0596 123.453 78.0596C123.369 78.0596 123.327 78.0596 123.242 78.0596L123.327 75.869L123.79 63.7788L124.085 64.1158Z" fill="#3EB788"/>
<path d="M124.717 64.1156V64.3684L124.296 75.8688L124.212 77.9751C124.001 78.0172 123.79 78.0172 123.579 78.0172L123.664 75.8267L124.085 64.3262V64.0735L124.717 64.1156Z" fill="#3EB788"/>
<path d="M125.097 63.821L124.633 75.9534L124.549 77.7648V77.9754C124.38 78.0176 124.296 78.0176 124.212 78.0176L124.296 75.9113L124.717 64.4108V64.1581L125.097 63.821Z" fill="#249677"/>
<path d="M124.507 61.8831L124.212 62.6413C124.212 62.7256 124.338 62.8098 124.465 62.8098C124.591 62.8098 124.717 62.7677 124.717 62.6835L124.507 61.8831Z" fill="#3EB788"/>
<path d="M116.794 71.2774L116.456 70.0979L116.92 69.803L117.889 70.5612L117.932 71.8672L116.794 71.2774Z" fill="#EFECF3"/>
<path d="M120.545 76.4167L121.43 77.8069C121.261 77.7648 121.093 77.7227 120.924 77.6384L120.25 76.5852L116.751 71.2773L117.215 71.3616L117.341 71.5722L120.545 76.4167Z" fill="#FF575C"/>
<path d="M121.177 76.2064L122.357 77.9757C122.062 77.9336 121.767 77.8915 121.472 77.8072L120.587 76.417L117.426 71.5725L117.299 71.3619L117.847 71.0249L117.974 71.2355L121.177 76.2064Z" fill="#FF4A59"/>
<path d="M121.514 76.0798L122.779 78.0176C122.61 78.0176 122.484 77.9755 122.357 77.9755L121.177 76.2062L117.931 71.2353L117.805 71.0247L117.931 70.5613L121.514 76.0798Z" fill="#F6344A"/>
<path d="M116.92 69.8031L116.288 69.2976L116.498 70.0559C116.541 70.1401 116.667 70.098 116.794 70.0559C116.878 70.0137 116.962 69.8874 116.92 69.8031Z" fill="#FF4A59"/>
<path d="M105.456 61.3355L110.598 58.3866C109.544 57.165 104.697 55.3957 102.168 53.8791C99.4706 52.2783 96.9838 51.6464 95.3821 51.3516L79.3657 60.6193L87.121 67.9914H92.1789C93.2747 67.9914 94.3706 67.6965 95.2978 67.1489L98.5011 65.2953L101.156 66.8119C101.999 67.2752 103.011 67.3174 103.854 66.8119L108.617 64.1158C108.322 63.7366 107.015 62.6414 105.456 61.3355Z" fill="#E76866"/>
<path d="M87.8376 50.0461L80.9252 46.676V53.8796L87.8376 57.9237V50.0461Z" fill="#AFBBD1"/>
<path d="M93.4012 63.8634C93.4855 63.4421 93.2326 62.9787 92.6003 62.6417L88.8491 60.4933C88.2169 60.1142 87.8375 59.4401 87.8375 58.724V57.9236L80.883 53.8795V54.0901C80.883 54.8905 80.0401 55.3539 79.3235 54.9748L77.6797 54.0059C76.7103 53.4582 75.3194 53.374 74.4765 53.7952L70.1352 56.07C69.7558 56.2807 69.5872 56.5334 69.6294 56.8283V57.8815C69.6294 58.2185 69.9244 58.5976 70.4302 58.8925L85.3086 67.4862C86.278 68.0339 87.669 68.1181 88.5119 67.6969L92.8532 65.422C93.5698 65.0429 93.4012 64.4531 93.4012 63.8634Z" fill="#E3E7EF"/>
<path d="M92.8954 64.411L88.5541 66.6858C87.7533 67.107 86.3202 67.0228 85.3508 66.4751L70.4302 57.8814C70.3459 57.8393 70.2616 57.7971 70.2195 57.7129L70.0509 57.8393V57.9657C70.0509 58.092 70.2195 58.3869 70.641 58.6397L85.5194 67.2334C85.9831 67.4862 86.6153 67.6547 87.2475 67.6547C87.669 67.6547 88.0483 67.5704 88.3012 67.444L92.6425 65.1692C92.9797 64.9586 93.0219 64.748 92.9797 64.3267C92.9797 64.3267 92.9376 64.3688 92.8954 64.411Z" fill="#AFBBD1"/>
<path d="M111.609 62.094V31.1734C111.609 28.9407 110.429 26.9186 108.532 25.7812L64.5715 0.421261C63.6021 -0.126379 62.5484 -0.0842527 61.6633 0.337009C61.3683 0.505514 59.8509 1.34804 59.9352 1.26378C59.0079 1.7693 58.2914 2.7382 58.2914 4.00198V34.8805C58.2914 37.071 59.4716 39.0931 61.3683 40.2305L105.329 65.7168C107.015 66.6857 108.406 65.8432 110.134 64.79C111.019 64.2003 111.609 63.2735 111.609 62.094Z" fill="#D2D9E5"/>
<path d="M110.218 63.7789C110.724 63.3156 110.977 62.7258 110.977 62.0518V31.0891C110.977 29.1091 109.923 27.2977 108.237 26.3288L64.3186 0.968845C63.9393 0.758214 63.56 0.631836 63.1385 0.631836C62.9277 0.631836 62.717 0.673962 62.5063 0.716088C62.717 0.800341 62.9699 0.884593 63.1806 1.01097L107.142 26.3709C109.418 27.5926 110.387 29.2355 110.387 31.9737V62.9364C110.345 63.2313 110.303 63.5262 110.218 63.7789Z" fill="#AFBBD1"/>
<path d="M62.2955 5.30811V35.3019L106.046 60.704V30.6259L62.2955 5.30811Z" fill="white"/>
<path d="M66.7211 35.386L66.8054 15.5867L88.0483 27.6348L88.0061 47.4762L66.7211 35.386Z" fill="#EFECF3"/>
<path d="M66.9319 13.396V11.1633L100.609 30.1622V32.437L66.9319 13.396Z" fill="#D2D9E5"/>
<path d="M91.378 49.1611L91.4202 29.3618L100.482 34.3748L100.398 54.2162L91.378 49.1611Z" fill="#D2D9E5"/>
</g>
<defs>
<clipPath id="clip1">
<rect width="164" height="191" fill="white"/>
</clipPath>
</defs>
</svg>
