<svg width="11" height="11" viewBox="0 0 11 10" fill="none" xmlns="http://www.w3.org/2000/svg">
<path fillRule="evenodd" clipRule="evenodd" d="M8.42879 1.0818L9.18254 0.326569C10.9906 2.20307 10.986 5.01087 9.18254 6.81324L8.42879 6.058C9.70971 4.5846 9.70971 2.48107 8.42879 1.0818ZM5.91315 3.5699C5.91315 4.59347 5.085 5.42324 4.06344 5.42324C3.04187 5.42324 2.21372 4.59347 2.21372 3.5699C2.21372 2.54633 3.04187 1.71657 4.06344 1.71657C5.085 1.71657 5.91315 2.54633 5.91315 3.5699ZM0.364014 8.20324C0.364014 6.97077 2.82875 6.3499 4.06344 6.3499C5.29812 6.3499 7.76286 6.97077 7.76286 8.20324V9.1299H0.364014V8.20324ZM6.87496 2.66648C7.26339 3.21321 7.26339 3.92211 6.87496 4.46884L7.65183 5.25188C8.58594 4.31594 8.58594 2.90278 7.65183 1.88344L6.87496 2.66648Z" fill="white"/>
</svg>
